G75*
G70*
%OFA0B0*%
%FSLAX24Y24*%
%IPPOS*%
%LPD*%
%AMOC8*
5,1,8,0,0,1.08239X$1,22.5*
%
%ADD10C,0.0000*%
D10*
X000655Y002655D02*
X000655Y037655D01*
X000657Y037750D01*
X000664Y037845D01*
X000675Y037940D01*
X000691Y038034D01*
X000711Y038127D01*
X000736Y038218D01*
X000765Y038309D01*
X000798Y038398D01*
X000836Y038486D01*
X000877Y038571D01*
X000923Y038655D01*
X000972Y038736D01*
X001026Y038815D01*
X001083Y038891D01*
X001144Y038965D01*
X001208Y039035D01*
X001275Y039102D01*
X001345Y039166D01*
X001419Y039227D01*
X001495Y039284D01*
X001574Y039338D01*
X001655Y039387D01*
X001739Y039433D01*
X001824Y039474D01*
X001912Y039512D01*
X002001Y039545D01*
X002092Y039574D01*
X002183Y039599D01*
X002276Y039619D01*
X002370Y039635D01*
X002465Y039646D01*
X002560Y039653D01*
X002655Y039655D01*
X017655Y039655D01*
X017750Y039653D01*
X017845Y039646D01*
X017940Y039635D01*
X018034Y039619D01*
X018127Y039599D01*
X018218Y039574D01*
X018309Y039545D01*
X018398Y039512D01*
X018486Y039474D01*
X018571Y039433D01*
X018655Y039387D01*
X018736Y039338D01*
X018815Y039284D01*
X018891Y039227D01*
X018965Y039166D01*
X019035Y039102D01*
X019102Y039035D01*
X019166Y038965D01*
X019227Y038891D01*
X019284Y038815D01*
X019338Y038736D01*
X019387Y038655D01*
X019433Y038571D01*
X019474Y038486D01*
X019512Y038398D01*
X019545Y038309D01*
X019574Y038218D01*
X019599Y038127D01*
X019619Y038034D01*
X019635Y037940D01*
X019646Y037845D01*
X019653Y037750D01*
X019655Y037655D01*
X019655Y037030D01*
X020155Y036530D02*
X020199Y036532D01*
X020242Y036538D01*
X020284Y036547D01*
X020326Y036560D01*
X020366Y036577D01*
X020405Y036597D01*
X020442Y036620D01*
X020476Y036647D01*
X020509Y036676D01*
X020538Y036709D01*
X020565Y036743D01*
X020588Y036780D01*
X020608Y036819D01*
X020625Y036859D01*
X020638Y036901D01*
X020647Y036943D01*
X020653Y036986D01*
X020655Y037030D01*
X020655Y037655D01*
X019655Y037030D02*
X019657Y036986D01*
X019663Y036943D01*
X019672Y036901D01*
X019685Y036859D01*
X019702Y036819D01*
X019722Y036780D01*
X019745Y036743D01*
X019772Y036709D01*
X019801Y036676D01*
X019834Y036647D01*
X019868Y036620D01*
X019905Y036597D01*
X019944Y036577D01*
X019984Y036560D01*
X020026Y036547D01*
X020068Y036538D01*
X020111Y036532D01*
X020155Y036530D01*
X019576Y036405D02*
X019578Y036423D01*
X019584Y036439D01*
X019593Y036454D01*
X019606Y036467D01*
X019621Y036476D01*
X019637Y036482D01*
X019655Y036484D01*
X019673Y036482D01*
X019689Y036476D01*
X019704Y036467D01*
X019717Y036454D01*
X019726Y036439D01*
X019732Y036423D01*
X019734Y036405D01*
X019732Y036387D01*
X019726Y036371D01*
X019717Y036356D01*
X019704Y036343D01*
X019689Y036334D01*
X019673Y036328D01*
X019655Y036326D01*
X019637Y036328D01*
X019621Y036334D01*
X019606Y036343D01*
X019593Y036356D01*
X019584Y036371D01*
X019578Y036387D01*
X019576Y036405D01*
X019576Y036030D02*
X019578Y036048D01*
X019584Y036064D01*
X019593Y036079D01*
X019606Y036092D01*
X019621Y036101D01*
X019637Y036107D01*
X019655Y036109D01*
X019673Y036107D01*
X019689Y036101D01*
X019704Y036092D01*
X019717Y036079D01*
X019726Y036064D01*
X019732Y036048D01*
X019734Y036030D01*
X019732Y036012D01*
X019726Y035996D01*
X019717Y035981D01*
X019704Y035968D01*
X019689Y035959D01*
X019673Y035953D01*
X019655Y035951D01*
X019637Y035953D01*
X019621Y035959D01*
X019606Y035968D01*
X019593Y035981D01*
X019584Y035996D01*
X019578Y036012D01*
X019576Y036030D01*
X019576Y035655D02*
X019578Y035673D01*
X019584Y035689D01*
X019593Y035704D01*
X019606Y035717D01*
X019621Y035726D01*
X019637Y035732D01*
X019655Y035734D01*
X019673Y035732D01*
X019689Y035726D01*
X019704Y035717D01*
X019717Y035704D01*
X019726Y035689D01*
X019732Y035673D01*
X019734Y035655D01*
X019732Y035637D01*
X019726Y035621D01*
X019717Y035606D01*
X019704Y035593D01*
X019689Y035584D01*
X019673Y035578D01*
X019655Y035576D01*
X019637Y035578D01*
X019621Y035584D01*
X019606Y035593D01*
X019593Y035606D01*
X019584Y035621D01*
X019578Y035637D01*
X019576Y035655D01*
X019576Y035280D02*
X019578Y035298D01*
X019584Y035314D01*
X019593Y035329D01*
X019606Y035342D01*
X019621Y035351D01*
X019637Y035357D01*
X019655Y035359D01*
X019673Y035357D01*
X019689Y035351D01*
X019704Y035342D01*
X019717Y035329D01*
X019726Y035314D01*
X019732Y035298D01*
X019734Y035280D01*
X019732Y035262D01*
X019726Y035246D01*
X019717Y035231D01*
X019704Y035218D01*
X019689Y035209D01*
X019673Y035203D01*
X019655Y035201D01*
X019637Y035203D01*
X019621Y035209D01*
X019606Y035218D01*
X019593Y035231D01*
X019584Y035246D01*
X019578Y035262D01*
X019576Y035280D01*
X019655Y034655D02*
X019655Y026530D01*
X020155Y026030D02*
X020199Y026032D01*
X020242Y026038D01*
X020284Y026047D01*
X020326Y026060D01*
X020366Y026077D01*
X020405Y026097D01*
X020442Y026120D01*
X020476Y026147D01*
X020509Y026176D01*
X020538Y026209D01*
X020565Y026243D01*
X020588Y026280D01*
X020608Y026319D01*
X020625Y026359D01*
X020638Y026401D01*
X020647Y026443D01*
X020653Y026486D01*
X020655Y026530D01*
X020655Y034655D01*
X020155Y035155D02*
X020111Y035153D01*
X020068Y035147D01*
X020026Y035138D01*
X019984Y035125D01*
X019944Y035108D01*
X019905Y035088D01*
X019868Y035065D01*
X019834Y035038D01*
X019801Y035009D01*
X019772Y034976D01*
X019745Y034942D01*
X019722Y034905D01*
X019702Y034866D01*
X019685Y034826D01*
X019672Y034784D01*
X019663Y034742D01*
X019657Y034699D01*
X019655Y034655D01*
X020155Y035155D02*
X020199Y035153D01*
X020242Y035147D01*
X020284Y035138D01*
X020326Y035125D01*
X020366Y035108D01*
X020405Y035088D01*
X020442Y035065D01*
X020476Y035038D01*
X020509Y035009D01*
X020538Y034976D01*
X020565Y034942D01*
X020588Y034905D01*
X020608Y034866D01*
X020625Y034826D01*
X020638Y034784D01*
X020647Y034742D01*
X020653Y034699D01*
X020655Y034655D01*
X020576Y035280D02*
X020578Y035298D01*
X020584Y035314D01*
X020593Y035329D01*
X020606Y035342D01*
X020621Y035351D01*
X020637Y035357D01*
X020655Y035359D01*
X020673Y035357D01*
X020689Y035351D01*
X020704Y035342D01*
X020717Y035329D01*
X020726Y035314D01*
X020732Y035298D01*
X020734Y035280D01*
X020732Y035262D01*
X020726Y035246D01*
X020717Y035231D01*
X020704Y035218D01*
X020689Y035209D01*
X020673Y035203D01*
X020655Y035201D01*
X020637Y035203D01*
X020621Y035209D01*
X020606Y035218D01*
X020593Y035231D01*
X020584Y035246D01*
X020578Y035262D01*
X020576Y035280D01*
X020576Y035655D02*
X020578Y035673D01*
X020584Y035689D01*
X020593Y035704D01*
X020606Y035717D01*
X020621Y035726D01*
X020637Y035732D01*
X020655Y035734D01*
X020673Y035732D01*
X020689Y035726D01*
X020704Y035717D01*
X020717Y035704D01*
X020726Y035689D01*
X020732Y035673D01*
X020734Y035655D01*
X020732Y035637D01*
X020726Y035621D01*
X020717Y035606D01*
X020704Y035593D01*
X020689Y035584D01*
X020673Y035578D01*
X020655Y035576D01*
X020637Y035578D01*
X020621Y035584D01*
X020606Y035593D01*
X020593Y035606D01*
X020584Y035621D01*
X020578Y035637D01*
X020576Y035655D01*
X020576Y036030D02*
X020578Y036048D01*
X020584Y036064D01*
X020593Y036079D01*
X020606Y036092D01*
X020621Y036101D01*
X020637Y036107D01*
X020655Y036109D01*
X020673Y036107D01*
X020689Y036101D01*
X020704Y036092D01*
X020717Y036079D01*
X020726Y036064D01*
X020732Y036048D01*
X020734Y036030D01*
X020732Y036012D01*
X020726Y035996D01*
X020717Y035981D01*
X020704Y035968D01*
X020689Y035959D01*
X020673Y035953D01*
X020655Y035951D01*
X020637Y035953D01*
X020621Y035959D01*
X020606Y035968D01*
X020593Y035981D01*
X020584Y035996D01*
X020578Y036012D01*
X020576Y036030D01*
X020576Y036405D02*
X020578Y036423D01*
X020584Y036439D01*
X020593Y036454D01*
X020606Y036467D01*
X020621Y036476D01*
X020637Y036482D01*
X020655Y036484D01*
X020673Y036482D01*
X020689Y036476D01*
X020704Y036467D01*
X020717Y036454D01*
X020726Y036439D01*
X020732Y036423D01*
X020734Y036405D01*
X020732Y036387D01*
X020726Y036371D01*
X020717Y036356D01*
X020704Y036343D01*
X020689Y036334D01*
X020673Y036328D01*
X020655Y036326D01*
X020637Y036328D01*
X020621Y036334D01*
X020606Y036343D01*
X020593Y036356D01*
X020584Y036371D01*
X020578Y036387D01*
X020576Y036405D01*
X020655Y037655D02*
X020657Y037750D01*
X020664Y037845D01*
X020675Y037940D01*
X020691Y038034D01*
X020711Y038127D01*
X020736Y038218D01*
X020765Y038309D01*
X020798Y038398D01*
X020836Y038486D01*
X020877Y038571D01*
X020923Y038655D01*
X020972Y038736D01*
X021026Y038815D01*
X021083Y038891D01*
X021144Y038965D01*
X021208Y039035D01*
X021275Y039102D01*
X021345Y039166D01*
X021419Y039227D01*
X021495Y039284D01*
X021574Y039338D01*
X021655Y039387D01*
X021739Y039433D01*
X021824Y039474D01*
X021912Y039512D01*
X022001Y039545D01*
X022092Y039574D01*
X022183Y039599D01*
X022276Y039619D01*
X022370Y039635D01*
X022465Y039646D01*
X022560Y039653D01*
X022655Y039655D01*
X037655Y039655D01*
X037750Y039653D01*
X037845Y039646D01*
X037940Y039635D01*
X038034Y039619D01*
X038127Y039599D01*
X038218Y039574D01*
X038309Y039545D01*
X038398Y039512D01*
X038486Y039474D01*
X038571Y039433D01*
X038655Y039387D01*
X038736Y039338D01*
X038815Y039284D01*
X038891Y039227D01*
X038965Y039166D01*
X039035Y039102D01*
X039102Y039035D01*
X039166Y038965D01*
X039227Y038891D01*
X039284Y038815D01*
X039338Y038736D01*
X039387Y038655D01*
X039433Y038571D01*
X039474Y038486D01*
X039512Y038398D01*
X039545Y038309D01*
X039574Y038218D01*
X039599Y038127D01*
X039619Y038034D01*
X039635Y037940D01*
X039646Y037845D01*
X039653Y037750D01*
X039655Y037655D01*
X039655Y002655D01*
X039653Y002560D01*
X039646Y002465D01*
X039635Y002370D01*
X039619Y002276D01*
X039599Y002183D01*
X039574Y002092D01*
X039545Y002001D01*
X039512Y001912D01*
X039474Y001824D01*
X039433Y001739D01*
X039387Y001655D01*
X039338Y001574D01*
X039284Y001495D01*
X039227Y001419D01*
X039166Y001345D01*
X039102Y001275D01*
X039035Y001208D01*
X038965Y001144D01*
X038891Y001083D01*
X038815Y001026D01*
X038736Y000972D01*
X038655Y000923D01*
X038571Y000877D01*
X038486Y000836D01*
X038398Y000798D01*
X038309Y000765D01*
X038218Y000736D01*
X038127Y000711D01*
X038034Y000691D01*
X037940Y000675D01*
X037845Y000664D01*
X037750Y000657D01*
X037655Y000655D01*
X022655Y000655D01*
X022560Y000657D01*
X022465Y000664D01*
X022370Y000675D01*
X022276Y000691D01*
X022183Y000711D01*
X022092Y000736D01*
X022001Y000765D01*
X021912Y000798D01*
X021824Y000836D01*
X021739Y000877D01*
X021655Y000923D01*
X021574Y000972D01*
X021495Y001026D01*
X021419Y001083D01*
X021345Y001144D01*
X021275Y001208D01*
X021208Y001275D01*
X021144Y001345D01*
X021083Y001419D01*
X021026Y001495D01*
X020972Y001574D01*
X020923Y001655D01*
X020877Y001739D01*
X020836Y001824D01*
X020798Y001912D01*
X020765Y002001D01*
X020736Y002092D01*
X020711Y002183D01*
X020691Y002276D01*
X020675Y002370D01*
X020664Y002465D01*
X020657Y002560D01*
X020655Y002655D01*
X020655Y003155D01*
X020155Y003655D02*
X020111Y003653D01*
X020068Y003647D01*
X020026Y003638D01*
X019984Y003625D01*
X019944Y003608D01*
X019905Y003588D01*
X019868Y003565D01*
X019834Y003538D01*
X019801Y003509D01*
X019772Y003476D01*
X019745Y003442D01*
X019722Y003405D01*
X019702Y003366D01*
X019685Y003326D01*
X019672Y003284D01*
X019663Y003242D01*
X019657Y003199D01*
X019655Y003155D01*
X019655Y002655D01*
X020655Y003155D02*
X020653Y003199D01*
X020647Y003242D01*
X020638Y003284D01*
X020625Y003326D01*
X020608Y003366D01*
X020588Y003405D01*
X020565Y003442D01*
X020538Y003476D01*
X020509Y003509D01*
X020476Y003538D01*
X020442Y003565D01*
X020405Y003588D01*
X020366Y003608D01*
X020326Y003625D01*
X020284Y003638D01*
X020242Y003647D01*
X020199Y003653D01*
X020155Y003655D01*
X019576Y003780D02*
X019578Y003798D01*
X019584Y003814D01*
X019593Y003829D01*
X019606Y003842D01*
X019621Y003851D01*
X019637Y003857D01*
X019655Y003859D01*
X019673Y003857D01*
X019689Y003851D01*
X019704Y003842D01*
X019717Y003829D01*
X019726Y003814D01*
X019732Y003798D01*
X019734Y003780D01*
X019732Y003762D01*
X019726Y003746D01*
X019717Y003731D01*
X019704Y003718D01*
X019689Y003709D01*
X019673Y003703D01*
X019655Y003701D01*
X019637Y003703D01*
X019621Y003709D01*
X019606Y003718D01*
X019593Y003731D01*
X019584Y003746D01*
X019578Y003762D01*
X019576Y003780D01*
X019576Y004155D02*
X019578Y004173D01*
X019584Y004189D01*
X019593Y004204D01*
X019606Y004217D01*
X019621Y004226D01*
X019637Y004232D01*
X019655Y004234D01*
X019673Y004232D01*
X019689Y004226D01*
X019704Y004217D01*
X019717Y004204D01*
X019726Y004189D01*
X019732Y004173D01*
X019734Y004155D01*
X019732Y004137D01*
X019726Y004121D01*
X019717Y004106D01*
X019704Y004093D01*
X019689Y004084D01*
X019673Y004078D01*
X019655Y004076D01*
X019637Y004078D01*
X019621Y004084D01*
X019606Y004093D01*
X019593Y004106D01*
X019584Y004121D01*
X019578Y004137D01*
X019576Y004155D01*
X019576Y004530D02*
X019578Y004548D01*
X019584Y004564D01*
X019593Y004579D01*
X019606Y004592D01*
X019621Y004601D01*
X019637Y004607D01*
X019655Y004609D01*
X019673Y004607D01*
X019689Y004601D01*
X019704Y004592D01*
X019717Y004579D01*
X019726Y004564D01*
X019732Y004548D01*
X019734Y004530D01*
X019732Y004512D01*
X019726Y004496D01*
X019717Y004481D01*
X019704Y004468D01*
X019689Y004459D01*
X019673Y004453D01*
X019655Y004451D01*
X019637Y004453D01*
X019621Y004459D01*
X019606Y004468D01*
X019593Y004481D01*
X019584Y004496D01*
X019578Y004512D01*
X019576Y004530D01*
X019576Y004905D02*
X019578Y004923D01*
X019584Y004939D01*
X019593Y004954D01*
X019606Y004967D01*
X019621Y004976D01*
X019637Y004982D01*
X019655Y004984D01*
X019673Y004982D01*
X019689Y004976D01*
X019704Y004967D01*
X019717Y004954D01*
X019726Y004939D01*
X019732Y004923D01*
X019734Y004905D01*
X019732Y004887D01*
X019726Y004871D01*
X019717Y004856D01*
X019704Y004843D01*
X019689Y004834D01*
X019673Y004828D01*
X019655Y004826D01*
X019637Y004828D01*
X019621Y004834D01*
X019606Y004843D01*
X019593Y004856D01*
X019584Y004871D01*
X019578Y004887D01*
X019576Y004905D01*
X019655Y005530D02*
X019655Y010655D01*
X019657Y010699D01*
X019663Y010742D01*
X019672Y010784D01*
X019685Y010826D01*
X019702Y010866D01*
X019722Y010905D01*
X019745Y010942D01*
X019772Y010976D01*
X019801Y011009D01*
X019834Y011038D01*
X019868Y011065D01*
X019905Y011088D01*
X019944Y011108D01*
X019984Y011125D01*
X020026Y011138D01*
X020068Y011147D01*
X020111Y011153D01*
X020155Y011155D01*
X020199Y011153D01*
X020242Y011147D01*
X020284Y011138D01*
X020326Y011125D01*
X020366Y011108D01*
X020405Y011088D01*
X020442Y011065D01*
X020476Y011038D01*
X020509Y011009D01*
X020538Y010976D01*
X020565Y010942D01*
X020588Y010905D01*
X020608Y010866D01*
X020625Y010826D01*
X020638Y010784D01*
X020647Y010742D01*
X020653Y010699D01*
X020655Y010655D01*
X020655Y005530D01*
X020653Y005486D01*
X020647Y005443D01*
X020638Y005401D01*
X020625Y005359D01*
X020608Y005319D01*
X020588Y005280D01*
X020565Y005243D01*
X020538Y005209D01*
X020509Y005176D01*
X020476Y005147D01*
X020442Y005120D01*
X020405Y005097D01*
X020366Y005077D01*
X020326Y005060D01*
X020284Y005047D01*
X020242Y005038D01*
X020199Y005032D01*
X020155Y005030D01*
X020111Y005032D01*
X020068Y005038D01*
X020026Y005047D01*
X019984Y005060D01*
X019944Y005077D01*
X019905Y005097D01*
X019868Y005120D01*
X019834Y005147D01*
X019801Y005176D01*
X019772Y005209D01*
X019745Y005243D01*
X019722Y005280D01*
X019702Y005319D01*
X019685Y005359D01*
X019672Y005401D01*
X019663Y005443D01*
X019657Y005486D01*
X019655Y005530D01*
X020576Y004905D02*
X020578Y004923D01*
X020584Y004939D01*
X020593Y004954D01*
X020606Y004967D01*
X020621Y004976D01*
X020637Y004982D01*
X020655Y004984D01*
X020673Y004982D01*
X020689Y004976D01*
X020704Y004967D01*
X020717Y004954D01*
X020726Y004939D01*
X020732Y004923D01*
X020734Y004905D01*
X020732Y004887D01*
X020726Y004871D01*
X020717Y004856D01*
X020704Y004843D01*
X020689Y004834D01*
X020673Y004828D01*
X020655Y004826D01*
X020637Y004828D01*
X020621Y004834D01*
X020606Y004843D01*
X020593Y004856D01*
X020584Y004871D01*
X020578Y004887D01*
X020576Y004905D01*
X020576Y004530D02*
X020578Y004548D01*
X020584Y004564D01*
X020593Y004579D01*
X020606Y004592D01*
X020621Y004601D01*
X020637Y004607D01*
X020655Y004609D01*
X020673Y004607D01*
X020689Y004601D01*
X020704Y004592D01*
X020717Y004579D01*
X020726Y004564D01*
X020732Y004548D01*
X020734Y004530D01*
X020732Y004512D01*
X020726Y004496D01*
X020717Y004481D01*
X020704Y004468D01*
X020689Y004459D01*
X020673Y004453D01*
X020655Y004451D01*
X020637Y004453D01*
X020621Y004459D01*
X020606Y004468D01*
X020593Y004481D01*
X020584Y004496D01*
X020578Y004512D01*
X020576Y004530D01*
X020576Y004155D02*
X020578Y004173D01*
X020584Y004189D01*
X020593Y004204D01*
X020606Y004217D01*
X020621Y004226D01*
X020637Y004232D01*
X020655Y004234D01*
X020673Y004232D01*
X020689Y004226D01*
X020704Y004217D01*
X020717Y004204D01*
X020726Y004189D01*
X020732Y004173D01*
X020734Y004155D01*
X020732Y004137D01*
X020726Y004121D01*
X020717Y004106D01*
X020704Y004093D01*
X020689Y004084D01*
X020673Y004078D01*
X020655Y004076D01*
X020637Y004078D01*
X020621Y004084D01*
X020606Y004093D01*
X020593Y004106D01*
X020584Y004121D01*
X020578Y004137D01*
X020576Y004155D01*
X020576Y003780D02*
X020578Y003798D01*
X020584Y003814D01*
X020593Y003829D01*
X020606Y003842D01*
X020621Y003851D01*
X020637Y003857D01*
X020655Y003859D01*
X020673Y003857D01*
X020689Y003851D01*
X020704Y003842D01*
X020717Y003829D01*
X020726Y003814D01*
X020732Y003798D01*
X020734Y003780D01*
X020732Y003762D01*
X020726Y003746D01*
X020717Y003731D01*
X020704Y003718D01*
X020689Y003709D01*
X020673Y003703D01*
X020655Y003701D01*
X020637Y003703D01*
X020621Y003709D01*
X020606Y003718D01*
X020593Y003731D01*
X020584Y003746D01*
X020578Y003762D01*
X020576Y003780D01*
X019655Y002655D02*
X019653Y002560D01*
X019646Y002465D01*
X019635Y002370D01*
X019619Y002276D01*
X019599Y002183D01*
X019574Y002092D01*
X019545Y002001D01*
X019512Y001912D01*
X019474Y001824D01*
X019433Y001739D01*
X019387Y001655D01*
X019338Y001574D01*
X019284Y001495D01*
X019227Y001419D01*
X019166Y001345D01*
X019102Y001275D01*
X019035Y001208D01*
X018965Y001144D01*
X018891Y001083D01*
X018815Y001026D01*
X018736Y000972D01*
X018655Y000923D01*
X018571Y000877D01*
X018486Y000836D01*
X018398Y000798D01*
X018309Y000765D01*
X018218Y000736D01*
X018127Y000711D01*
X018034Y000691D01*
X017940Y000675D01*
X017845Y000664D01*
X017750Y000657D01*
X017655Y000655D01*
X002655Y000655D01*
X002560Y000657D01*
X002465Y000664D01*
X002370Y000675D01*
X002276Y000691D01*
X002183Y000711D01*
X002092Y000736D01*
X002001Y000765D01*
X001912Y000798D01*
X001824Y000836D01*
X001739Y000877D01*
X001655Y000923D01*
X001574Y000972D01*
X001495Y001026D01*
X001419Y001083D01*
X001345Y001144D01*
X001275Y001208D01*
X001208Y001275D01*
X001144Y001345D01*
X001083Y001419D01*
X001026Y001495D01*
X000972Y001574D01*
X000923Y001655D01*
X000877Y001739D01*
X000836Y001824D01*
X000798Y001912D01*
X000765Y002001D01*
X000736Y002092D01*
X000711Y002183D01*
X000691Y002276D01*
X000675Y002370D01*
X000664Y002465D01*
X000657Y002560D01*
X000655Y002655D01*
X019576Y011280D02*
X019578Y011298D01*
X019584Y011314D01*
X019593Y011329D01*
X019606Y011342D01*
X019621Y011351D01*
X019637Y011357D01*
X019655Y011359D01*
X019673Y011357D01*
X019689Y011351D01*
X019704Y011342D01*
X019717Y011329D01*
X019726Y011314D01*
X019732Y011298D01*
X019734Y011280D01*
X019732Y011262D01*
X019726Y011246D01*
X019717Y011231D01*
X019704Y011218D01*
X019689Y011209D01*
X019673Y011203D01*
X019655Y011201D01*
X019637Y011203D01*
X019621Y011209D01*
X019606Y011218D01*
X019593Y011231D01*
X019584Y011246D01*
X019578Y011262D01*
X019576Y011280D01*
X019576Y011655D02*
X019578Y011673D01*
X019584Y011689D01*
X019593Y011704D01*
X019606Y011717D01*
X019621Y011726D01*
X019637Y011732D01*
X019655Y011734D01*
X019673Y011732D01*
X019689Y011726D01*
X019704Y011717D01*
X019717Y011704D01*
X019726Y011689D01*
X019732Y011673D01*
X019734Y011655D01*
X019732Y011637D01*
X019726Y011621D01*
X019717Y011606D01*
X019704Y011593D01*
X019689Y011584D01*
X019673Y011578D01*
X019655Y011576D01*
X019637Y011578D01*
X019621Y011584D01*
X019606Y011593D01*
X019593Y011606D01*
X019584Y011621D01*
X019578Y011637D01*
X019576Y011655D01*
X019576Y012030D02*
X019578Y012048D01*
X019584Y012064D01*
X019593Y012079D01*
X019606Y012092D01*
X019621Y012101D01*
X019637Y012107D01*
X019655Y012109D01*
X019673Y012107D01*
X019689Y012101D01*
X019704Y012092D01*
X019717Y012079D01*
X019726Y012064D01*
X019732Y012048D01*
X019734Y012030D01*
X019732Y012012D01*
X019726Y011996D01*
X019717Y011981D01*
X019704Y011968D01*
X019689Y011959D01*
X019673Y011953D01*
X019655Y011951D01*
X019637Y011953D01*
X019621Y011959D01*
X019606Y011968D01*
X019593Y011981D01*
X019584Y011996D01*
X019578Y012012D01*
X019576Y012030D01*
X019576Y012405D02*
X019578Y012423D01*
X019584Y012439D01*
X019593Y012454D01*
X019606Y012467D01*
X019621Y012476D01*
X019637Y012482D01*
X019655Y012484D01*
X019673Y012482D01*
X019689Y012476D01*
X019704Y012467D01*
X019717Y012454D01*
X019726Y012439D01*
X019732Y012423D01*
X019734Y012405D01*
X019732Y012387D01*
X019726Y012371D01*
X019717Y012356D01*
X019704Y012343D01*
X019689Y012334D01*
X019673Y012328D01*
X019655Y012326D01*
X019637Y012328D01*
X019621Y012334D01*
X019606Y012343D01*
X019593Y012356D01*
X019584Y012371D01*
X019578Y012387D01*
X019576Y012405D01*
X019655Y013030D02*
X019655Y024155D01*
X019657Y024199D01*
X019663Y024242D01*
X019672Y024284D01*
X019685Y024326D01*
X019702Y024366D01*
X019722Y024405D01*
X019745Y024442D01*
X019772Y024476D01*
X019801Y024509D01*
X019834Y024538D01*
X019868Y024565D01*
X019905Y024588D01*
X019944Y024608D01*
X019984Y024625D01*
X020026Y024638D01*
X020068Y024647D01*
X020111Y024653D01*
X020155Y024655D01*
X019576Y024780D02*
X019578Y024798D01*
X019584Y024814D01*
X019593Y024829D01*
X019606Y024842D01*
X019621Y024851D01*
X019637Y024857D01*
X019655Y024859D01*
X019673Y024857D01*
X019689Y024851D01*
X019704Y024842D01*
X019717Y024829D01*
X019726Y024814D01*
X019732Y024798D01*
X019734Y024780D01*
X019732Y024762D01*
X019726Y024746D01*
X019717Y024731D01*
X019704Y024718D01*
X019689Y024709D01*
X019673Y024703D01*
X019655Y024701D01*
X019637Y024703D01*
X019621Y024709D01*
X019606Y024718D01*
X019593Y024731D01*
X019584Y024746D01*
X019578Y024762D01*
X019576Y024780D01*
X019576Y025155D02*
X019578Y025173D01*
X019584Y025189D01*
X019593Y025204D01*
X019606Y025217D01*
X019621Y025226D01*
X019637Y025232D01*
X019655Y025234D01*
X019673Y025232D01*
X019689Y025226D01*
X019704Y025217D01*
X019717Y025204D01*
X019726Y025189D01*
X019732Y025173D01*
X019734Y025155D01*
X019732Y025137D01*
X019726Y025121D01*
X019717Y025106D01*
X019704Y025093D01*
X019689Y025084D01*
X019673Y025078D01*
X019655Y025076D01*
X019637Y025078D01*
X019621Y025084D01*
X019606Y025093D01*
X019593Y025106D01*
X019584Y025121D01*
X019578Y025137D01*
X019576Y025155D01*
X019576Y025530D02*
X019578Y025548D01*
X019584Y025564D01*
X019593Y025579D01*
X019606Y025592D01*
X019621Y025601D01*
X019637Y025607D01*
X019655Y025609D01*
X019673Y025607D01*
X019689Y025601D01*
X019704Y025592D01*
X019717Y025579D01*
X019726Y025564D01*
X019732Y025548D01*
X019734Y025530D01*
X019732Y025512D01*
X019726Y025496D01*
X019717Y025481D01*
X019704Y025468D01*
X019689Y025459D01*
X019673Y025453D01*
X019655Y025451D01*
X019637Y025453D01*
X019621Y025459D01*
X019606Y025468D01*
X019593Y025481D01*
X019584Y025496D01*
X019578Y025512D01*
X019576Y025530D01*
X019576Y025905D02*
X019578Y025923D01*
X019584Y025939D01*
X019593Y025954D01*
X019606Y025967D01*
X019621Y025976D01*
X019637Y025982D01*
X019655Y025984D01*
X019673Y025982D01*
X019689Y025976D01*
X019704Y025967D01*
X019717Y025954D01*
X019726Y025939D01*
X019732Y025923D01*
X019734Y025905D01*
X019732Y025887D01*
X019726Y025871D01*
X019717Y025856D01*
X019704Y025843D01*
X019689Y025834D01*
X019673Y025828D01*
X019655Y025826D01*
X019637Y025828D01*
X019621Y025834D01*
X019606Y025843D01*
X019593Y025856D01*
X019584Y025871D01*
X019578Y025887D01*
X019576Y025905D01*
X020155Y026030D02*
X020111Y026032D01*
X020068Y026038D01*
X020026Y026047D01*
X019984Y026060D01*
X019944Y026077D01*
X019905Y026097D01*
X019868Y026120D01*
X019834Y026147D01*
X019801Y026176D01*
X019772Y026209D01*
X019745Y026243D01*
X019722Y026280D01*
X019702Y026319D01*
X019685Y026359D01*
X019672Y026401D01*
X019663Y026443D01*
X019657Y026486D01*
X019655Y026530D01*
X020576Y025905D02*
X020578Y025923D01*
X020584Y025939D01*
X020593Y025954D01*
X020606Y025967D01*
X020621Y025976D01*
X020637Y025982D01*
X020655Y025984D01*
X020673Y025982D01*
X020689Y025976D01*
X020704Y025967D01*
X020717Y025954D01*
X020726Y025939D01*
X020732Y025923D01*
X020734Y025905D01*
X020732Y025887D01*
X020726Y025871D01*
X020717Y025856D01*
X020704Y025843D01*
X020689Y025834D01*
X020673Y025828D01*
X020655Y025826D01*
X020637Y025828D01*
X020621Y025834D01*
X020606Y025843D01*
X020593Y025856D01*
X020584Y025871D01*
X020578Y025887D01*
X020576Y025905D01*
X020576Y025530D02*
X020578Y025548D01*
X020584Y025564D01*
X020593Y025579D01*
X020606Y025592D01*
X020621Y025601D01*
X020637Y025607D01*
X020655Y025609D01*
X020673Y025607D01*
X020689Y025601D01*
X020704Y025592D01*
X020717Y025579D01*
X020726Y025564D01*
X020732Y025548D01*
X020734Y025530D01*
X020732Y025512D01*
X020726Y025496D01*
X020717Y025481D01*
X020704Y025468D01*
X020689Y025459D01*
X020673Y025453D01*
X020655Y025451D01*
X020637Y025453D01*
X020621Y025459D01*
X020606Y025468D01*
X020593Y025481D01*
X020584Y025496D01*
X020578Y025512D01*
X020576Y025530D01*
X020576Y025155D02*
X020578Y025173D01*
X020584Y025189D01*
X020593Y025204D01*
X020606Y025217D01*
X020621Y025226D01*
X020637Y025232D01*
X020655Y025234D01*
X020673Y025232D01*
X020689Y025226D01*
X020704Y025217D01*
X020717Y025204D01*
X020726Y025189D01*
X020732Y025173D01*
X020734Y025155D01*
X020732Y025137D01*
X020726Y025121D01*
X020717Y025106D01*
X020704Y025093D01*
X020689Y025084D01*
X020673Y025078D01*
X020655Y025076D01*
X020637Y025078D01*
X020621Y025084D01*
X020606Y025093D01*
X020593Y025106D01*
X020584Y025121D01*
X020578Y025137D01*
X020576Y025155D01*
X020576Y024780D02*
X020578Y024798D01*
X020584Y024814D01*
X020593Y024829D01*
X020606Y024842D01*
X020621Y024851D01*
X020637Y024857D01*
X020655Y024859D01*
X020673Y024857D01*
X020689Y024851D01*
X020704Y024842D01*
X020717Y024829D01*
X020726Y024814D01*
X020732Y024798D01*
X020734Y024780D01*
X020732Y024762D01*
X020726Y024746D01*
X020717Y024731D01*
X020704Y024718D01*
X020689Y024709D01*
X020673Y024703D01*
X020655Y024701D01*
X020637Y024703D01*
X020621Y024709D01*
X020606Y024718D01*
X020593Y024731D01*
X020584Y024746D01*
X020578Y024762D01*
X020576Y024780D01*
X020655Y024155D02*
X020655Y013030D01*
X020653Y012986D01*
X020647Y012943D01*
X020638Y012901D01*
X020625Y012859D01*
X020608Y012819D01*
X020588Y012780D01*
X020565Y012743D01*
X020538Y012709D01*
X020509Y012676D01*
X020476Y012647D01*
X020442Y012620D01*
X020405Y012597D01*
X020366Y012577D01*
X020326Y012560D01*
X020284Y012547D01*
X020242Y012538D01*
X020199Y012532D01*
X020155Y012530D01*
X020111Y012532D01*
X020068Y012538D01*
X020026Y012547D01*
X019984Y012560D01*
X019944Y012577D01*
X019905Y012597D01*
X019868Y012620D01*
X019834Y012647D01*
X019801Y012676D01*
X019772Y012709D01*
X019745Y012743D01*
X019722Y012780D01*
X019702Y012819D01*
X019685Y012859D01*
X019672Y012901D01*
X019663Y012943D01*
X019657Y012986D01*
X019655Y013030D01*
X020576Y012405D02*
X020578Y012423D01*
X020584Y012439D01*
X020593Y012454D01*
X020606Y012467D01*
X020621Y012476D01*
X020637Y012482D01*
X020655Y012484D01*
X020673Y012482D01*
X020689Y012476D01*
X020704Y012467D01*
X020717Y012454D01*
X020726Y012439D01*
X020732Y012423D01*
X020734Y012405D01*
X020732Y012387D01*
X020726Y012371D01*
X020717Y012356D01*
X020704Y012343D01*
X020689Y012334D01*
X020673Y012328D01*
X020655Y012326D01*
X020637Y012328D01*
X020621Y012334D01*
X020606Y012343D01*
X020593Y012356D01*
X020584Y012371D01*
X020578Y012387D01*
X020576Y012405D01*
X020576Y012030D02*
X020578Y012048D01*
X020584Y012064D01*
X020593Y012079D01*
X020606Y012092D01*
X020621Y012101D01*
X020637Y012107D01*
X020655Y012109D01*
X020673Y012107D01*
X020689Y012101D01*
X020704Y012092D01*
X020717Y012079D01*
X020726Y012064D01*
X020732Y012048D01*
X020734Y012030D01*
X020732Y012012D01*
X020726Y011996D01*
X020717Y011981D01*
X020704Y011968D01*
X020689Y011959D01*
X020673Y011953D01*
X020655Y011951D01*
X020637Y011953D01*
X020621Y011959D01*
X020606Y011968D01*
X020593Y011981D01*
X020584Y011996D01*
X020578Y012012D01*
X020576Y012030D01*
X020576Y011655D02*
X020578Y011673D01*
X020584Y011689D01*
X020593Y011704D01*
X020606Y011717D01*
X020621Y011726D01*
X020637Y011732D01*
X020655Y011734D01*
X020673Y011732D01*
X020689Y011726D01*
X020704Y011717D01*
X020717Y011704D01*
X020726Y011689D01*
X020732Y011673D01*
X020734Y011655D01*
X020732Y011637D01*
X020726Y011621D01*
X020717Y011606D01*
X020704Y011593D01*
X020689Y011584D01*
X020673Y011578D01*
X020655Y011576D01*
X020637Y011578D01*
X020621Y011584D01*
X020606Y011593D01*
X020593Y011606D01*
X020584Y011621D01*
X020578Y011637D01*
X020576Y011655D01*
X020576Y011280D02*
X020578Y011298D01*
X020584Y011314D01*
X020593Y011329D01*
X020606Y011342D01*
X020621Y011351D01*
X020637Y011357D01*
X020655Y011359D01*
X020673Y011357D01*
X020689Y011351D01*
X020704Y011342D01*
X020717Y011329D01*
X020726Y011314D01*
X020732Y011298D01*
X020734Y011280D01*
X020732Y011262D01*
X020726Y011246D01*
X020717Y011231D01*
X020704Y011218D01*
X020689Y011209D01*
X020673Y011203D01*
X020655Y011201D01*
X020637Y011203D01*
X020621Y011209D01*
X020606Y011218D01*
X020593Y011231D01*
X020584Y011246D01*
X020578Y011262D01*
X020576Y011280D01*
X020655Y024155D02*
X020653Y024199D01*
X020647Y024242D01*
X020638Y024284D01*
X020625Y024326D01*
X020608Y024366D01*
X020588Y024405D01*
X020565Y024442D01*
X020538Y024476D01*
X020509Y024509D01*
X020476Y024538D01*
X020442Y024565D01*
X020405Y024588D01*
X020366Y024608D01*
X020326Y024625D01*
X020284Y024638D01*
X020242Y024647D01*
X020199Y024653D01*
X020155Y024655D01*
X009155Y037655D02*
X009157Y037725D01*
X009163Y037795D01*
X009173Y037864D01*
X009186Y037933D01*
X009204Y038001D01*
X009225Y038068D01*
X009250Y038133D01*
X009279Y038197D01*
X009311Y038260D01*
X009347Y038320D01*
X009386Y038378D01*
X009428Y038434D01*
X009473Y038488D01*
X009521Y038539D01*
X009572Y038587D01*
X009626Y038632D01*
X009682Y038674D01*
X009740Y038713D01*
X009800Y038749D01*
X009863Y038781D01*
X009927Y038810D01*
X009992Y038835D01*
X010059Y038856D01*
X010127Y038874D01*
X010196Y038887D01*
X010265Y038897D01*
X010335Y038903D01*
X010405Y038905D01*
X010475Y038903D01*
X010545Y038897D01*
X010614Y038887D01*
X010683Y038874D01*
X010751Y038856D01*
X010818Y038835D01*
X010883Y038810D01*
X010947Y038781D01*
X011010Y038749D01*
X011070Y038713D01*
X011128Y038674D01*
X011184Y038632D01*
X011238Y038587D01*
X011289Y038539D01*
X011337Y038488D01*
X011382Y038434D01*
X011424Y038378D01*
X011463Y038320D01*
X011499Y038260D01*
X011531Y038197D01*
X011560Y038133D01*
X011585Y038068D01*
X011606Y038001D01*
X011624Y037933D01*
X011637Y037864D01*
X011647Y037795D01*
X011653Y037725D01*
X011655Y037655D01*
X011653Y037585D01*
X011647Y037515D01*
X011637Y037446D01*
X011624Y037377D01*
X011606Y037309D01*
X011585Y037242D01*
X011560Y037177D01*
X011531Y037113D01*
X011499Y037050D01*
X011463Y036990D01*
X011424Y036932D01*
X011382Y036876D01*
X011337Y036822D01*
X011289Y036771D01*
X011238Y036723D01*
X011184Y036678D01*
X011128Y036636D01*
X011070Y036597D01*
X011010Y036561D01*
X010947Y036529D01*
X010883Y036500D01*
X010818Y036475D01*
X010751Y036454D01*
X010683Y036436D01*
X010614Y036423D01*
X010545Y036413D01*
X010475Y036407D01*
X010405Y036405D01*
X010335Y036407D01*
X010265Y036413D01*
X010196Y036423D01*
X010127Y036436D01*
X010059Y036454D01*
X009992Y036475D01*
X009927Y036500D01*
X009863Y036529D01*
X009800Y036561D01*
X009740Y036597D01*
X009682Y036636D01*
X009626Y036678D01*
X009572Y036723D01*
X009521Y036771D01*
X009473Y036822D01*
X009428Y036876D01*
X009386Y036932D01*
X009347Y036990D01*
X009311Y037050D01*
X009279Y037113D01*
X009250Y037177D01*
X009225Y037242D01*
X009204Y037309D01*
X009186Y037377D01*
X009173Y037446D01*
X009163Y037515D01*
X009157Y037585D01*
X009155Y037655D01*
X029155Y037655D02*
X029157Y037725D01*
X029163Y037795D01*
X029173Y037864D01*
X029186Y037933D01*
X029204Y038001D01*
X029225Y038068D01*
X029250Y038133D01*
X029279Y038197D01*
X029311Y038260D01*
X029347Y038320D01*
X029386Y038378D01*
X029428Y038434D01*
X029473Y038488D01*
X029521Y038539D01*
X029572Y038587D01*
X029626Y038632D01*
X029682Y038674D01*
X029740Y038713D01*
X029800Y038749D01*
X029863Y038781D01*
X029927Y038810D01*
X029992Y038835D01*
X030059Y038856D01*
X030127Y038874D01*
X030196Y038887D01*
X030265Y038897D01*
X030335Y038903D01*
X030405Y038905D01*
X030475Y038903D01*
X030545Y038897D01*
X030614Y038887D01*
X030683Y038874D01*
X030751Y038856D01*
X030818Y038835D01*
X030883Y038810D01*
X030947Y038781D01*
X031010Y038749D01*
X031070Y038713D01*
X031128Y038674D01*
X031184Y038632D01*
X031238Y038587D01*
X031289Y038539D01*
X031337Y038488D01*
X031382Y038434D01*
X031424Y038378D01*
X031463Y038320D01*
X031499Y038260D01*
X031531Y038197D01*
X031560Y038133D01*
X031585Y038068D01*
X031606Y038001D01*
X031624Y037933D01*
X031637Y037864D01*
X031647Y037795D01*
X031653Y037725D01*
X031655Y037655D01*
X031653Y037585D01*
X031647Y037515D01*
X031637Y037446D01*
X031624Y037377D01*
X031606Y037309D01*
X031585Y037242D01*
X031560Y037177D01*
X031531Y037113D01*
X031499Y037050D01*
X031463Y036990D01*
X031424Y036932D01*
X031382Y036876D01*
X031337Y036822D01*
X031289Y036771D01*
X031238Y036723D01*
X031184Y036678D01*
X031128Y036636D01*
X031070Y036597D01*
X031010Y036561D01*
X030947Y036529D01*
X030883Y036500D01*
X030818Y036475D01*
X030751Y036454D01*
X030683Y036436D01*
X030614Y036423D01*
X030545Y036413D01*
X030475Y036407D01*
X030405Y036405D01*
X030335Y036407D01*
X030265Y036413D01*
X030196Y036423D01*
X030127Y036436D01*
X030059Y036454D01*
X029992Y036475D01*
X029927Y036500D01*
X029863Y036529D01*
X029800Y036561D01*
X029740Y036597D01*
X029682Y036636D01*
X029626Y036678D01*
X029572Y036723D01*
X029521Y036771D01*
X029473Y036822D01*
X029428Y036876D01*
X029386Y036932D01*
X029347Y036990D01*
X029311Y037050D01*
X029279Y037113D01*
X029250Y037177D01*
X029225Y037242D01*
X029204Y037309D01*
X029186Y037377D01*
X029173Y037446D01*
X029163Y037515D01*
X029157Y037585D01*
X029155Y037655D01*
M02*
