%
M48
M72
T01C0.0157
T02C0.0197
T03C0.0315
T04C0.0320
T05C0.0394
T06C0.2500
%
T01
X19655Y36405
X19655Y36030
X19655Y35655
X19655Y35280
X20655Y35280
X20655Y35655
X20655Y36030
X20655Y36405
X19655Y3780
X19655Y4155
X19655Y4530
X19655Y4905
X20655Y4905
X20655Y4530
X20655Y4155
X20655Y3780
X19655Y11280
X19655Y11655
X19655Y12030
X19655Y12405
X19655Y24780
X19655Y25155
X19655Y25530
X19655Y25905
X20655Y25905
X20655Y25530
X20655Y25155
X20655Y24780
X20655Y12405
X20655Y12030
X20655Y11655
X20655Y11280
T02
X21105Y34155
X21605Y33655
X21605Y33155
X22155Y32155
X23555Y32155
X23555Y32655
X23055Y34155
X25005Y33655
X25505Y33155
X25505Y34155
X26955Y33655
X27455Y32655
X27455Y32155
X28405Y31655
X28905Y33155
X29405Y34155
X30030Y33655
X30855Y33155
X31330Y32655
X31330Y32155
X32155Y31655
X32805Y32655
X33305Y33655
X33305Y34155
X34755Y32655
X35255Y32155
X35780Y31655
X36705Y32155
X35255Y33155
X36155Y34155
X37205Y34155
X37205Y33655
X39155Y33155
X39155Y32655
X38655Y32155
X19155Y33155
X19155Y32655
X18655Y32155
X17205Y33655
X17205Y34155
X16155Y34155
X15255Y33155
X14755Y32655
X15255Y32155
X15780Y31655
X16705Y32155
X13305Y33655
X13305Y34155
X12805Y32655
X12155Y31655
X11330Y32155
X11330Y32655
X10855Y33155
X10030Y33655
X9405Y34155
X8905Y33155
X7455Y32655
X7455Y32155
X8405Y31655
X6955Y33655
X5505Y33155
X5005Y33655
X5505Y34155
X3555Y32655
X3555Y32155
X2155Y32155
X1605Y33155
X1605Y33655
X1105Y34155
X3055Y34155
X21905Y25280
X16030Y20780
X15655Y19655
X15905Y18905
X15905Y18405
X16655Y19155
X16655Y19655
X17905Y17655
X19155Y17155
X18780Y16307
X17905Y16292
X16905Y16292
X15905Y16292
X14905Y16292
X13905Y16292
X13155Y17155
X13155Y18155
X13155Y19155
X11780Y20030
X10155Y21155
X11155Y17155
X14530Y22464
X19155Y11155
X18405Y11655
X30155Y21155
X31780Y20030
X33155Y19155
X33155Y18155
X33155Y17155
X33905Y16292
X34905Y16292
X35905Y16292
X36905Y16292
X37905Y16292
X38780Y16307
X39155Y17155
X37905Y17655
X36655Y19155
X36655Y19655
X35655Y19655
X35905Y18905
X35905Y18405
X36030Y20780
X34530Y22464
X31155Y17155
X38405Y11655
X39155Y11155
X1905Y25280
T03
X6155Y37655
X6155Y38655
X6155Y36655
X26155Y36655
X26155Y37655
X26155Y38655
T04
X18155Y37655
X17155Y37655
X37155Y37655
X38155Y37655
T05
X1305Y29155
X2305Y29155
X3305Y29155
X4305Y29155
X5305Y29155
X6305Y29155
X7305Y29155
X8305Y29155
X9305Y29155
X10305Y29155
X11905Y29155
X12905Y29155
X13905Y29155
X14905Y29155
X15905Y29155
X16905Y29155
X17905Y29155
X18905Y29155
X21305Y29155
X22305Y29155
X23305Y29155
X24305Y29155
X25305Y29155
X26305Y29155
X27305Y29155
X28305Y29155
X29305Y29155
X30305Y29155
X31905Y29155
X32905Y29155
X33905Y29155
X34905Y29155
X35905Y29155
X36905Y29155
X37905Y29155
X38905Y29155
X23780Y27155
X23780Y26155
X23780Y25155
X23780Y24155
X23780Y23155
X23780Y22155
X18905Y10155
X17905Y10155
X16905Y10155
X15905Y10155
X14905Y10155
X13905Y10155
X11905Y10155
X10905Y10155
X9905Y10155
X8905Y10155
X7905Y10155
X6905Y10155
X5905Y10155
X4905Y10155
X3780Y22155
X3780Y23155
X3780Y24155
X3780Y25155
X3780Y26155
X3780Y27155
X24905Y10155
X25905Y10155
X26905Y10155
X27905Y10155
X28905Y10155
X29905Y10155
X30905Y10155
X31905Y10155
X33905Y10155
X34905Y10155
X35905Y10155
X36905Y10155
X37905Y10155
X38905Y10155
T06
X10405Y37655
X30405Y37655
M30
