G75*
G70*
%OFA0B0*%
%FSLAX24Y24*%
%IPPOS*%
%LPD*%
%AMOC8*
5,1,8,0,0,1.08239X$1,22.5*
%
%ADD10C,0.0000*%
%ADD11C,0.2580*%
%ADD12C,0.0237*%
%ADD13R,0.0580X0.0300*%
%ADD14R,0.0300X0.0580*%
%ADD15R,0.0474X0.0513*%
%ADD16C,0.0740*%
%ADD17R,0.0513X0.0474*%
%ADD18R,0.0395X0.0395*%
%ADD19R,0.0540X0.0710*%
%ADD20R,0.0060X0.0720*%
%ADD21OC8,0.0600*%
%ADD22R,0.0710X0.0540*%
%ADD23R,0.0720X0.0060*%
%ADD24R,0.0595X0.0595*%
%ADD25C,0.0595*%
%ADD26R,0.1080X0.2080*%
%ADD27R,0.0780X0.0780*%
%ADD28C,0.0780*%
%ADD29R,0.0867X0.0395*%
%ADD30R,0.0395X0.0552*%
%ADD31R,0.0395X0.0631*%
%ADD32R,0.0671X0.0592*%
%ADD33R,0.0867X0.1025*%
%ADD34R,1.8745X0.0011*%
%ADD35R,1.8745X0.0011*%
%ADD36R,0.0145X0.0011*%
%ADD37R,0.0145X0.0011*%
%ADD38R,0.0222X0.0011*%
%ADD39R,0.0333X0.0011*%
%ADD40R,0.0233X0.0011*%
%ADD41R,0.0167X0.0011*%
%ADD42R,0.0411X0.0011*%
%ADD43R,0.0378X0.0011*%
%ADD44R,0.0367X0.0011*%
%ADD45R,0.0244X0.0011*%
%ADD46R,0.0300X0.0011*%
%ADD47R,0.0289X0.0011*%
%ADD48R,0.0255X0.0011*%
%ADD49R,0.0478X0.0011*%
%ADD50R,0.0411X0.0011*%
%ADD51R,0.0311X0.0011*%
%ADD52R,0.0311X0.0011*%
%ADD53R,0.0533X0.0011*%
%ADD54R,0.0433X0.0011*%
%ADD55R,0.0433X0.0011*%
%ADD56R,0.0356X0.0011*%
%ADD57R,0.0578X0.0011*%
%ADD58R,0.0456X0.0011*%
%ADD59R,0.0456X0.0011*%
%ADD60R,0.0389X0.0011*%
%ADD61R,0.0400X0.0011*%
%ADD62R,0.0622X0.0011*%
%ADD63R,0.0467X0.0011*%
%ADD64R,0.0422X0.0011*%
%ADD65R,0.0667X0.0011*%
%ADD66R,0.0478X0.0011*%
%ADD67R,0.0466X0.0011*%
%ADD68R,0.0711X0.0011*%
%ADD69R,0.0489X0.0011*%
%ADD70R,0.0488X0.0011*%
%ADD71R,0.0322X0.0011*%
%ADD72R,0.0489X0.0011*%
%ADD73R,0.0733X0.0011*%
%ADD74R,0.0500X0.0011*%
%ADD75R,0.0512X0.0011*%
%ADD76R,0.0511X0.0011*%
%ADD77R,0.0778X0.0011*%
%ADD78R,0.0511X0.0011*%
%ADD79R,0.0511X0.0011*%
%ADD80R,0.0534X0.0011*%
%ADD81R,0.0300X0.0011*%
%ADD82R,0.0533X0.0011*%
%ADD83R,0.0800X0.0011*%
%ADD84R,0.0511X0.0011*%
%ADD85R,0.0556X0.0011*%
%ADD86R,0.0333X0.0011*%
%ADD87R,0.0555X0.0011*%
%ADD88R,0.0822X0.0011*%
%ADD89R,0.0522X0.0011*%
%ADD90R,0.0344X0.0011*%
%ADD91R,0.0566X0.0011*%
%ADD92R,0.0867X0.0011*%
%ADD93R,0.0589X0.0011*%
%ADD94R,0.0889X0.0011*%
%ADD95R,0.0611X0.0011*%
%ADD96R,0.0355X0.0011*%
%ADD97R,0.0600X0.0011*%
%ADD98R,0.0911X0.0011*%
%ADD99R,0.0533X0.0011*%
%ADD100R,0.0922X0.0011*%
%ADD101R,0.0366X0.0011*%
%ADD102R,0.0923X0.0011*%
%ADD103R,0.0933X0.0011*%
%ADD104R,0.0955X0.0011*%
%ADD105R,0.0978X0.0011*%
%ADD106R,0.0544X0.0011*%
%ADD107R,0.0377X0.0011*%
%ADD108R,0.0934X0.0011*%
%ADD109R,0.1000X0.0011*%
%ADD110R,0.0544X0.0011*%
%ADD111R,0.0533X0.0011*%
%ADD112R,0.0922X0.0011*%
%ADD113R,0.0388X0.0011*%
%ADD114R,0.0934X0.0011*%
%ADD115R,0.1000X0.0011*%
%ADD116R,0.0545X0.0011*%
%ADD117R,0.0388X0.0011*%
%ADD118R,0.1022X0.0011*%
%ADD119R,0.0366X0.0011*%
%ADD120R,0.0011X0.0011*%
%ADD121R,0.0367X0.0011*%
%ADD122R,0.0011X0.0011*%
%ADD123R,0.0345X0.0011*%
%ADD124R,0.0344X0.0011*%
%ADD125R,0.0422X0.0011*%
%ADD126R,0.0412X0.0011*%
%ADD127R,0.0423X0.0011*%
%ADD128R,0.0333X0.0011*%
%ADD129R,0.0334X0.0011*%
%ADD130R,0.0322X0.0011*%
%ADD131R,0.0389X0.0011*%
%ADD132R,0.0323X0.0011*%
%ADD133R,0.0378X0.0011*%
%ADD134R,0.0312X0.0011*%
%ADD135R,0.0434X0.0011*%
%ADD136R,0.0289X0.0011*%
%ADD137R,0.0366X0.0011*%
%ADD138R,0.0356X0.0011*%
%ADD139R,0.0312X0.0011*%
%ADD140R,0.0434X0.0011*%
%ADD141R,0.0289X0.0011*%
%ADD142R,0.0445X0.0011*%
%ADD143R,0.0267X0.0011*%
%ADD144R,0.0189X0.0011*%
%ADD145R,0.0233X0.0011*%
%ADD146R,0.0334X0.0011*%
%ADD147R,0.0200X0.0011*%
%ADD148R,0.0244X0.0011*%
%ADD149R,0.0322X0.0011*%
%ADD150R,0.0311X0.0011*%
%ADD151R,0.0289X0.0011*%
%ADD152R,0.0267X0.0011*%
%ADD153R,0.0189X0.0011*%
%ADD154R,0.0222X0.0011*%
%ADD155R,0.0244X0.0011*%
%ADD156R,0.0189X0.0011*%
%ADD157R,0.0233X0.0011*%
%ADD158R,0.0278X0.0011*%
%ADD159R,0.0267X0.0011*%
%ADD160R,0.0222X0.0011*%
%ADD161R,0.0311X0.0011*%
%ADD162R,0.0833X0.0011*%
%ADD163R,0.0277X0.0011*%
%ADD164R,0.0200X0.0011*%
%ADD165R,0.0255X0.0011*%
%ADD166R,0.0834X0.0011*%
%ADD167R,0.0811X0.0011*%
%ADD168R,0.0277X0.0011*%
%ADD169R,0.0823X0.0011*%
%ADD170R,0.0812X0.0011*%
%ADD171R,0.0789X0.0011*%
%ADD172R,0.0789X0.0011*%
%ADD173R,0.0766X0.0011*%
%ADD174R,0.0288X0.0011*%
%ADD175R,0.0778X0.0011*%
%ADD176R,0.0744X0.0011*%
%ADD177R,0.0756X0.0011*%
%ADD178R,0.0722X0.0011*%
%ADD179R,0.0734X0.0011*%
%ADD180R,0.0700X0.0011*%
%ADD181R,0.0256X0.0011*%
%ADD182R,0.0666X0.0011*%
%ADD183R,0.0678X0.0011*%
%ADD184R,0.0644X0.0011*%
%ADD185R,0.0278X0.0011*%
%ADD186R,0.0233X0.0011*%
%ADD187R,0.0256X0.0011*%
%ADD188R,0.0645X0.0011*%
%ADD189R,0.0256X0.0011*%
%ADD190R,0.0612X0.0011*%
%ADD191R,0.0434X0.0011*%
%ADD192R,0.0567X0.0011*%
%ADD193R,0.0444X0.0011*%
%ADD194R,0.0034X0.0011*%
%ADD195R,0.0389X0.0011*%
%ADD196R,0.0256X0.0011*%
%ADD197R,0.0033X0.0011*%
%ADD198R,0.0056X0.0011*%
%ADD199R,0.0055X0.0011*%
%ADD200R,0.0078X0.0011*%
%ADD201R,0.0077X0.0011*%
%ADD202R,0.0111X0.0011*%
%ADD203R,0.0100X0.0011*%
%ADD204R,0.0134X0.0011*%
%ADD205R,0.0156X0.0011*%
%ADD206R,0.0167X0.0011*%
%ADD207R,0.0722X0.0011*%
%ADD208R,0.0733X0.0011*%
%ADD209R,0.0355X0.0011*%
%ADD210R,0.0344X0.0011*%
%ADD211R,0.0266X0.0011*%
%ADD212R,0.0722X0.0011*%
%ADD213R,0.0833X0.0011*%
%ADD214R,0.0266X0.0011*%
%ADD215R,0.0844X0.0011*%
%ADD216R,0.0844X0.0011*%
%ADD217R,0.0845X0.0011*%
%ADD218R,0.0266X0.0011*%
%ADD219R,0.0855X0.0011*%
%ADD220R,0.0856X0.0011*%
%ADD221R,0.0789X0.0011*%
%ADD222R,0.0778X0.0011*%
%ADD223R,0.0767X0.0011*%
%ADD224R,0.0733X0.0011*%
%ADD225R,0.0677X0.0011*%
%ADD226R,0.0655X0.0011*%
%ADD227R,0.0644X0.0011*%
%ADD228R,0.0611X0.0011*%
%ADD229R,0.0567X0.0011*%
%ADD230R,0.0523X0.0011*%
%ADD231R,0.0466X0.0011*%
%ADD232R,0.0245X0.0011*%
%ADD233R,0.0478X0.0011*%
%ADD234R,0.0234X0.0011*%
%ADD235R,0.0178X0.0011*%
%ADD236R,0.0177X0.0011*%
%ADD237R,0.0467X0.0011*%
%ADD238R,0.1045X0.0011*%
%ADD239R,0.1022X0.0011*%
%ADD240R,0.0822X0.0011*%
%ADD241R,0.0755X0.0011*%
%ADD242R,0.0689X0.0011*%
%ADD243R,0.0645X0.0011*%
%ADD244R,0.0445X0.0011*%
%ADD245R,0.0133X0.0011*%
%ADD246C,0.0050*%
D10*
X000655Y002655D02*
X000655Y037655D01*
X000657Y037750D01*
X000664Y037845D01*
X000675Y037940D01*
X000691Y038034D01*
X000711Y038127D01*
X000736Y038218D01*
X000765Y038309D01*
X000798Y038398D01*
X000836Y038486D01*
X000877Y038571D01*
X000923Y038655D01*
X000972Y038736D01*
X001026Y038815D01*
X001083Y038891D01*
X001144Y038965D01*
X001208Y039035D01*
X001275Y039102D01*
X001345Y039166D01*
X001419Y039227D01*
X001495Y039284D01*
X001574Y039338D01*
X001655Y039387D01*
X001739Y039433D01*
X001824Y039474D01*
X001912Y039512D01*
X002001Y039545D01*
X002092Y039574D01*
X002183Y039599D01*
X002276Y039619D01*
X002370Y039635D01*
X002465Y039646D01*
X002560Y039653D01*
X002655Y039655D01*
X017655Y039655D01*
X017750Y039653D01*
X017845Y039646D01*
X017940Y039635D01*
X018034Y039619D01*
X018127Y039599D01*
X018218Y039574D01*
X018309Y039545D01*
X018398Y039512D01*
X018486Y039474D01*
X018571Y039433D01*
X018655Y039387D01*
X018736Y039338D01*
X018815Y039284D01*
X018891Y039227D01*
X018965Y039166D01*
X019035Y039102D01*
X019102Y039035D01*
X019166Y038965D01*
X019227Y038891D01*
X019284Y038815D01*
X019338Y038736D01*
X019387Y038655D01*
X019433Y038571D01*
X019474Y038486D01*
X019512Y038398D01*
X019545Y038309D01*
X019574Y038218D01*
X019599Y038127D01*
X019619Y038034D01*
X019635Y037940D01*
X019646Y037845D01*
X019653Y037750D01*
X019655Y037655D01*
X019655Y037030D01*
X020155Y036530D02*
X020199Y036532D01*
X020242Y036538D01*
X020284Y036547D01*
X020326Y036560D01*
X020366Y036577D01*
X020405Y036597D01*
X020442Y036620D01*
X020476Y036647D01*
X020509Y036676D01*
X020538Y036709D01*
X020565Y036743D01*
X020588Y036780D01*
X020608Y036819D01*
X020625Y036859D01*
X020638Y036901D01*
X020647Y036943D01*
X020653Y036986D01*
X020655Y037030D01*
X020655Y037655D01*
X019655Y037030D02*
X019657Y036986D01*
X019663Y036943D01*
X019672Y036901D01*
X019685Y036859D01*
X019702Y036819D01*
X019722Y036780D01*
X019745Y036743D01*
X019772Y036709D01*
X019801Y036676D01*
X019834Y036647D01*
X019868Y036620D01*
X019905Y036597D01*
X019944Y036577D01*
X019984Y036560D01*
X020026Y036547D01*
X020068Y036538D01*
X020111Y036532D01*
X020155Y036530D01*
X019576Y036405D02*
X019578Y036423D01*
X019584Y036439D01*
X019593Y036454D01*
X019606Y036467D01*
X019621Y036476D01*
X019637Y036482D01*
X019655Y036484D01*
X019673Y036482D01*
X019689Y036476D01*
X019704Y036467D01*
X019717Y036454D01*
X019726Y036439D01*
X019732Y036423D01*
X019734Y036405D01*
X019732Y036387D01*
X019726Y036371D01*
X019717Y036356D01*
X019704Y036343D01*
X019689Y036334D01*
X019673Y036328D01*
X019655Y036326D01*
X019637Y036328D01*
X019621Y036334D01*
X019606Y036343D01*
X019593Y036356D01*
X019584Y036371D01*
X019578Y036387D01*
X019576Y036405D01*
X019576Y036030D02*
X019578Y036048D01*
X019584Y036064D01*
X019593Y036079D01*
X019606Y036092D01*
X019621Y036101D01*
X019637Y036107D01*
X019655Y036109D01*
X019673Y036107D01*
X019689Y036101D01*
X019704Y036092D01*
X019717Y036079D01*
X019726Y036064D01*
X019732Y036048D01*
X019734Y036030D01*
X019732Y036012D01*
X019726Y035996D01*
X019717Y035981D01*
X019704Y035968D01*
X019689Y035959D01*
X019673Y035953D01*
X019655Y035951D01*
X019637Y035953D01*
X019621Y035959D01*
X019606Y035968D01*
X019593Y035981D01*
X019584Y035996D01*
X019578Y036012D01*
X019576Y036030D01*
X019576Y035655D02*
X019578Y035673D01*
X019584Y035689D01*
X019593Y035704D01*
X019606Y035717D01*
X019621Y035726D01*
X019637Y035732D01*
X019655Y035734D01*
X019673Y035732D01*
X019689Y035726D01*
X019704Y035717D01*
X019717Y035704D01*
X019726Y035689D01*
X019732Y035673D01*
X019734Y035655D01*
X019732Y035637D01*
X019726Y035621D01*
X019717Y035606D01*
X019704Y035593D01*
X019689Y035584D01*
X019673Y035578D01*
X019655Y035576D01*
X019637Y035578D01*
X019621Y035584D01*
X019606Y035593D01*
X019593Y035606D01*
X019584Y035621D01*
X019578Y035637D01*
X019576Y035655D01*
X019576Y035280D02*
X019578Y035298D01*
X019584Y035314D01*
X019593Y035329D01*
X019606Y035342D01*
X019621Y035351D01*
X019637Y035357D01*
X019655Y035359D01*
X019673Y035357D01*
X019689Y035351D01*
X019704Y035342D01*
X019717Y035329D01*
X019726Y035314D01*
X019732Y035298D01*
X019734Y035280D01*
X019732Y035262D01*
X019726Y035246D01*
X019717Y035231D01*
X019704Y035218D01*
X019689Y035209D01*
X019673Y035203D01*
X019655Y035201D01*
X019637Y035203D01*
X019621Y035209D01*
X019606Y035218D01*
X019593Y035231D01*
X019584Y035246D01*
X019578Y035262D01*
X019576Y035280D01*
X019655Y034655D02*
X019655Y026530D01*
X020155Y026030D02*
X020199Y026032D01*
X020242Y026038D01*
X020284Y026047D01*
X020326Y026060D01*
X020366Y026077D01*
X020405Y026097D01*
X020442Y026120D01*
X020476Y026147D01*
X020509Y026176D01*
X020538Y026209D01*
X020565Y026243D01*
X020588Y026280D01*
X020608Y026319D01*
X020625Y026359D01*
X020638Y026401D01*
X020647Y026443D01*
X020653Y026486D01*
X020655Y026530D01*
X020655Y034655D01*
X020155Y035155D02*
X020111Y035153D01*
X020068Y035147D01*
X020026Y035138D01*
X019984Y035125D01*
X019944Y035108D01*
X019905Y035088D01*
X019868Y035065D01*
X019834Y035038D01*
X019801Y035009D01*
X019772Y034976D01*
X019745Y034942D01*
X019722Y034905D01*
X019702Y034866D01*
X019685Y034826D01*
X019672Y034784D01*
X019663Y034742D01*
X019657Y034699D01*
X019655Y034655D01*
X020155Y035155D02*
X020199Y035153D01*
X020242Y035147D01*
X020284Y035138D01*
X020326Y035125D01*
X020366Y035108D01*
X020405Y035088D01*
X020442Y035065D01*
X020476Y035038D01*
X020509Y035009D01*
X020538Y034976D01*
X020565Y034942D01*
X020588Y034905D01*
X020608Y034866D01*
X020625Y034826D01*
X020638Y034784D01*
X020647Y034742D01*
X020653Y034699D01*
X020655Y034655D01*
X020576Y035280D02*
X020578Y035298D01*
X020584Y035314D01*
X020593Y035329D01*
X020606Y035342D01*
X020621Y035351D01*
X020637Y035357D01*
X020655Y035359D01*
X020673Y035357D01*
X020689Y035351D01*
X020704Y035342D01*
X020717Y035329D01*
X020726Y035314D01*
X020732Y035298D01*
X020734Y035280D01*
X020732Y035262D01*
X020726Y035246D01*
X020717Y035231D01*
X020704Y035218D01*
X020689Y035209D01*
X020673Y035203D01*
X020655Y035201D01*
X020637Y035203D01*
X020621Y035209D01*
X020606Y035218D01*
X020593Y035231D01*
X020584Y035246D01*
X020578Y035262D01*
X020576Y035280D01*
X020576Y035655D02*
X020578Y035673D01*
X020584Y035689D01*
X020593Y035704D01*
X020606Y035717D01*
X020621Y035726D01*
X020637Y035732D01*
X020655Y035734D01*
X020673Y035732D01*
X020689Y035726D01*
X020704Y035717D01*
X020717Y035704D01*
X020726Y035689D01*
X020732Y035673D01*
X020734Y035655D01*
X020732Y035637D01*
X020726Y035621D01*
X020717Y035606D01*
X020704Y035593D01*
X020689Y035584D01*
X020673Y035578D01*
X020655Y035576D01*
X020637Y035578D01*
X020621Y035584D01*
X020606Y035593D01*
X020593Y035606D01*
X020584Y035621D01*
X020578Y035637D01*
X020576Y035655D01*
X020576Y036030D02*
X020578Y036048D01*
X020584Y036064D01*
X020593Y036079D01*
X020606Y036092D01*
X020621Y036101D01*
X020637Y036107D01*
X020655Y036109D01*
X020673Y036107D01*
X020689Y036101D01*
X020704Y036092D01*
X020717Y036079D01*
X020726Y036064D01*
X020732Y036048D01*
X020734Y036030D01*
X020732Y036012D01*
X020726Y035996D01*
X020717Y035981D01*
X020704Y035968D01*
X020689Y035959D01*
X020673Y035953D01*
X020655Y035951D01*
X020637Y035953D01*
X020621Y035959D01*
X020606Y035968D01*
X020593Y035981D01*
X020584Y035996D01*
X020578Y036012D01*
X020576Y036030D01*
X020576Y036405D02*
X020578Y036423D01*
X020584Y036439D01*
X020593Y036454D01*
X020606Y036467D01*
X020621Y036476D01*
X020637Y036482D01*
X020655Y036484D01*
X020673Y036482D01*
X020689Y036476D01*
X020704Y036467D01*
X020717Y036454D01*
X020726Y036439D01*
X020732Y036423D01*
X020734Y036405D01*
X020732Y036387D01*
X020726Y036371D01*
X020717Y036356D01*
X020704Y036343D01*
X020689Y036334D01*
X020673Y036328D01*
X020655Y036326D01*
X020637Y036328D01*
X020621Y036334D01*
X020606Y036343D01*
X020593Y036356D01*
X020584Y036371D01*
X020578Y036387D01*
X020576Y036405D01*
X020655Y037655D02*
X020657Y037750D01*
X020664Y037845D01*
X020675Y037940D01*
X020691Y038034D01*
X020711Y038127D01*
X020736Y038218D01*
X020765Y038309D01*
X020798Y038398D01*
X020836Y038486D01*
X020877Y038571D01*
X020923Y038655D01*
X020972Y038736D01*
X021026Y038815D01*
X021083Y038891D01*
X021144Y038965D01*
X021208Y039035D01*
X021275Y039102D01*
X021345Y039166D01*
X021419Y039227D01*
X021495Y039284D01*
X021574Y039338D01*
X021655Y039387D01*
X021739Y039433D01*
X021824Y039474D01*
X021912Y039512D01*
X022001Y039545D01*
X022092Y039574D01*
X022183Y039599D01*
X022276Y039619D01*
X022370Y039635D01*
X022465Y039646D01*
X022560Y039653D01*
X022655Y039655D01*
X037655Y039655D01*
X037750Y039653D01*
X037845Y039646D01*
X037940Y039635D01*
X038034Y039619D01*
X038127Y039599D01*
X038218Y039574D01*
X038309Y039545D01*
X038398Y039512D01*
X038486Y039474D01*
X038571Y039433D01*
X038655Y039387D01*
X038736Y039338D01*
X038815Y039284D01*
X038891Y039227D01*
X038965Y039166D01*
X039035Y039102D01*
X039102Y039035D01*
X039166Y038965D01*
X039227Y038891D01*
X039284Y038815D01*
X039338Y038736D01*
X039387Y038655D01*
X039433Y038571D01*
X039474Y038486D01*
X039512Y038398D01*
X039545Y038309D01*
X039574Y038218D01*
X039599Y038127D01*
X039619Y038034D01*
X039635Y037940D01*
X039646Y037845D01*
X039653Y037750D01*
X039655Y037655D01*
X039655Y002655D01*
X039653Y002560D01*
X039646Y002465D01*
X039635Y002370D01*
X039619Y002276D01*
X039599Y002183D01*
X039574Y002092D01*
X039545Y002001D01*
X039512Y001912D01*
X039474Y001824D01*
X039433Y001739D01*
X039387Y001655D01*
X039338Y001574D01*
X039284Y001495D01*
X039227Y001419D01*
X039166Y001345D01*
X039102Y001275D01*
X039035Y001208D01*
X038965Y001144D01*
X038891Y001083D01*
X038815Y001026D01*
X038736Y000972D01*
X038655Y000923D01*
X038571Y000877D01*
X038486Y000836D01*
X038398Y000798D01*
X038309Y000765D01*
X038218Y000736D01*
X038127Y000711D01*
X038034Y000691D01*
X037940Y000675D01*
X037845Y000664D01*
X037750Y000657D01*
X037655Y000655D01*
X022655Y000655D01*
X022560Y000657D01*
X022465Y000664D01*
X022370Y000675D01*
X022276Y000691D01*
X022183Y000711D01*
X022092Y000736D01*
X022001Y000765D01*
X021912Y000798D01*
X021824Y000836D01*
X021739Y000877D01*
X021655Y000923D01*
X021574Y000972D01*
X021495Y001026D01*
X021419Y001083D01*
X021345Y001144D01*
X021275Y001208D01*
X021208Y001275D01*
X021144Y001345D01*
X021083Y001419D01*
X021026Y001495D01*
X020972Y001574D01*
X020923Y001655D01*
X020877Y001739D01*
X020836Y001824D01*
X020798Y001912D01*
X020765Y002001D01*
X020736Y002092D01*
X020711Y002183D01*
X020691Y002276D01*
X020675Y002370D01*
X020664Y002465D01*
X020657Y002560D01*
X020655Y002655D01*
X020655Y003155D01*
X020155Y003655D02*
X020111Y003653D01*
X020068Y003647D01*
X020026Y003638D01*
X019984Y003625D01*
X019944Y003608D01*
X019905Y003588D01*
X019868Y003565D01*
X019834Y003538D01*
X019801Y003509D01*
X019772Y003476D01*
X019745Y003442D01*
X019722Y003405D01*
X019702Y003366D01*
X019685Y003326D01*
X019672Y003284D01*
X019663Y003242D01*
X019657Y003199D01*
X019655Y003155D01*
X019655Y002655D01*
X020655Y003155D02*
X020653Y003199D01*
X020647Y003242D01*
X020638Y003284D01*
X020625Y003326D01*
X020608Y003366D01*
X020588Y003405D01*
X020565Y003442D01*
X020538Y003476D01*
X020509Y003509D01*
X020476Y003538D01*
X020442Y003565D01*
X020405Y003588D01*
X020366Y003608D01*
X020326Y003625D01*
X020284Y003638D01*
X020242Y003647D01*
X020199Y003653D01*
X020155Y003655D01*
X019576Y003780D02*
X019578Y003798D01*
X019584Y003814D01*
X019593Y003829D01*
X019606Y003842D01*
X019621Y003851D01*
X019637Y003857D01*
X019655Y003859D01*
X019673Y003857D01*
X019689Y003851D01*
X019704Y003842D01*
X019717Y003829D01*
X019726Y003814D01*
X019732Y003798D01*
X019734Y003780D01*
X019732Y003762D01*
X019726Y003746D01*
X019717Y003731D01*
X019704Y003718D01*
X019689Y003709D01*
X019673Y003703D01*
X019655Y003701D01*
X019637Y003703D01*
X019621Y003709D01*
X019606Y003718D01*
X019593Y003731D01*
X019584Y003746D01*
X019578Y003762D01*
X019576Y003780D01*
X019576Y004155D02*
X019578Y004173D01*
X019584Y004189D01*
X019593Y004204D01*
X019606Y004217D01*
X019621Y004226D01*
X019637Y004232D01*
X019655Y004234D01*
X019673Y004232D01*
X019689Y004226D01*
X019704Y004217D01*
X019717Y004204D01*
X019726Y004189D01*
X019732Y004173D01*
X019734Y004155D01*
X019732Y004137D01*
X019726Y004121D01*
X019717Y004106D01*
X019704Y004093D01*
X019689Y004084D01*
X019673Y004078D01*
X019655Y004076D01*
X019637Y004078D01*
X019621Y004084D01*
X019606Y004093D01*
X019593Y004106D01*
X019584Y004121D01*
X019578Y004137D01*
X019576Y004155D01*
X019576Y004530D02*
X019578Y004548D01*
X019584Y004564D01*
X019593Y004579D01*
X019606Y004592D01*
X019621Y004601D01*
X019637Y004607D01*
X019655Y004609D01*
X019673Y004607D01*
X019689Y004601D01*
X019704Y004592D01*
X019717Y004579D01*
X019726Y004564D01*
X019732Y004548D01*
X019734Y004530D01*
X019732Y004512D01*
X019726Y004496D01*
X019717Y004481D01*
X019704Y004468D01*
X019689Y004459D01*
X019673Y004453D01*
X019655Y004451D01*
X019637Y004453D01*
X019621Y004459D01*
X019606Y004468D01*
X019593Y004481D01*
X019584Y004496D01*
X019578Y004512D01*
X019576Y004530D01*
X019576Y004905D02*
X019578Y004923D01*
X019584Y004939D01*
X019593Y004954D01*
X019606Y004967D01*
X019621Y004976D01*
X019637Y004982D01*
X019655Y004984D01*
X019673Y004982D01*
X019689Y004976D01*
X019704Y004967D01*
X019717Y004954D01*
X019726Y004939D01*
X019732Y004923D01*
X019734Y004905D01*
X019732Y004887D01*
X019726Y004871D01*
X019717Y004856D01*
X019704Y004843D01*
X019689Y004834D01*
X019673Y004828D01*
X019655Y004826D01*
X019637Y004828D01*
X019621Y004834D01*
X019606Y004843D01*
X019593Y004856D01*
X019584Y004871D01*
X019578Y004887D01*
X019576Y004905D01*
X019655Y005530D02*
X019655Y010655D01*
X019657Y010699D01*
X019663Y010742D01*
X019672Y010784D01*
X019685Y010826D01*
X019702Y010866D01*
X019722Y010905D01*
X019745Y010942D01*
X019772Y010976D01*
X019801Y011009D01*
X019834Y011038D01*
X019868Y011065D01*
X019905Y011088D01*
X019944Y011108D01*
X019984Y011125D01*
X020026Y011138D01*
X020068Y011147D01*
X020111Y011153D01*
X020155Y011155D01*
X020199Y011153D01*
X020242Y011147D01*
X020284Y011138D01*
X020326Y011125D01*
X020366Y011108D01*
X020405Y011088D01*
X020442Y011065D01*
X020476Y011038D01*
X020509Y011009D01*
X020538Y010976D01*
X020565Y010942D01*
X020588Y010905D01*
X020608Y010866D01*
X020625Y010826D01*
X020638Y010784D01*
X020647Y010742D01*
X020653Y010699D01*
X020655Y010655D01*
X020655Y005530D01*
X020653Y005486D01*
X020647Y005443D01*
X020638Y005401D01*
X020625Y005359D01*
X020608Y005319D01*
X020588Y005280D01*
X020565Y005243D01*
X020538Y005209D01*
X020509Y005176D01*
X020476Y005147D01*
X020442Y005120D01*
X020405Y005097D01*
X020366Y005077D01*
X020326Y005060D01*
X020284Y005047D01*
X020242Y005038D01*
X020199Y005032D01*
X020155Y005030D01*
X020111Y005032D01*
X020068Y005038D01*
X020026Y005047D01*
X019984Y005060D01*
X019944Y005077D01*
X019905Y005097D01*
X019868Y005120D01*
X019834Y005147D01*
X019801Y005176D01*
X019772Y005209D01*
X019745Y005243D01*
X019722Y005280D01*
X019702Y005319D01*
X019685Y005359D01*
X019672Y005401D01*
X019663Y005443D01*
X019657Y005486D01*
X019655Y005530D01*
X020576Y004905D02*
X020578Y004923D01*
X020584Y004939D01*
X020593Y004954D01*
X020606Y004967D01*
X020621Y004976D01*
X020637Y004982D01*
X020655Y004984D01*
X020673Y004982D01*
X020689Y004976D01*
X020704Y004967D01*
X020717Y004954D01*
X020726Y004939D01*
X020732Y004923D01*
X020734Y004905D01*
X020732Y004887D01*
X020726Y004871D01*
X020717Y004856D01*
X020704Y004843D01*
X020689Y004834D01*
X020673Y004828D01*
X020655Y004826D01*
X020637Y004828D01*
X020621Y004834D01*
X020606Y004843D01*
X020593Y004856D01*
X020584Y004871D01*
X020578Y004887D01*
X020576Y004905D01*
X020576Y004530D02*
X020578Y004548D01*
X020584Y004564D01*
X020593Y004579D01*
X020606Y004592D01*
X020621Y004601D01*
X020637Y004607D01*
X020655Y004609D01*
X020673Y004607D01*
X020689Y004601D01*
X020704Y004592D01*
X020717Y004579D01*
X020726Y004564D01*
X020732Y004548D01*
X020734Y004530D01*
X020732Y004512D01*
X020726Y004496D01*
X020717Y004481D01*
X020704Y004468D01*
X020689Y004459D01*
X020673Y004453D01*
X020655Y004451D01*
X020637Y004453D01*
X020621Y004459D01*
X020606Y004468D01*
X020593Y004481D01*
X020584Y004496D01*
X020578Y004512D01*
X020576Y004530D01*
X020576Y004155D02*
X020578Y004173D01*
X020584Y004189D01*
X020593Y004204D01*
X020606Y004217D01*
X020621Y004226D01*
X020637Y004232D01*
X020655Y004234D01*
X020673Y004232D01*
X020689Y004226D01*
X020704Y004217D01*
X020717Y004204D01*
X020726Y004189D01*
X020732Y004173D01*
X020734Y004155D01*
X020732Y004137D01*
X020726Y004121D01*
X020717Y004106D01*
X020704Y004093D01*
X020689Y004084D01*
X020673Y004078D01*
X020655Y004076D01*
X020637Y004078D01*
X020621Y004084D01*
X020606Y004093D01*
X020593Y004106D01*
X020584Y004121D01*
X020578Y004137D01*
X020576Y004155D01*
X020576Y003780D02*
X020578Y003798D01*
X020584Y003814D01*
X020593Y003829D01*
X020606Y003842D01*
X020621Y003851D01*
X020637Y003857D01*
X020655Y003859D01*
X020673Y003857D01*
X020689Y003851D01*
X020704Y003842D01*
X020717Y003829D01*
X020726Y003814D01*
X020732Y003798D01*
X020734Y003780D01*
X020732Y003762D01*
X020726Y003746D01*
X020717Y003731D01*
X020704Y003718D01*
X020689Y003709D01*
X020673Y003703D01*
X020655Y003701D01*
X020637Y003703D01*
X020621Y003709D01*
X020606Y003718D01*
X020593Y003731D01*
X020584Y003746D01*
X020578Y003762D01*
X020576Y003780D01*
X019655Y002655D02*
X019653Y002560D01*
X019646Y002465D01*
X019635Y002370D01*
X019619Y002276D01*
X019599Y002183D01*
X019574Y002092D01*
X019545Y002001D01*
X019512Y001912D01*
X019474Y001824D01*
X019433Y001739D01*
X019387Y001655D01*
X019338Y001574D01*
X019284Y001495D01*
X019227Y001419D01*
X019166Y001345D01*
X019102Y001275D01*
X019035Y001208D01*
X018965Y001144D01*
X018891Y001083D01*
X018815Y001026D01*
X018736Y000972D01*
X018655Y000923D01*
X018571Y000877D01*
X018486Y000836D01*
X018398Y000798D01*
X018309Y000765D01*
X018218Y000736D01*
X018127Y000711D01*
X018034Y000691D01*
X017940Y000675D01*
X017845Y000664D01*
X017750Y000657D01*
X017655Y000655D01*
X002655Y000655D01*
X002560Y000657D01*
X002465Y000664D01*
X002370Y000675D01*
X002276Y000691D01*
X002183Y000711D01*
X002092Y000736D01*
X002001Y000765D01*
X001912Y000798D01*
X001824Y000836D01*
X001739Y000877D01*
X001655Y000923D01*
X001574Y000972D01*
X001495Y001026D01*
X001419Y001083D01*
X001345Y001144D01*
X001275Y001208D01*
X001208Y001275D01*
X001144Y001345D01*
X001083Y001419D01*
X001026Y001495D01*
X000972Y001574D01*
X000923Y001655D01*
X000877Y001739D01*
X000836Y001824D01*
X000798Y001912D01*
X000765Y002001D01*
X000736Y002092D01*
X000711Y002183D01*
X000691Y002276D01*
X000675Y002370D01*
X000664Y002465D01*
X000657Y002560D01*
X000655Y002655D01*
X019576Y011280D02*
X019578Y011298D01*
X019584Y011314D01*
X019593Y011329D01*
X019606Y011342D01*
X019621Y011351D01*
X019637Y011357D01*
X019655Y011359D01*
X019673Y011357D01*
X019689Y011351D01*
X019704Y011342D01*
X019717Y011329D01*
X019726Y011314D01*
X019732Y011298D01*
X019734Y011280D01*
X019732Y011262D01*
X019726Y011246D01*
X019717Y011231D01*
X019704Y011218D01*
X019689Y011209D01*
X019673Y011203D01*
X019655Y011201D01*
X019637Y011203D01*
X019621Y011209D01*
X019606Y011218D01*
X019593Y011231D01*
X019584Y011246D01*
X019578Y011262D01*
X019576Y011280D01*
X019576Y011655D02*
X019578Y011673D01*
X019584Y011689D01*
X019593Y011704D01*
X019606Y011717D01*
X019621Y011726D01*
X019637Y011732D01*
X019655Y011734D01*
X019673Y011732D01*
X019689Y011726D01*
X019704Y011717D01*
X019717Y011704D01*
X019726Y011689D01*
X019732Y011673D01*
X019734Y011655D01*
X019732Y011637D01*
X019726Y011621D01*
X019717Y011606D01*
X019704Y011593D01*
X019689Y011584D01*
X019673Y011578D01*
X019655Y011576D01*
X019637Y011578D01*
X019621Y011584D01*
X019606Y011593D01*
X019593Y011606D01*
X019584Y011621D01*
X019578Y011637D01*
X019576Y011655D01*
X019576Y012030D02*
X019578Y012048D01*
X019584Y012064D01*
X019593Y012079D01*
X019606Y012092D01*
X019621Y012101D01*
X019637Y012107D01*
X019655Y012109D01*
X019673Y012107D01*
X019689Y012101D01*
X019704Y012092D01*
X019717Y012079D01*
X019726Y012064D01*
X019732Y012048D01*
X019734Y012030D01*
X019732Y012012D01*
X019726Y011996D01*
X019717Y011981D01*
X019704Y011968D01*
X019689Y011959D01*
X019673Y011953D01*
X019655Y011951D01*
X019637Y011953D01*
X019621Y011959D01*
X019606Y011968D01*
X019593Y011981D01*
X019584Y011996D01*
X019578Y012012D01*
X019576Y012030D01*
X019576Y012405D02*
X019578Y012423D01*
X019584Y012439D01*
X019593Y012454D01*
X019606Y012467D01*
X019621Y012476D01*
X019637Y012482D01*
X019655Y012484D01*
X019673Y012482D01*
X019689Y012476D01*
X019704Y012467D01*
X019717Y012454D01*
X019726Y012439D01*
X019732Y012423D01*
X019734Y012405D01*
X019732Y012387D01*
X019726Y012371D01*
X019717Y012356D01*
X019704Y012343D01*
X019689Y012334D01*
X019673Y012328D01*
X019655Y012326D01*
X019637Y012328D01*
X019621Y012334D01*
X019606Y012343D01*
X019593Y012356D01*
X019584Y012371D01*
X019578Y012387D01*
X019576Y012405D01*
X019655Y013030D02*
X019655Y024155D01*
X019657Y024199D01*
X019663Y024242D01*
X019672Y024284D01*
X019685Y024326D01*
X019702Y024366D01*
X019722Y024405D01*
X019745Y024442D01*
X019772Y024476D01*
X019801Y024509D01*
X019834Y024538D01*
X019868Y024565D01*
X019905Y024588D01*
X019944Y024608D01*
X019984Y024625D01*
X020026Y024638D01*
X020068Y024647D01*
X020111Y024653D01*
X020155Y024655D01*
X019576Y024780D02*
X019578Y024798D01*
X019584Y024814D01*
X019593Y024829D01*
X019606Y024842D01*
X019621Y024851D01*
X019637Y024857D01*
X019655Y024859D01*
X019673Y024857D01*
X019689Y024851D01*
X019704Y024842D01*
X019717Y024829D01*
X019726Y024814D01*
X019732Y024798D01*
X019734Y024780D01*
X019732Y024762D01*
X019726Y024746D01*
X019717Y024731D01*
X019704Y024718D01*
X019689Y024709D01*
X019673Y024703D01*
X019655Y024701D01*
X019637Y024703D01*
X019621Y024709D01*
X019606Y024718D01*
X019593Y024731D01*
X019584Y024746D01*
X019578Y024762D01*
X019576Y024780D01*
X019576Y025155D02*
X019578Y025173D01*
X019584Y025189D01*
X019593Y025204D01*
X019606Y025217D01*
X019621Y025226D01*
X019637Y025232D01*
X019655Y025234D01*
X019673Y025232D01*
X019689Y025226D01*
X019704Y025217D01*
X019717Y025204D01*
X019726Y025189D01*
X019732Y025173D01*
X019734Y025155D01*
X019732Y025137D01*
X019726Y025121D01*
X019717Y025106D01*
X019704Y025093D01*
X019689Y025084D01*
X019673Y025078D01*
X019655Y025076D01*
X019637Y025078D01*
X019621Y025084D01*
X019606Y025093D01*
X019593Y025106D01*
X019584Y025121D01*
X019578Y025137D01*
X019576Y025155D01*
X019576Y025530D02*
X019578Y025548D01*
X019584Y025564D01*
X019593Y025579D01*
X019606Y025592D01*
X019621Y025601D01*
X019637Y025607D01*
X019655Y025609D01*
X019673Y025607D01*
X019689Y025601D01*
X019704Y025592D01*
X019717Y025579D01*
X019726Y025564D01*
X019732Y025548D01*
X019734Y025530D01*
X019732Y025512D01*
X019726Y025496D01*
X019717Y025481D01*
X019704Y025468D01*
X019689Y025459D01*
X019673Y025453D01*
X019655Y025451D01*
X019637Y025453D01*
X019621Y025459D01*
X019606Y025468D01*
X019593Y025481D01*
X019584Y025496D01*
X019578Y025512D01*
X019576Y025530D01*
X019576Y025905D02*
X019578Y025923D01*
X019584Y025939D01*
X019593Y025954D01*
X019606Y025967D01*
X019621Y025976D01*
X019637Y025982D01*
X019655Y025984D01*
X019673Y025982D01*
X019689Y025976D01*
X019704Y025967D01*
X019717Y025954D01*
X019726Y025939D01*
X019732Y025923D01*
X019734Y025905D01*
X019732Y025887D01*
X019726Y025871D01*
X019717Y025856D01*
X019704Y025843D01*
X019689Y025834D01*
X019673Y025828D01*
X019655Y025826D01*
X019637Y025828D01*
X019621Y025834D01*
X019606Y025843D01*
X019593Y025856D01*
X019584Y025871D01*
X019578Y025887D01*
X019576Y025905D01*
X020155Y026030D02*
X020111Y026032D01*
X020068Y026038D01*
X020026Y026047D01*
X019984Y026060D01*
X019944Y026077D01*
X019905Y026097D01*
X019868Y026120D01*
X019834Y026147D01*
X019801Y026176D01*
X019772Y026209D01*
X019745Y026243D01*
X019722Y026280D01*
X019702Y026319D01*
X019685Y026359D01*
X019672Y026401D01*
X019663Y026443D01*
X019657Y026486D01*
X019655Y026530D01*
X020576Y025905D02*
X020578Y025923D01*
X020584Y025939D01*
X020593Y025954D01*
X020606Y025967D01*
X020621Y025976D01*
X020637Y025982D01*
X020655Y025984D01*
X020673Y025982D01*
X020689Y025976D01*
X020704Y025967D01*
X020717Y025954D01*
X020726Y025939D01*
X020732Y025923D01*
X020734Y025905D01*
X020732Y025887D01*
X020726Y025871D01*
X020717Y025856D01*
X020704Y025843D01*
X020689Y025834D01*
X020673Y025828D01*
X020655Y025826D01*
X020637Y025828D01*
X020621Y025834D01*
X020606Y025843D01*
X020593Y025856D01*
X020584Y025871D01*
X020578Y025887D01*
X020576Y025905D01*
X020576Y025530D02*
X020578Y025548D01*
X020584Y025564D01*
X020593Y025579D01*
X020606Y025592D01*
X020621Y025601D01*
X020637Y025607D01*
X020655Y025609D01*
X020673Y025607D01*
X020689Y025601D01*
X020704Y025592D01*
X020717Y025579D01*
X020726Y025564D01*
X020732Y025548D01*
X020734Y025530D01*
X020732Y025512D01*
X020726Y025496D01*
X020717Y025481D01*
X020704Y025468D01*
X020689Y025459D01*
X020673Y025453D01*
X020655Y025451D01*
X020637Y025453D01*
X020621Y025459D01*
X020606Y025468D01*
X020593Y025481D01*
X020584Y025496D01*
X020578Y025512D01*
X020576Y025530D01*
X020576Y025155D02*
X020578Y025173D01*
X020584Y025189D01*
X020593Y025204D01*
X020606Y025217D01*
X020621Y025226D01*
X020637Y025232D01*
X020655Y025234D01*
X020673Y025232D01*
X020689Y025226D01*
X020704Y025217D01*
X020717Y025204D01*
X020726Y025189D01*
X020732Y025173D01*
X020734Y025155D01*
X020732Y025137D01*
X020726Y025121D01*
X020717Y025106D01*
X020704Y025093D01*
X020689Y025084D01*
X020673Y025078D01*
X020655Y025076D01*
X020637Y025078D01*
X020621Y025084D01*
X020606Y025093D01*
X020593Y025106D01*
X020584Y025121D01*
X020578Y025137D01*
X020576Y025155D01*
X020576Y024780D02*
X020578Y024798D01*
X020584Y024814D01*
X020593Y024829D01*
X020606Y024842D01*
X020621Y024851D01*
X020637Y024857D01*
X020655Y024859D01*
X020673Y024857D01*
X020689Y024851D01*
X020704Y024842D01*
X020717Y024829D01*
X020726Y024814D01*
X020732Y024798D01*
X020734Y024780D01*
X020732Y024762D01*
X020726Y024746D01*
X020717Y024731D01*
X020704Y024718D01*
X020689Y024709D01*
X020673Y024703D01*
X020655Y024701D01*
X020637Y024703D01*
X020621Y024709D01*
X020606Y024718D01*
X020593Y024731D01*
X020584Y024746D01*
X020578Y024762D01*
X020576Y024780D01*
X020655Y024155D02*
X020655Y013030D01*
X020653Y012986D01*
X020647Y012943D01*
X020638Y012901D01*
X020625Y012859D01*
X020608Y012819D01*
X020588Y012780D01*
X020565Y012743D01*
X020538Y012709D01*
X020509Y012676D01*
X020476Y012647D01*
X020442Y012620D01*
X020405Y012597D01*
X020366Y012577D01*
X020326Y012560D01*
X020284Y012547D01*
X020242Y012538D01*
X020199Y012532D01*
X020155Y012530D01*
X020111Y012532D01*
X020068Y012538D01*
X020026Y012547D01*
X019984Y012560D01*
X019944Y012577D01*
X019905Y012597D01*
X019868Y012620D01*
X019834Y012647D01*
X019801Y012676D01*
X019772Y012709D01*
X019745Y012743D01*
X019722Y012780D01*
X019702Y012819D01*
X019685Y012859D01*
X019672Y012901D01*
X019663Y012943D01*
X019657Y012986D01*
X019655Y013030D01*
X020576Y012405D02*
X020578Y012423D01*
X020584Y012439D01*
X020593Y012454D01*
X020606Y012467D01*
X020621Y012476D01*
X020637Y012482D01*
X020655Y012484D01*
X020673Y012482D01*
X020689Y012476D01*
X020704Y012467D01*
X020717Y012454D01*
X020726Y012439D01*
X020732Y012423D01*
X020734Y012405D01*
X020732Y012387D01*
X020726Y012371D01*
X020717Y012356D01*
X020704Y012343D01*
X020689Y012334D01*
X020673Y012328D01*
X020655Y012326D01*
X020637Y012328D01*
X020621Y012334D01*
X020606Y012343D01*
X020593Y012356D01*
X020584Y012371D01*
X020578Y012387D01*
X020576Y012405D01*
X020576Y012030D02*
X020578Y012048D01*
X020584Y012064D01*
X020593Y012079D01*
X020606Y012092D01*
X020621Y012101D01*
X020637Y012107D01*
X020655Y012109D01*
X020673Y012107D01*
X020689Y012101D01*
X020704Y012092D01*
X020717Y012079D01*
X020726Y012064D01*
X020732Y012048D01*
X020734Y012030D01*
X020732Y012012D01*
X020726Y011996D01*
X020717Y011981D01*
X020704Y011968D01*
X020689Y011959D01*
X020673Y011953D01*
X020655Y011951D01*
X020637Y011953D01*
X020621Y011959D01*
X020606Y011968D01*
X020593Y011981D01*
X020584Y011996D01*
X020578Y012012D01*
X020576Y012030D01*
X020576Y011655D02*
X020578Y011673D01*
X020584Y011689D01*
X020593Y011704D01*
X020606Y011717D01*
X020621Y011726D01*
X020637Y011732D01*
X020655Y011734D01*
X020673Y011732D01*
X020689Y011726D01*
X020704Y011717D01*
X020717Y011704D01*
X020726Y011689D01*
X020732Y011673D01*
X020734Y011655D01*
X020732Y011637D01*
X020726Y011621D01*
X020717Y011606D01*
X020704Y011593D01*
X020689Y011584D01*
X020673Y011578D01*
X020655Y011576D01*
X020637Y011578D01*
X020621Y011584D01*
X020606Y011593D01*
X020593Y011606D01*
X020584Y011621D01*
X020578Y011637D01*
X020576Y011655D01*
X020576Y011280D02*
X020578Y011298D01*
X020584Y011314D01*
X020593Y011329D01*
X020606Y011342D01*
X020621Y011351D01*
X020637Y011357D01*
X020655Y011359D01*
X020673Y011357D01*
X020689Y011351D01*
X020704Y011342D01*
X020717Y011329D01*
X020726Y011314D01*
X020732Y011298D01*
X020734Y011280D01*
X020732Y011262D01*
X020726Y011246D01*
X020717Y011231D01*
X020704Y011218D01*
X020689Y011209D01*
X020673Y011203D01*
X020655Y011201D01*
X020637Y011203D01*
X020621Y011209D01*
X020606Y011218D01*
X020593Y011231D01*
X020584Y011246D01*
X020578Y011262D01*
X020576Y011280D01*
X020655Y024155D02*
X020653Y024199D01*
X020647Y024242D01*
X020638Y024284D01*
X020625Y024326D01*
X020608Y024366D01*
X020588Y024405D01*
X020565Y024442D01*
X020538Y024476D01*
X020509Y024509D01*
X020476Y024538D01*
X020442Y024565D01*
X020405Y024588D01*
X020366Y024608D01*
X020326Y024625D01*
X020284Y024638D01*
X020242Y024647D01*
X020199Y024653D01*
X020155Y024655D01*
X009155Y037655D02*
X009157Y037725D01*
X009163Y037795D01*
X009173Y037864D01*
X009186Y037933D01*
X009204Y038001D01*
X009225Y038068D01*
X009250Y038133D01*
X009279Y038197D01*
X009311Y038260D01*
X009347Y038320D01*
X009386Y038378D01*
X009428Y038434D01*
X009473Y038488D01*
X009521Y038539D01*
X009572Y038587D01*
X009626Y038632D01*
X009682Y038674D01*
X009740Y038713D01*
X009800Y038749D01*
X009863Y038781D01*
X009927Y038810D01*
X009992Y038835D01*
X010059Y038856D01*
X010127Y038874D01*
X010196Y038887D01*
X010265Y038897D01*
X010335Y038903D01*
X010405Y038905D01*
X010475Y038903D01*
X010545Y038897D01*
X010614Y038887D01*
X010683Y038874D01*
X010751Y038856D01*
X010818Y038835D01*
X010883Y038810D01*
X010947Y038781D01*
X011010Y038749D01*
X011070Y038713D01*
X011128Y038674D01*
X011184Y038632D01*
X011238Y038587D01*
X011289Y038539D01*
X011337Y038488D01*
X011382Y038434D01*
X011424Y038378D01*
X011463Y038320D01*
X011499Y038260D01*
X011531Y038197D01*
X011560Y038133D01*
X011585Y038068D01*
X011606Y038001D01*
X011624Y037933D01*
X011637Y037864D01*
X011647Y037795D01*
X011653Y037725D01*
X011655Y037655D01*
X011653Y037585D01*
X011647Y037515D01*
X011637Y037446D01*
X011624Y037377D01*
X011606Y037309D01*
X011585Y037242D01*
X011560Y037177D01*
X011531Y037113D01*
X011499Y037050D01*
X011463Y036990D01*
X011424Y036932D01*
X011382Y036876D01*
X011337Y036822D01*
X011289Y036771D01*
X011238Y036723D01*
X011184Y036678D01*
X011128Y036636D01*
X011070Y036597D01*
X011010Y036561D01*
X010947Y036529D01*
X010883Y036500D01*
X010818Y036475D01*
X010751Y036454D01*
X010683Y036436D01*
X010614Y036423D01*
X010545Y036413D01*
X010475Y036407D01*
X010405Y036405D01*
X010335Y036407D01*
X010265Y036413D01*
X010196Y036423D01*
X010127Y036436D01*
X010059Y036454D01*
X009992Y036475D01*
X009927Y036500D01*
X009863Y036529D01*
X009800Y036561D01*
X009740Y036597D01*
X009682Y036636D01*
X009626Y036678D01*
X009572Y036723D01*
X009521Y036771D01*
X009473Y036822D01*
X009428Y036876D01*
X009386Y036932D01*
X009347Y036990D01*
X009311Y037050D01*
X009279Y037113D01*
X009250Y037177D01*
X009225Y037242D01*
X009204Y037309D01*
X009186Y037377D01*
X009173Y037446D01*
X009163Y037515D01*
X009157Y037585D01*
X009155Y037655D01*
X029155Y037655D02*
X029157Y037725D01*
X029163Y037795D01*
X029173Y037864D01*
X029186Y037933D01*
X029204Y038001D01*
X029225Y038068D01*
X029250Y038133D01*
X029279Y038197D01*
X029311Y038260D01*
X029347Y038320D01*
X029386Y038378D01*
X029428Y038434D01*
X029473Y038488D01*
X029521Y038539D01*
X029572Y038587D01*
X029626Y038632D01*
X029682Y038674D01*
X029740Y038713D01*
X029800Y038749D01*
X029863Y038781D01*
X029927Y038810D01*
X029992Y038835D01*
X030059Y038856D01*
X030127Y038874D01*
X030196Y038887D01*
X030265Y038897D01*
X030335Y038903D01*
X030405Y038905D01*
X030475Y038903D01*
X030545Y038897D01*
X030614Y038887D01*
X030683Y038874D01*
X030751Y038856D01*
X030818Y038835D01*
X030883Y038810D01*
X030947Y038781D01*
X031010Y038749D01*
X031070Y038713D01*
X031128Y038674D01*
X031184Y038632D01*
X031238Y038587D01*
X031289Y038539D01*
X031337Y038488D01*
X031382Y038434D01*
X031424Y038378D01*
X031463Y038320D01*
X031499Y038260D01*
X031531Y038197D01*
X031560Y038133D01*
X031585Y038068D01*
X031606Y038001D01*
X031624Y037933D01*
X031637Y037864D01*
X031647Y037795D01*
X031653Y037725D01*
X031655Y037655D01*
X031653Y037585D01*
X031647Y037515D01*
X031637Y037446D01*
X031624Y037377D01*
X031606Y037309D01*
X031585Y037242D01*
X031560Y037177D01*
X031531Y037113D01*
X031499Y037050D01*
X031463Y036990D01*
X031424Y036932D01*
X031382Y036876D01*
X031337Y036822D01*
X031289Y036771D01*
X031238Y036723D01*
X031184Y036678D01*
X031128Y036636D01*
X031070Y036597D01*
X031010Y036561D01*
X030947Y036529D01*
X030883Y036500D01*
X030818Y036475D01*
X030751Y036454D01*
X030683Y036436D01*
X030614Y036423D01*
X030545Y036413D01*
X030475Y036407D01*
X030405Y036405D01*
X030335Y036407D01*
X030265Y036413D01*
X030196Y036423D01*
X030127Y036436D01*
X030059Y036454D01*
X029992Y036475D01*
X029927Y036500D01*
X029863Y036529D01*
X029800Y036561D01*
X029740Y036597D01*
X029682Y036636D01*
X029626Y036678D01*
X029572Y036723D01*
X029521Y036771D01*
X029473Y036822D01*
X029428Y036876D01*
X029386Y036932D01*
X029347Y036990D01*
X029311Y037050D01*
X029279Y037113D01*
X029250Y037177D01*
X029225Y037242D01*
X029204Y037309D01*
X029186Y037377D01*
X029173Y037446D01*
X029163Y037515D01*
X029157Y037585D01*
X029155Y037655D01*
D11*
X030405Y037655D03*
X010405Y037655D03*
D12*
X019655Y036405D03*
X019655Y036030D03*
X019655Y035655D03*
X019655Y035280D03*
X020655Y035280D03*
X020655Y035655D03*
X020655Y036030D03*
X020655Y036405D03*
X020655Y025905D03*
X020655Y025530D03*
X020655Y025155D03*
X020655Y024780D03*
X019655Y024780D03*
X019655Y025155D03*
X019655Y025530D03*
X019655Y025905D03*
X019655Y012405D03*
X019655Y012030D03*
X019655Y011655D03*
X019655Y011280D03*
X020655Y011280D03*
X020655Y011655D03*
X020655Y012030D03*
X020655Y012405D03*
X020655Y004905D03*
X020655Y004530D03*
X020655Y004155D03*
X020655Y003780D03*
X019655Y003780D03*
X019655Y004155D03*
X019655Y004530D03*
X019655Y004905D03*
D13*
G36*
X014929Y017583D02*
X015338Y017992D01*
X015551Y017779D01*
X015142Y017370D01*
X014929Y017583D01*
G37*
G36*
X014706Y017805D02*
X015115Y018214D01*
X015328Y018001D01*
X014919Y017592D01*
X014706Y017805D01*
G37*
G36*
X014483Y018028D02*
X014892Y018437D01*
X015105Y018224D01*
X014696Y017815D01*
X014483Y018028D01*
G37*
G36*
X014260Y018251D02*
X014669Y018660D01*
X014882Y018447D01*
X014473Y018038D01*
X014260Y018251D01*
G37*
G36*
X014038Y018473D02*
X014447Y018882D01*
X014660Y018669D01*
X014251Y018260D01*
X014038Y018473D01*
G37*
G36*
X013815Y018696D02*
X014224Y019105D01*
X014437Y018892D01*
X014028Y018483D01*
X013815Y018696D01*
G37*
G36*
X013592Y018919D02*
X014001Y019328D01*
X014214Y019115D01*
X013805Y018706D01*
X013592Y018919D01*
G37*
G36*
X013370Y019142D02*
X013779Y019551D01*
X013992Y019338D01*
X013583Y018929D01*
X013370Y019142D01*
G37*
G36*
X015760Y021532D02*
X016169Y021941D01*
X016382Y021728D01*
X015973Y021319D01*
X015760Y021532D01*
G37*
G36*
X015982Y021309D02*
X016391Y021718D01*
X016604Y021505D01*
X016195Y021096D01*
X015982Y021309D01*
G37*
G36*
X016205Y021086D02*
X016614Y021495D01*
X016827Y021282D01*
X016418Y020873D01*
X016205Y021086D01*
G37*
G36*
X016428Y020863D02*
X016837Y021272D01*
X017050Y021059D01*
X016641Y020650D01*
X016428Y020863D01*
G37*
G36*
X016650Y020641D02*
X017059Y021050D01*
X017272Y020837D01*
X016863Y020428D01*
X016650Y020641D01*
G37*
G36*
X016873Y020418D02*
X017282Y020827D01*
X017495Y020614D01*
X017086Y020205D01*
X016873Y020418D01*
G37*
G36*
X017096Y020195D02*
X017505Y020604D01*
X017718Y020391D01*
X017309Y019982D01*
X017096Y020195D01*
G37*
G36*
X017319Y019973D02*
X017728Y020382D01*
X017941Y020169D01*
X017532Y019760D01*
X017319Y019973D01*
G37*
G36*
X033370Y019142D02*
X033779Y019551D01*
X033992Y019338D01*
X033583Y018929D01*
X033370Y019142D01*
G37*
G36*
X033592Y018919D02*
X034001Y019328D01*
X034214Y019115D01*
X033805Y018706D01*
X033592Y018919D01*
G37*
G36*
X033815Y018696D02*
X034224Y019105D01*
X034437Y018892D01*
X034028Y018483D01*
X033815Y018696D01*
G37*
G36*
X034038Y018473D02*
X034447Y018882D01*
X034660Y018669D01*
X034251Y018260D01*
X034038Y018473D01*
G37*
G36*
X034260Y018251D02*
X034669Y018660D01*
X034882Y018447D01*
X034473Y018038D01*
X034260Y018251D01*
G37*
G36*
X034483Y018028D02*
X034892Y018437D01*
X035105Y018224D01*
X034696Y017815D01*
X034483Y018028D01*
G37*
G36*
X034706Y017805D02*
X035115Y018214D01*
X035328Y018001D01*
X034919Y017592D01*
X034706Y017805D01*
G37*
G36*
X034929Y017583D02*
X035338Y017992D01*
X035551Y017779D01*
X035142Y017370D01*
X034929Y017583D01*
G37*
G36*
X037319Y019973D02*
X037728Y020382D01*
X037941Y020169D01*
X037532Y019760D01*
X037319Y019973D01*
G37*
G36*
X037096Y020195D02*
X037505Y020604D01*
X037718Y020391D01*
X037309Y019982D01*
X037096Y020195D01*
G37*
G36*
X036873Y020418D02*
X037282Y020827D01*
X037495Y020614D01*
X037086Y020205D01*
X036873Y020418D01*
G37*
G36*
X036650Y020641D02*
X037059Y021050D01*
X037272Y020837D01*
X036863Y020428D01*
X036650Y020641D01*
G37*
G36*
X036428Y020863D02*
X036837Y021272D01*
X037050Y021059D01*
X036641Y020650D01*
X036428Y020863D01*
G37*
G36*
X036205Y021086D02*
X036614Y021495D01*
X036827Y021282D01*
X036418Y020873D01*
X036205Y021086D01*
G37*
G36*
X035982Y021309D02*
X036391Y021718D01*
X036604Y021505D01*
X036195Y021096D01*
X035982Y021309D01*
G37*
G36*
X035760Y021532D02*
X036169Y021941D01*
X036382Y021728D01*
X035973Y021319D01*
X035760Y021532D01*
G37*
D14*
G36*
X034929Y021728D02*
X035142Y021941D01*
X035551Y021532D01*
X035338Y021319D01*
X034929Y021728D01*
G37*
G36*
X034706Y021505D02*
X034919Y021718D01*
X035328Y021309D01*
X035115Y021096D01*
X034706Y021505D01*
G37*
G36*
X034483Y021282D02*
X034696Y021495D01*
X035105Y021086D01*
X034892Y020873D01*
X034483Y021282D01*
G37*
G36*
X034260Y021059D02*
X034473Y021272D01*
X034882Y020863D01*
X034669Y020650D01*
X034260Y021059D01*
G37*
G36*
X034038Y020837D02*
X034251Y021050D01*
X034660Y020641D01*
X034447Y020428D01*
X034038Y020837D01*
G37*
G36*
X033815Y020614D02*
X034028Y020827D01*
X034437Y020418D01*
X034224Y020205D01*
X033815Y020614D01*
G37*
G36*
X033592Y020391D02*
X033805Y020604D01*
X034214Y020195D01*
X034001Y019982D01*
X033592Y020391D01*
G37*
G36*
X033370Y020169D02*
X033583Y020382D01*
X033992Y019973D01*
X033779Y019760D01*
X033370Y020169D01*
G37*
G36*
X035760Y017779D02*
X035973Y017992D01*
X036382Y017583D01*
X036169Y017370D01*
X035760Y017779D01*
G37*
G36*
X035982Y018001D02*
X036195Y018214D01*
X036604Y017805D01*
X036391Y017592D01*
X035982Y018001D01*
G37*
G36*
X036205Y018224D02*
X036418Y018437D01*
X036827Y018028D01*
X036614Y017815D01*
X036205Y018224D01*
G37*
G36*
X036428Y018447D02*
X036641Y018660D01*
X037050Y018251D01*
X036837Y018038D01*
X036428Y018447D01*
G37*
G36*
X036650Y018669D02*
X036863Y018882D01*
X037272Y018473D01*
X037059Y018260D01*
X036650Y018669D01*
G37*
G36*
X036873Y018892D02*
X037086Y019105D01*
X037495Y018696D01*
X037282Y018483D01*
X036873Y018892D01*
G37*
G36*
X037096Y019115D02*
X037309Y019328D01*
X037718Y018919D01*
X037505Y018706D01*
X037096Y019115D01*
G37*
G36*
X037319Y019338D02*
X037532Y019551D01*
X037941Y019142D01*
X037728Y018929D01*
X037319Y019338D01*
G37*
G36*
X017319Y019338D02*
X017532Y019551D01*
X017941Y019142D01*
X017728Y018929D01*
X017319Y019338D01*
G37*
G36*
X017096Y019115D02*
X017309Y019328D01*
X017718Y018919D01*
X017505Y018706D01*
X017096Y019115D01*
G37*
G36*
X016873Y018892D02*
X017086Y019105D01*
X017495Y018696D01*
X017282Y018483D01*
X016873Y018892D01*
G37*
G36*
X016650Y018669D02*
X016863Y018882D01*
X017272Y018473D01*
X017059Y018260D01*
X016650Y018669D01*
G37*
G36*
X016428Y018447D02*
X016641Y018660D01*
X017050Y018251D01*
X016837Y018038D01*
X016428Y018447D01*
G37*
G36*
X016205Y018224D02*
X016418Y018437D01*
X016827Y018028D01*
X016614Y017815D01*
X016205Y018224D01*
G37*
G36*
X015982Y018001D02*
X016195Y018214D01*
X016604Y017805D01*
X016391Y017592D01*
X015982Y018001D01*
G37*
G36*
X015760Y017779D02*
X015973Y017992D01*
X016382Y017583D01*
X016169Y017370D01*
X015760Y017779D01*
G37*
G36*
X013370Y020169D02*
X013583Y020382D01*
X013992Y019973D01*
X013779Y019760D01*
X013370Y020169D01*
G37*
G36*
X013592Y020391D02*
X013805Y020604D01*
X014214Y020195D01*
X014001Y019982D01*
X013592Y020391D01*
G37*
G36*
X013815Y020614D02*
X014028Y020827D01*
X014437Y020418D01*
X014224Y020205D01*
X013815Y020614D01*
G37*
G36*
X014038Y020837D02*
X014251Y021050D01*
X014660Y020641D01*
X014447Y020428D01*
X014038Y020837D01*
G37*
G36*
X014260Y021059D02*
X014473Y021272D01*
X014882Y020863D01*
X014669Y020650D01*
X014260Y021059D01*
G37*
G36*
X014483Y021282D02*
X014696Y021495D01*
X015105Y021086D01*
X014892Y020873D01*
X014483Y021282D01*
G37*
G36*
X014706Y021505D02*
X014919Y021718D01*
X015328Y021309D01*
X015115Y021096D01*
X014706Y021505D01*
G37*
G36*
X014929Y021728D02*
X015142Y021941D01*
X015551Y021532D01*
X015338Y021319D01*
X014929Y021728D01*
G37*
D15*
X018445Y017655D03*
X019115Y017655D03*
X017490Y030655D03*
X016820Y030655D03*
X013490Y030655D03*
X012820Y030655D03*
X009990Y030655D03*
X009320Y030655D03*
X005990Y030655D03*
X005320Y030655D03*
X001990Y030655D03*
X001320Y030655D03*
X007655Y037820D03*
X007655Y038490D03*
X021320Y030655D03*
X021990Y030655D03*
X025320Y030655D03*
X025990Y030655D03*
X029320Y030655D03*
X029990Y030655D03*
X032820Y030655D03*
X033490Y030655D03*
X036820Y030655D03*
X037490Y030655D03*
X027655Y037820D03*
X027655Y038490D03*
X038445Y017655D03*
X039115Y017655D03*
D16*
X038905Y010155D03*
X037905Y010155D03*
X036905Y010155D03*
X035905Y010155D03*
X034905Y010155D03*
X033905Y010155D03*
X031905Y010155D03*
X030905Y010155D03*
X029905Y010155D03*
X028905Y010155D03*
X027905Y010155D03*
X026905Y010155D03*
X025905Y010155D03*
X024905Y010155D03*
X018905Y010155D03*
X017905Y010155D03*
X016905Y010155D03*
X015905Y010155D03*
X014905Y010155D03*
X013905Y010155D03*
X011905Y010155D03*
X010905Y010155D03*
X009905Y010155D03*
X008905Y010155D03*
X007905Y010155D03*
X006905Y010155D03*
X005905Y010155D03*
X004905Y010155D03*
X005305Y029155D03*
X006305Y029155D03*
X007305Y029155D03*
X008305Y029155D03*
X009305Y029155D03*
X010305Y029155D03*
X011905Y029155D03*
X012905Y029155D03*
X013905Y029155D03*
X014905Y029155D03*
X015905Y029155D03*
X016905Y029155D03*
X017905Y029155D03*
X018905Y029155D03*
X021305Y029155D03*
X022305Y029155D03*
X023305Y029155D03*
X024305Y029155D03*
X025305Y029155D03*
X026305Y029155D03*
X027305Y029155D03*
X028305Y029155D03*
X029305Y029155D03*
X030305Y029155D03*
X031905Y029155D03*
X032905Y029155D03*
X033905Y029155D03*
X034905Y029155D03*
X035905Y029155D03*
X036905Y029155D03*
X037905Y029155D03*
X038905Y029155D03*
X004305Y029155D03*
X003305Y029155D03*
X002305Y029155D03*
X001305Y029155D03*
D17*
X011820Y019155D03*
X012490Y019155D03*
X012490Y018155D03*
X011820Y018155D03*
X011820Y017155D03*
X012490Y017155D03*
G36*
X017181Y021294D02*
X016820Y021655D01*
X017155Y021990D01*
X017516Y021629D01*
X017181Y021294D01*
G37*
G36*
X017655Y020820D02*
X017294Y021181D01*
X017629Y021516D01*
X017990Y021155D01*
X017655Y020820D01*
G37*
X017240Y024030D03*
X016570Y024030D03*
X015740Y024030D03*
X015070Y024030D03*
X015155Y037820D03*
X015155Y038490D03*
X035070Y024030D03*
X035740Y024030D03*
X036570Y024030D03*
X037240Y024030D03*
G36*
X037181Y021294D02*
X036820Y021655D01*
X037155Y021990D01*
X037516Y021629D01*
X037181Y021294D01*
G37*
G36*
X037655Y020820D02*
X037294Y021181D01*
X037629Y021516D01*
X037990Y021155D01*
X037655Y020820D01*
G37*
X032490Y019155D03*
X031820Y019155D03*
X031820Y018155D03*
X032490Y018155D03*
X032490Y017155D03*
X031820Y017155D03*
X035155Y037820D03*
X035155Y038490D03*
D18*
X035300Y034655D03*
X034710Y034655D03*
X033350Y034655D03*
X032760Y034655D03*
X031400Y034655D03*
X030810Y034655D03*
X029450Y034655D03*
X028860Y034655D03*
X027500Y034655D03*
X026910Y034655D03*
X025550Y034655D03*
X024960Y034655D03*
X023600Y034655D03*
X023010Y034655D03*
X021650Y034655D03*
X021060Y034655D03*
X019200Y034655D03*
X018610Y034655D03*
X017250Y034655D03*
X016660Y034655D03*
X015300Y034655D03*
X014710Y034655D03*
X013350Y034655D03*
X012760Y034655D03*
X011400Y034655D03*
X010810Y034655D03*
X009450Y034655D03*
X008860Y034655D03*
X007500Y034655D03*
X006910Y034655D03*
X005550Y034655D03*
X004960Y034655D03*
X003600Y034655D03*
X003010Y034655D03*
X001650Y034655D03*
X001060Y034655D03*
X001060Y031655D03*
X001650Y031655D03*
X003010Y031655D03*
X003600Y031655D03*
X004960Y031655D03*
X005550Y031655D03*
X006910Y031655D03*
X007500Y031655D03*
X008860Y031655D03*
X009450Y031655D03*
X010810Y031655D03*
X011400Y031655D03*
X012760Y031655D03*
X013350Y031655D03*
X014710Y031655D03*
X015300Y031655D03*
X016660Y031655D03*
X017250Y031655D03*
X018610Y031655D03*
X019200Y031655D03*
X021060Y031655D03*
X021650Y031655D03*
X023010Y031655D03*
X023600Y031655D03*
X024960Y031655D03*
X025550Y031655D03*
X026910Y031655D03*
X027500Y031655D03*
X028860Y031655D03*
X029450Y031655D03*
X030810Y031655D03*
X031400Y031655D03*
X032760Y031655D03*
X033350Y031655D03*
X034710Y031655D03*
X035300Y031655D03*
X036660Y031655D03*
X037250Y031655D03*
X038610Y031655D03*
X039200Y031655D03*
X039200Y034655D03*
X038610Y034655D03*
X037250Y034655D03*
X036660Y034655D03*
D19*
X035455Y030655D03*
X034855Y030655D03*
X031455Y030655D03*
X030855Y030655D03*
X027955Y030655D03*
X027355Y030655D03*
X023955Y030655D03*
X023355Y030655D03*
X019205Y030655D03*
X018605Y030655D03*
X015455Y030655D03*
X014855Y030655D03*
X011455Y030655D03*
X010855Y030655D03*
X007955Y030655D03*
X007355Y030655D03*
X003955Y030655D03*
X003355Y030655D03*
X038605Y030655D03*
X039205Y030655D03*
D20*
X038905Y030655D03*
X035155Y030655D03*
X031155Y030655D03*
X027655Y030655D03*
X023655Y030655D03*
X018905Y030655D03*
X015155Y030655D03*
X011155Y030655D03*
X007655Y030655D03*
X003655Y030655D03*
D21*
X017155Y037655D03*
X018155Y037655D03*
X037155Y037655D03*
X038155Y037655D03*
D22*
X035155Y036955D03*
X035155Y036355D03*
X027655Y036355D03*
X027655Y036955D03*
X015155Y036955D03*
X015155Y036355D03*
X007655Y036355D03*
X007655Y036955D03*
D23*
X007655Y036655D03*
X015155Y036655D03*
X027655Y036655D03*
X035155Y036655D03*
D24*
X026155Y036655D03*
X006155Y036655D03*
D25*
X006155Y037655D03*
X006155Y038655D03*
X026155Y038655D03*
X026155Y037655D03*
D26*
X022155Y037655D03*
X002155Y037655D03*
D27*
X003780Y027155D03*
X023780Y027155D03*
D28*
X023780Y026155D03*
X023780Y025155D03*
X023780Y024155D03*
X023780Y023155D03*
X023780Y022155D03*
X003780Y022155D03*
X003780Y023155D03*
X003780Y024155D03*
X003780Y025155D03*
X003780Y026155D03*
D29*
X002693Y026541D03*
X002693Y025360D03*
X002693Y024769D03*
X022693Y024769D03*
X022693Y025360D03*
X022693Y026541D03*
D30*
X022358Y027131D03*
X022358Y024179D03*
X002358Y024179D03*
X002358Y027131D03*
D31*
X001452Y027092D03*
X001452Y024218D03*
X021452Y024218D03*
X021452Y027092D03*
D32*
X030905Y019029D03*
X030905Y018281D03*
X010905Y018281D03*
X010905Y019029D03*
D33*
X015368Y022905D03*
X016943Y022905D03*
X035368Y022905D03*
X036943Y022905D03*
D34*
X030147Y015455D03*
X030147Y013255D03*
X030147Y013155D03*
X010147Y013155D03*
X010147Y013255D03*
X010147Y015455D03*
D35*
X010147Y015444D03*
X010147Y015433D03*
X010147Y015422D03*
X010147Y015411D03*
X010147Y015400D03*
X010147Y015466D03*
X010147Y015477D03*
X010147Y015488D03*
X010147Y015500D03*
X010147Y015511D03*
X010147Y015522D03*
X010147Y015533D03*
X010147Y013288D03*
X010147Y013277D03*
X010147Y013266D03*
X010147Y013244D03*
X010147Y013233D03*
X010147Y013222D03*
X010147Y013211D03*
X010147Y013200D03*
X010147Y013188D03*
X010147Y013177D03*
X010147Y013166D03*
X030147Y013200D03*
X030147Y013211D03*
X030147Y013222D03*
X030147Y013233D03*
X030147Y013244D03*
X030147Y013266D03*
X030147Y013277D03*
X030147Y013288D03*
X030147Y013188D03*
X030147Y013177D03*
X030147Y013166D03*
X030147Y015400D03*
X030147Y015411D03*
X030147Y015422D03*
X030147Y015433D03*
X030147Y015444D03*
X030147Y015466D03*
X030147Y015477D03*
X030147Y015488D03*
X030147Y015500D03*
X030147Y015511D03*
X030147Y015522D03*
X030147Y015533D03*
D36*
X020847Y015388D03*
X020847Y015377D03*
X020847Y015366D03*
X020847Y015344D03*
X020847Y015333D03*
X020847Y015322D03*
X020847Y015311D03*
X020847Y015300D03*
X020847Y015288D03*
X020847Y015277D03*
X020847Y015266D03*
X020847Y015244D03*
X020847Y015233D03*
X020847Y015222D03*
X020847Y015211D03*
X020847Y015200D03*
X020847Y015188D03*
X020847Y015177D03*
X020847Y015166D03*
X020847Y015144D03*
X020847Y015133D03*
X020847Y015122D03*
X020847Y015111D03*
X020847Y015100D03*
X020847Y015088D03*
X020847Y015077D03*
X020847Y015066D03*
X020847Y015044D03*
X020847Y015033D03*
X020847Y015022D03*
X020847Y015011D03*
X020847Y015000D03*
X020847Y014988D03*
X020847Y014977D03*
X020847Y014966D03*
X020847Y014944D03*
X020847Y014933D03*
X020847Y014922D03*
X020847Y014911D03*
X020847Y014900D03*
X020847Y014888D03*
X020847Y014877D03*
X020847Y014866D03*
X020847Y014844D03*
X020847Y014833D03*
X020847Y014822D03*
X020847Y014811D03*
X020847Y014800D03*
X020847Y014788D03*
X020847Y014777D03*
X020847Y014766D03*
X020847Y014744D03*
X020847Y014733D03*
X020847Y014722D03*
X020847Y014711D03*
X020847Y014700D03*
X020847Y014688D03*
X020847Y014677D03*
X020847Y014666D03*
X020847Y014644D03*
X020847Y014633D03*
X020847Y014622D03*
X020847Y014611D03*
X020847Y014600D03*
X020847Y014588D03*
X020847Y014577D03*
X020847Y014566D03*
X020847Y014544D03*
X020847Y014533D03*
X020847Y014522D03*
X020847Y014511D03*
X020847Y014500D03*
X020847Y014488D03*
X020847Y014477D03*
X020847Y014466D03*
X020847Y014444D03*
X020847Y014433D03*
X020847Y014422D03*
X020847Y014411D03*
X020847Y014400D03*
X020847Y014388D03*
X020847Y014377D03*
X020847Y014366D03*
X020847Y014344D03*
X020847Y014333D03*
X020847Y014322D03*
X020847Y014311D03*
X020847Y014300D03*
X020847Y014288D03*
X020847Y014277D03*
X020847Y014266D03*
X020847Y014244D03*
X020847Y014233D03*
X020847Y014222D03*
X020847Y014211D03*
X020847Y014200D03*
X020847Y014188D03*
X020847Y014177D03*
X020847Y014166D03*
X020847Y014144D03*
X020847Y014133D03*
X020847Y014122D03*
X020847Y014111D03*
X020847Y014100D03*
X020847Y014088D03*
X020847Y014077D03*
X020847Y014066D03*
X020847Y014044D03*
X020847Y014033D03*
X020847Y014022D03*
X020847Y014011D03*
X020847Y014000D03*
X020847Y013988D03*
X020847Y013977D03*
X020847Y013966D03*
X020847Y013944D03*
X020847Y013933D03*
X020847Y013922D03*
X020847Y013911D03*
X020847Y013900D03*
X020847Y013888D03*
X020847Y013877D03*
X020847Y013866D03*
X020847Y013844D03*
X020847Y013833D03*
X020847Y013822D03*
X020847Y013811D03*
X020847Y013800D03*
X020847Y013788D03*
X020847Y013777D03*
X020847Y013766D03*
X020847Y013744D03*
X020847Y013733D03*
X020847Y013722D03*
X020847Y013711D03*
X020847Y013700D03*
X020847Y013688D03*
X020847Y013677D03*
X020847Y013666D03*
X020847Y013644D03*
X020847Y013633D03*
X020847Y013622D03*
X020847Y013611D03*
X020847Y013600D03*
X020847Y013588D03*
X020847Y013577D03*
X020847Y013566D03*
X020847Y013544D03*
X020847Y013533D03*
X020847Y013522D03*
X020847Y013511D03*
X020847Y013500D03*
X020847Y013488D03*
X020847Y013477D03*
X020847Y013466D03*
X020847Y013444D03*
X020847Y013433D03*
X020847Y013422D03*
X020847Y013411D03*
X020847Y013400D03*
X020847Y013388D03*
X020847Y013377D03*
X020847Y013366D03*
X020847Y013344D03*
X020847Y013333D03*
X020847Y013322D03*
X020847Y013311D03*
X020847Y013300D03*
X019447Y013300D03*
X019447Y013311D03*
X019447Y013322D03*
X019447Y013333D03*
X019447Y013344D03*
X019447Y013366D03*
X019447Y013377D03*
X019447Y013388D03*
X019447Y013400D03*
X019447Y013411D03*
X019447Y013422D03*
X019447Y013433D03*
X019447Y013444D03*
X019447Y013466D03*
X019447Y013477D03*
X019447Y013488D03*
X019447Y013500D03*
X019447Y013511D03*
X019447Y013522D03*
X019447Y013533D03*
X019447Y013544D03*
X019447Y013566D03*
X019447Y013577D03*
X019447Y013588D03*
X019447Y013600D03*
X019447Y013611D03*
X019447Y013622D03*
X019447Y013633D03*
X019447Y013644D03*
X019447Y013666D03*
X019447Y013677D03*
X019447Y013688D03*
X019447Y013700D03*
X019447Y013711D03*
X019447Y013722D03*
X019447Y013733D03*
X019447Y013744D03*
X019447Y013766D03*
X019447Y013777D03*
X019447Y013788D03*
X019447Y013800D03*
X019447Y013811D03*
X019447Y013822D03*
X019447Y013833D03*
X019447Y013844D03*
X019447Y013866D03*
X019447Y013877D03*
X019447Y013888D03*
X019447Y013900D03*
X019447Y013911D03*
X019447Y013922D03*
X019447Y013933D03*
X019447Y013944D03*
X019447Y013966D03*
X019447Y013977D03*
X019447Y013988D03*
X019447Y014000D03*
X019447Y014011D03*
X019447Y014022D03*
X019447Y014033D03*
X019447Y014044D03*
X019447Y014066D03*
X019447Y014077D03*
X019447Y014088D03*
X019447Y014100D03*
X019447Y014111D03*
X019447Y014122D03*
X019447Y014133D03*
X019447Y014144D03*
X019447Y014166D03*
X019447Y014177D03*
X019447Y014188D03*
X019447Y014200D03*
X019447Y014211D03*
X019447Y014222D03*
X019447Y014233D03*
X019447Y014244D03*
X019447Y014266D03*
X019447Y014277D03*
X019447Y014288D03*
X019447Y014300D03*
X019447Y014311D03*
X019447Y014322D03*
X019447Y014333D03*
X019447Y014344D03*
X019447Y014366D03*
X019447Y014377D03*
X019447Y014388D03*
X019447Y014400D03*
X019447Y014411D03*
X019447Y014422D03*
X019447Y014433D03*
X019447Y014444D03*
X019447Y014466D03*
X019447Y014477D03*
X019447Y014488D03*
X019447Y014500D03*
X019447Y014511D03*
X019447Y014522D03*
X019447Y014533D03*
X019447Y014544D03*
X019447Y014566D03*
X019447Y014577D03*
X019447Y014588D03*
X019447Y014600D03*
X019447Y014611D03*
X019447Y014622D03*
X019447Y014633D03*
X019447Y014644D03*
X019447Y014666D03*
X019447Y014677D03*
X019447Y014688D03*
X019447Y014700D03*
X019447Y014711D03*
X019447Y014722D03*
X019447Y014733D03*
X019447Y014744D03*
X019447Y014766D03*
X019447Y014777D03*
X019447Y014788D03*
X019447Y014800D03*
X019447Y014811D03*
X019447Y014822D03*
X019447Y014833D03*
X019447Y014844D03*
X019447Y014866D03*
X019447Y014877D03*
X019447Y014888D03*
X019447Y014900D03*
X019447Y014911D03*
X019447Y014922D03*
X019447Y014933D03*
X019447Y014944D03*
X019447Y014966D03*
X019447Y014977D03*
X019447Y014988D03*
X019447Y015000D03*
X019447Y015011D03*
X019447Y015022D03*
X019447Y015033D03*
X019447Y015044D03*
X019447Y015066D03*
X019447Y015077D03*
X019447Y015088D03*
X019447Y015100D03*
X019447Y015111D03*
X019447Y015122D03*
X019447Y015133D03*
X019447Y015144D03*
X019447Y015166D03*
X019447Y015177D03*
X019447Y015188D03*
X019447Y015200D03*
X019447Y015211D03*
X019447Y015222D03*
X019447Y015233D03*
X019447Y015244D03*
X019447Y015266D03*
X019447Y015277D03*
X019447Y015288D03*
X019447Y015300D03*
X019447Y015311D03*
X019447Y015322D03*
X019447Y015333D03*
X019447Y015344D03*
X019447Y015366D03*
X019447Y015377D03*
X019447Y015388D03*
X000847Y015388D03*
X000847Y015377D03*
X000847Y015366D03*
X000847Y015344D03*
X000847Y015333D03*
X000847Y015322D03*
X000847Y015311D03*
X000847Y015300D03*
X000847Y015288D03*
X000847Y015277D03*
X000847Y015266D03*
X000847Y015244D03*
X000847Y015233D03*
X000847Y015222D03*
X000847Y015211D03*
X000847Y015200D03*
X000847Y015188D03*
X000847Y015177D03*
X000847Y015166D03*
X000847Y015144D03*
X000847Y015133D03*
X000847Y015122D03*
X000847Y015111D03*
X000847Y015100D03*
X000847Y015088D03*
X000847Y015077D03*
X000847Y015066D03*
X000847Y015044D03*
X000847Y015033D03*
X000847Y015022D03*
X000847Y015011D03*
X000847Y015000D03*
X000847Y014988D03*
X000847Y014977D03*
X000847Y014966D03*
X000847Y014944D03*
X000847Y014933D03*
X000847Y014922D03*
X000847Y014911D03*
X000847Y014900D03*
X000847Y014888D03*
X000847Y014877D03*
X000847Y014866D03*
X000847Y014844D03*
X000847Y014833D03*
X000847Y014822D03*
X000847Y014811D03*
X000847Y014800D03*
X000847Y014788D03*
X000847Y014777D03*
X000847Y014766D03*
X000847Y014744D03*
X000847Y014733D03*
X000847Y014722D03*
X000847Y014711D03*
X000847Y014700D03*
X000847Y014688D03*
X000847Y014677D03*
X000847Y014666D03*
X000847Y014644D03*
X000847Y014633D03*
X000847Y014622D03*
X000847Y014611D03*
X000847Y014600D03*
X000847Y014588D03*
X000847Y014577D03*
X000847Y014566D03*
X000847Y014544D03*
X000847Y014533D03*
X000847Y014522D03*
X000847Y014511D03*
X000847Y014500D03*
X000847Y014488D03*
X000847Y014477D03*
X000847Y014466D03*
X000847Y014444D03*
X000847Y014433D03*
X000847Y014422D03*
X000847Y014411D03*
X000847Y014400D03*
X000847Y014388D03*
X000847Y014377D03*
X000847Y014366D03*
X000847Y014344D03*
X000847Y014333D03*
X000847Y014322D03*
X000847Y014311D03*
X000847Y014300D03*
X000847Y014288D03*
X000847Y014277D03*
X000847Y014266D03*
X000847Y014244D03*
X000847Y014233D03*
X000847Y014222D03*
X000847Y014211D03*
X000847Y014200D03*
X000847Y014188D03*
X000847Y014177D03*
X000847Y014166D03*
X000847Y014144D03*
X000847Y014133D03*
X000847Y014122D03*
X000847Y014111D03*
X000847Y014100D03*
X000847Y014088D03*
X000847Y014077D03*
X000847Y014066D03*
X000847Y014044D03*
X000847Y014033D03*
X000847Y014022D03*
X000847Y014011D03*
X000847Y014000D03*
X000847Y013988D03*
X000847Y013977D03*
X000847Y013966D03*
X000847Y013944D03*
X000847Y013933D03*
X000847Y013922D03*
X000847Y013911D03*
X000847Y013900D03*
X000847Y013888D03*
X000847Y013877D03*
X000847Y013866D03*
X000847Y013844D03*
X000847Y013833D03*
X000847Y013822D03*
X000847Y013811D03*
X000847Y013800D03*
X000847Y013788D03*
X000847Y013777D03*
X000847Y013766D03*
X000847Y013744D03*
X000847Y013733D03*
X000847Y013722D03*
X000847Y013711D03*
X000847Y013700D03*
X000847Y013688D03*
X000847Y013677D03*
X000847Y013666D03*
X000847Y013644D03*
X000847Y013633D03*
X000847Y013622D03*
X000847Y013611D03*
X000847Y013600D03*
X000847Y013588D03*
X000847Y013577D03*
X000847Y013566D03*
X000847Y013544D03*
X000847Y013533D03*
X000847Y013522D03*
X000847Y013511D03*
X000847Y013500D03*
X000847Y013488D03*
X000847Y013477D03*
X000847Y013466D03*
X000847Y013444D03*
X000847Y013433D03*
X000847Y013422D03*
X000847Y013411D03*
X000847Y013400D03*
X000847Y013388D03*
X000847Y013377D03*
X000847Y013366D03*
X000847Y013344D03*
X000847Y013333D03*
X000847Y013322D03*
X000847Y013311D03*
X000847Y013300D03*
X039447Y013300D03*
X039447Y013311D03*
X039447Y013322D03*
X039447Y013333D03*
X039447Y013344D03*
X039447Y013366D03*
X039447Y013377D03*
X039447Y013388D03*
X039447Y013400D03*
X039447Y013411D03*
X039447Y013422D03*
X039447Y013433D03*
X039447Y013444D03*
X039447Y013466D03*
X039447Y013477D03*
X039447Y013488D03*
X039447Y013500D03*
X039447Y013511D03*
X039447Y013522D03*
X039447Y013533D03*
X039447Y013544D03*
X039447Y013566D03*
X039447Y013577D03*
X039447Y013588D03*
X039447Y013600D03*
X039447Y013611D03*
X039447Y013622D03*
X039447Y013633D03*
X039447Y013644D03*
X039447Y013666D03*
X039447Y013677D03*
X039447Y013688D03*
X039447Y013700D03*
X039447Y013711D03*
X039447Y013722D03*
X039447Y013733D03*
X039447Y013744D03*
X039447Y013766D03*
X039447Y013777D03*
X039447Y013788D03*
X039447Y013800D03*
X039447Y013811D03*
X039447Y013822D03*
X039447Y013833D03*
X039447Y013844D03*
X039447Y013866D03*
X039447Y013877D03*
X039447Y013888D03*
X039447Y013900D03*
X039447Y013911D03*
X039447Y013922D03*
X039447Y013933D03*
X039447Y013944D03*
X039447Y013966D03*
X039447Y013977D03*
X039447Y013988D03*
X039447Y014000D03*
X039447Y014011D03*
X039447Y014022D03*
X039447Y014033D03*
X039447Y014044D03*
X039447Y014066D03*
X039447Y014077D03*
X039447Y014088D03*
X039447Y014100D03*
X039447Y014111D03*
X039447Y014122D03*
X039447Y014133D03*
X039447Y014144D03*
X039447Y014166D03*
X039447Y014177D03*
X039447Y014188D03*
X039447Y014200D03*
X039447Y014211D03*
X039447Y014222D03*
X039447Y014233D03*
X039447Y014244D03*
X039447Y014266D03*
X039447Y014277D03*
X039447Y014288D03*
X039447Y014300D03*
X039447Y014311D03*
X039447Y014322D03*
X039447Y014333D03*
X039447Y014344D03*
X039447Y014366D03*
X039447Y014377D03*
X039447Y014388D03*
X039447Y014400D03*
X039447Y014411D03*
X039447Y014422D03*
X039447Y014433D03*
X039447Y014444D03*
X039447Y014466D03*
X039447Y014477D03*
X039447Y014488D03*
X039447Y014500D03*
X039447Y014511D03*
X039447Y014522D03*
X039447Y014533D03*
X039447Y014544D03*
X039447Y014566D03*
X039447Y014577D03*
X039447Y014588D03*
X039447Y014600D03*
X039447Y014611D03*
X039447Y014622D03*
X039447Y014633D03*
X039447Y014644D03*
X039447Y014666D03*
X039447Y014677D03*
X039447Y014688D03*
X039447Y014700D03*
X039447Y014711D03*
X039447Y014722D03*
X039447Y014733D03*
X039447Y014744D03*
X039447Y014766D03*
X039447Y014777D03*
X039447Y014788D03*
X039447Y014800D03*
X039447Y014811D03*
X039447Y014822D03*
X039447Y014833D03*
X039447Y014844D03*
X039447Y014866D03*
X039447Y014877D03*
X039447Y014888D03*
X039447Y014900D03*
X039447Y014911D03*
X039447Y014922D03*
X039447Y014933D03*
X039447Y014944D03*
X039447Y014966D03*
X039447Y014977D03*
X039447Y014988D03*
X039447Y015000D03*
X039447Y015011D03*
X039447Y015022D03*
X039447Y015033D03*
X039447Y015044D03*
X039447Y015066D03*
X039447Y015077D03*
X039447Y015088D03*
X039447Y015100D03*
X039447Y015111D03*
X039447Y015122D03*
X039447Y015133D03*
X039447Y015144D03*
X039447Y015166D03*
X039447Y015177D03*
X039447Y015188D03*
X039447Y015200D03*
X039447Y015211D03*
X039447Y015222D03*
X039447Y015233D03*
X039447Y015244D03*
X039447Y015266D03*
X039447Y015277D03*
X039447Y015288D03*
X039447Y015300D03*
X039447Y015311D03*
X039447Y015322D03*
X039447Y015333D03*
X039447Y015344D03*
X039447Y015366D03*
X039447Y015377D03*
X039447Y015388D03*
D37*
X039447Y015355D03*
X039447Y015255D03*
X039447Y015155D03*
X039447Y015055D03*
X039447Y014955D03*
X039447Y014855D03*
X039447Y014755D03*
X039447Y014655D03*
X039447Y014555D03*
X039447Y014455D03*
X039447Y014355D03*
X039447Y014255D03*
X039447Y014155D03*
X039447Y014055D03*
X039447Y013955D03*
X039447Y013855D03*
X039447Y013755D03*
X039447Y013655D03*
X039447Y013555D03*
X039447Y013455D03*
X039447Y013355D03*
X020847Y013355D03*
X020847Y013455D03*
X020847Y013555D03*
X020847Y013655D03*
X020847Y013755D03*
X020847Y013855D03*
X020847Y013955D03*
X020847Y014055D03*
X020847Y014155D03*
X020847Y014255D03*
X020847Y014355D03*
X020847Y014455D03*
X020847Y014555D03*
X020847Y014655D03*
X020847Y014755D03*
X020847Y014855D03*
X020847Y014955D03*
X020847Y015055D03*
X020847Y015155D03*
X020847Y015255D03*
X020847Y015355D03*
X019447Y015355D03*
X019447Y015255D03*
X019447Y015155D03*
X019447Y015055D03*
X019447Y014955D03*
X019447Y014855D03*
X019447Y014755D03*
X019447Y014655D03*
X019447Y014555D03*
X019447Y014455D03*
X019447Y014355D03*
X019447Y014255D03*
X019447Y014155D03*
X019447Y014055D03*
X019447Y013955D03*
X019447Y013855D03*
X019447Y013755D03*
X019447Y013655D03*
X019447Y013555D03*
X019447Y013455D03*
X019447Y013355D03*
X000847Y013355D03*
X000847Y013455D03*
X000847Y013555D03*
X000847Y013655D03*
X000847Y013755D03*
X000847Y013855D03*
X000847Y013955D03*
X000847Y014055D03*
X000847Y014155D03*
X000847Y014255D03*
X000847Y014355D03*
X000847Y014455D03*
X000847Y014555D03*
X000847Y014655D03*
X000847Y014755D03*
X000847Y014855D03*
X000847Y014955D03*
X000847Y015055D03*
X000847Y015155D03*
X000847Y015255D03*
X000847Y015355D03*
D38*
X013163Y013544D03*
X017397Y014166D03*
X017408Y014133D03*
X017408Y014122D03*
X017419Y014088D03*
X017419Y014077D03*
X017441Y014000D03*
X017441Y013988D03*
X017441Y013977D03*
X017452Y013944D03*
X017452Y013933D03*
X017452Y013922D03*
X017463Y013911D03*
X018263Y014333D03*
X033163Y013544D03*
X037397Y014166D03*
X037408Y014133D03*
X037408Y014122D03*
X037419Y014088D03*
X037419Y014077D03*
X037441Y014000D03*
X037441Y013988D03*
X037441Y013977D03*
X037452Y013944D03*
X037452Y013933D03*
X037452Y013922D03*
X037463Y013911D03*
X038263Y014333D03*
D39*
X037575Y013655D03*
X036986Y013655D03*
X033164Y013555D03*
X017575Y013655D03*
X016986Y013655D03*
X013164Y013555D03*
D40*
X014436Y013555D03*
X015225Y013555D03*
X017425Y014055D03*
X034436Y013555D03*
X035225Y013555D03*
X037425Y014055D03*
D41*
X038347Y013555D03*
X035814Y013555D03*
X018347Y013555D03*
X015814Y013555D03*
D42*
X015214Y013577D03*
X016047Y014566D03*
X017292Y014233D03*
X017292Y014222D03*
X017292Y014211D03*
X013169Y013566D03*
X033169Y013566D03*
X035214Y013577D03*
X036047Y014566D03*
X037292Y014233D03*
X037292Y014222D03*
X037292Y014211D03*
D43*
X038241Y013777D03*
X035708Y013777D03*
X034441Y013566D03*
X033541Y014677D03*
X033163Y014966D03*
X032797Y014688D03*
X032797Y013833D03*
X018241Y013777D03*
X015708Y013777D03*
X014441Y013566D03*
X013541Y014677D03*
X013163Y014966D03*
X012797Y014688D03*
X012797Y013833D03*
D44*
X013536Y013844D03*
X015236Y013566D03*
X015825Y013588D03*
X033536Y013844D03*
X035236Y013566D03*
X035825Y013588D03*
D45*
X035819Y013566D03*
X037719Y013977D03*
X037719Y013988D03*
X037719Y014000D03*
X037719Y014011D03*
X037741Y014077D03*
X017741Y014077D03*
X017719Y014011D03*
X017719Y014000D03*
X017719Y013988D03*
X017719Y013977D03*
X015819Y013566D03*
D46*
X015669Y013833D03*
X015669Y013844D03*
X015669Y013866D03*
X015669Y013877D03*
X015680Y013922D03*
X015691Y013944D03*
X016313Y013700D03*
X016313Y013688D03*
X016313Y013677D03*
X016313Y013666D03*
X016313Y013644D03*
X016313Y013633D03*
X016313Y013622D03*
X016324Y013611D03*
X016324Y013600D03*
X016324Y013588D03*
X016324Y013577D03*
X016336Y013566D03*
X016980Y013600D03*
X017580Y013600D03*
X018202Y013822D03*
X018202Y013833D03*
X018213Y013933D03*
X018224Y013944D03*
X018836Y013944D03*
X018836Y013933D03*
X018836Y013922D03*
X018836Y013911D03*
X018836Y013900D03*
X018836Y013888D03*
X018836Y013877D03*
X018836Y013866D03*
X018836Y013966D03*
X018836Y013977D03*
X018836Y013988D03*
X018836Y014000D03*
X018836Y014011D03*
X018836Y014022D03*
X018836Y014033D03*
X018836Y014044D03*
X018836Y014222D03*
X018836Y014233D03*
X018836Y014244D03*
X018836Y014266D03*
X018836Y014277D03*
X018824Y014300D03*
X018824Y014311D03*
X018836Y013700D03*
X018836Y013688D03*
X018836Y013677D03*
X018836Y013666D03*
X018847Y013644D03*
X018847Y013633D03*
X018847Y013622D03*
X018847Y013611D03*
X018847Y013600D03*
X018858Y013588D03*
X018858Y013577D03*
X018858Y013566D03*
X017291Y014433D03*
X017291Y014444D03*
X016769Y014322D03*
X016758Y014366D03*
X016747Y014400D03*
X016747Y014411D03*
X016747Y014422D03*
X016736Y014433D03*
X016736Y014444D03*
X016736Y014466D03*
X016724Y014477D03*
X016724Y014488D03*
X016724Y014500D03*
X016713Y014522D03*
X016713Y014533D03*
X016713Y014544D03*
X016702Y014566D03*
X016291Y014322D03*
X016302Y014300D03*
X016302Y014288D03*
X016302Y014277D03*
X015024Y014277D03*
X015024Y014266D03*
X015024Y014244D03*
X015024Y014233D03*
X015024Y014222D03*
X015024Y014211D03*
X015024Y014200D03*
X015024Y014188D03*
X015024Y014177D03*
X015024Y014166D03*
X015024Y014144D03*
X015024Y014133D03*
X015024Y014122D03*
X015024Y014111D03*
X015024Y014100D03*
X015024Y014088D03*
X015024Y014077D03*
X015024Y014066D03*
X015024Y014044D03*
X015024Y014033D03*
X015024Y014022D03*
X015024Y014011D03*
X015024Y014000D03*
X015024Y013988D03*
X015024Y013977D03*
X015024Y013966D03*
X015024Y013944D03*
X015024Y013933D03*
X015024Y013922D03*
X015024Y013911D03*
X015024Y013900D03*
X015024Y013888D03*
X015024Y013877D03*
X015024Y013866D03*
X015024Y014288D03*
X015024Y014300D03*
X015024Y014311D03*
X015024Y014322D03*
X015024Y014333D03*
X015024Y014344D03*
X015024Y014577D03*
X015024Y014588D03*
X015024Y014600D03*
X015024Y014611D03*
X015024Y014622D03*
X015024Y014633D03*
X015024Y014644D03*
X015024Y014666D03*
X015024Y014677D03*
X015024Y014688D03*
X015024Y014700D03*
X015024Y014711D03*
X015024Y014722D03*
X015024Y014733D03*
X015024Y014744D03*
X015024Y014766D03*
X015024Y014777D03*
X015024Y014788D03*
X015024Y014800D03*
X015024Y014811D03*
X015024Y014822D03*
X015024Y014833D03*
X015024Y014844D03*
X015024Y014866D03*
X015024Y014877D03*
X015024Y014888D03*
X015024Y014900D03*
X015024Y014911D03*
X014236Y014911D03*
X014236Y014900D03*
X014236Y014888D03*
X014236Y014877D03*
X014236Y014866D03*
X014236Y014844D03*
X014236Y014833D03*
X014236Y014822D03*
X014236Y014811D03*
X014236Y014800D03*
X014236Y014788D03*
X014236Y014777D03*
X014236Y014766D03*
X014236Y014744D03*
X014236Y014733D03*
X014236Y014722D03*
X014236Y014711D03*
X014236Y014700D03*
X014236Y014688D03*
X014236Y014677D03*
X014236Y014666D03*
X014236Y014644D03*
X014236Y014633D03*
X014236Y014622D03*
X014236Y014611D03*
X014236Y014600D03*
X014236Y014588D03*
X014236Y014577D03*
X014236Y014344D03*
X014236Y014333D03*
X014236Y014322D03*
X014236Y014311D03*
X014236Y014300D03*
X014236Y014288D03*
X014236Y014277D03*
X014236Y014266D03*
X014236Y014244D03*
X014236Y014233D03*
X014236Y014222D03*
X014236Y014211D03*
X014236Y014200D03*
X014236Y014188D03*
X014236Y014177D03*
X014236Y014166D03*
X014236Y014144D03*
X014236Y014133D03*
X014236Y014122D03*
X014236Y014111D03*
X014236Y014100D03*
X014236Y014088D03*
X014236Y014077D03*
X014236Y014066D03*
X014236Y014044D03*
X014236Y014033D03*
X014236Y014022D03*
X014236Y014011D03*
X014236Y014000D03*
X014236Y013988D03*
X014236Y013977D03*
X014236Y013966D03*
X014236Y013944D03*
X014236Y013933D03*
X014236Y013922D03*
X014236Y013911D03*
X014236Y013900D03*
X014236Y013888D03*
X014236Y013877D03*
X014236Y013866D03*
X013658Y014111D03*
X013669Y014177D03*
X013669Y014188D03*
X013669Y014200D03*
X013669Y014211D03*
X013669Y014222D03*
X013669Y014233D03*
X013669Y014244D03*
X013669Y014266D03*
X013669Y014277D03*
X013669Y014288D03*
X013669Y014300D03*
X013669Y014311D03*
X013669Y014322D03*
X013669Y014333D03*
X013669Y014344D03*
X013658Y014422D03*
X012669Y014411D03*
X012658Y014322D03*
X012658Y014311D03*
X012658Y014300D03*
X012658Y014288D03*
X012658Y014277D03*
X012658Y014266D03*
X012658Y014244D03*
X012658Y014233D03*
X012658Y014222D03*
X012658Y014211D03*
X012658Y014200D03*
X032658Y014233D03*
X032658Y014244D03*
X032658Y014266D03*
X032658Y014277D03*
X032658Y014288D03*
X032658Y014300D03*
X032658Y014311D03*
X032658Y014322D03*
X032669Y014411D03*
X032658Y014222D03*
X032658Y014211D03*
X032658Y014200D03*
X033658Y014111D03*
X033669Y014177D03*
X033669Y014188D03*
X033669Y014200D03*
X033669Y014211D03*
X033669Y014222D03*
X033669Y014233D03*
X033669Y014244D03*
X033669Y014266D03*
X033669Y014277D03*
X033669Y014288D03*
X033669Y014300D03*
X033669Y014311D03*
X033669Y014322D03*
X033669Y014333D03*
X033669Y014344D03*
X033658Y014422D03*
X034236Y014344D03*
X034236Y014333D03*
X034236Y014322D03*
X034236Y014311D03*
X034236Y014300D03*
X034236Y014288D03*
X034236Y014277D03*
X034236Y014266D03*
X034236Y014244D03*
X034236Y014233D03*
X034236Y014222D03*
X034236Y014211D03*
X034236Y014200D03*
X034236Y014188D03*
X034236Y014177D03*
X034236Y014166D03*
X034236Y014144D03*
X034236Y014133D03*
X034236Y014122D03*
X034236Y014111D03*
X034236Y014100D03*
X034236Y014088D03*
X034236Y014077D03*
X034236Y014066D03*
X034236Y014044D03*
X034236Y014033D03*
X034236Y014022D03*
X034236Y014011D03*
X034236Y014000D03*
X034236Y013988D03*
X034236Y013977D03*
X034236Y013966D03*
X034236Y013944D03*
X034236Y013933D03*
X034236Y013922D03*
X034236Y013911D03*
X034236Y013900D03*
X034236Y013888D03*
X034236Y013877D03*
X034236Y013866D03*
X034236Y014577D03*
X034236Y014588D03*
X034236Y014600D03*
X034236Y014611D03*
X034236Y014622D03*
X034236Y014633D03*
X034236Y014644D03*
X034236Y014666D03*
X034236Y014677D03*
X034236Y014688D03*
X034236Y014700D03*
X034236Y014711D03*
X034236Y014722D03*
X034236Y014733D03*
X034236Y014744D03*
X034236Y014766D03*
X034236Y014777D03*
X034236Y014788D03*
X034236Y014800D03*
X034236Y014811D03*
X034236Y014822D03*
X034236Y014833D03*
X034236Y014844D03*
X034236Y014866D03*
X034236Y014877D03*
X034236Y014888D03*
X034236Y014900D03*
X034236Y014911D03*
X035024Y014911D03*
X035024Y014900D03*
X035024Y014888D03*
X035024Y014877D03*
X035024Y014866D03*
X035024Y014844D03*
X035024Y014833D03*
X035024Y014822D03*
X035024Y014811D03*
X035024Y014800D03*
X035024Y014788D03*
X035024Y014777D03*
X035024Y014766D03*
X035024Y014744D03*
X035024Y014733D03*
X035024Y014722D03*
X035024Y014711D03*
X035024Y014700D03*
X035024Y014688D03*
X035024Y014677D03*
X035024Y014666D03*
X035024Y014644D03*
X035024Y014633D03*
X035024Y014622D03*
X035024Y014611D03*
X035024Y014600D03*
X035024Y014588D03*
X035024Y014577D03*
X035024Y014344D03*
X035024Y014333D03*
X035024Y014322D03*
X035024Y014311D03*
X035024Y014300D03*
X035024Y014288D03*
X035024Y014277D03*
X035024Y014266D03*
X035024Y014244D03*
X035024Y014233D03*
X035024Y014222D03*
X035024Y014211D03*
X035024Y014200D03*
X035024Y014188D03*
X035024Y014177D03*
X035024Y014166D03*
X035024Y014144D03*
X035024Y014133D03*
X035024Y014122D03*
X035024Y014111D03*
X035024Y014100D03*
X035024Y014088D03*
X035024Y014077D03*
X035024Y014066D03*
X035024Y014044D03*
X035024Y014033D03*
X035024Y014022D03*
X035024Y014011D03*
X035024Y014000D03*
X035024Y013988D03*
X035024Y013977D03*
X035024Y013966D03*
X035024Y013944D03*
X035024Y013933D03*
X035024Y013922D03*
X035024Y013911D03*
X035024Y013900D03*
X035024Y013888D03*
X035024Y013877D03*
X035024Y013866D03*
X035669Y013866D03*
X035669Y013877D03*
X035669Y013844D03*
X035669Y013833D03*
X035680Y013922D03*
X035691Y013944D03*
X036313Y013700D03*
X036313Y013688D03*
X036313Y013677D03*
X036313Y013666D03*
X036313Y013644D03*
X036313Y013633D03*
X036313Y013622D03*
X036324Y013611D03*
X036324Y013600D03*
X036324Y013588D03*
X036324Y013577D03*
X036336Y013566D03*
X036980Y013600D03*
X037580Y013600D03*
X038202Y013822D03*
X038202Y013833D03*
X038213Y013933D03*
X038224Y013944D03*
X038836Y013944D03*
X038836Y013933D03*
X038836Y013922D03*
X038836Y013911D03*
X038836Y013900D03*
X038836Y013888D03*
X038836Y013877D03*
X038836Y013866D03*
X038836Y013966D03*
X038836Y013977D03*
X038836Y013988D03*
X038836Y014000D03*
X038836Y014011D03*
X038836Y014022D03*
X038836Y014033D03*
X038836Y014044D03*
X038836Y014222D03*
X038836Y014233D03*
X038836Y014244D03*
X038836Y014266D03*
X038836Y014277D03*
X038824Y014300D03*
X038824Y014311D03*
X038836Y013700D03*
X038836Y013688D03*
X038836Y013677D03*
X038836Y013666D03*
X038847Y013644D03*
X038847Y013633D03*
X038847Y013622D03*
X038847Y013611D03*
X038847Y013600D03*
X038858Y013588D03*
X038858Y013577D03*
X038858Y013566D03*
X037291Y014433D03*
X037291Y014444D03*
X036769Y014322D03*
X036758Y014366D03*
X036747Y014400D03*
X036747Y014411D03*
X036747Y014422D03*
X036736Y014433D03*
X036736Y014444D03*
X036736Y014466D03*
X036724Y014477D03*
X036724Y014488D03*
X036724Y014500D03*
X036713Y014522D03*
X036713Y014533D03*
X036713Y014544D03*
X036702Y014566D03*
X036291Y014322D03*
X036302Y014300D03*
X036302Y014288D03*
X036302Y014277D03*
D47*
X036308Y014266D03*
X036308Y014244D03*
X036308Y014233D03*
X036308Y014222D03*
X036308Y014044D03*
X036308Y014033D03*
X036308Y014022D03*
X036308Y014011D03*
X036308Y014000D03*
X036308Y013988D03*
X036308Y013977D03*
X036308Y013966D03*
X036308Y013944D03*
X036308Y013933D03*
X036308Y013922D03*
X036308Y013911D03*
X036308Y013900D03*
X036308Y013888D03*
X036308Y013877D03*
X036308Y013866D03*
X035686Y013933D03*
X035675Y013911D03*
X035675Y013900D03*
X035675Y013888D03*
X036786Y014244D03*
X036786Y014266D03*
X036786Y014277D03*
X036775Y014288D03*
X036775Y014300D03*
X036775Y014311D03*
X036753Y014377D03*
X036753Y014388D03*
X036808Y014188D03*
X036808Y014177D03*
X036808Y014166D03*
X037286Y014466D03*
X037575Y013588D03*
X037575Y013577D03*
X037575Y013566D03*
X038208Y013911D03*
X038208Y013922D03*
X036986Y013588D03*
X036986Y013577D03*
X036986Y013566D03*
X018208Y013911D03*
X018208Y013922D03*
X017575Y013588D03*
X017575Y013577D03*
X017575Y013566D03*
X016986Y013566D03*
X016986Y013577D03*
X016986Y013588D03*
X016808Y014166D03*
X016808Y014177D03*
X016808Y014188D03*
X016786Y014244D03*
X016786Y014266D03*
X016786Y014277D03*
X016775Y014288D03*
X016775Y014300D03*
X016775Y014311D03*
X016753Y014377D03*
X016753Y014388D03*
X017286Y014466D03*
X016308Y014266D03*
X016308Y014244D03*
X016308Y014233D03*
X016308Y014222D03*
X016308Y014044D03*
X016308Y014033D03*
X016308Y014022D03*
X016308Y014011D03*
X016308Y014000D03*
X016308Y013988D03*
X016308Y013977D03*
X016308Y013966D03*
X016308Y013944D03*
X016308Y013933D03*
X016308Y013922D03*
X016308Y013911D03*
X016308Y013900D03*
X016308Y013888D03*
X016308Y013877D03*
X016308Y013866D03*
X015686Y013933D03*
X015675Y013911D03*
X015675Y013900D03*
X015675Y013888D03*
D48*
X017736Y014066D03*
X017747Y014088D03*
X017747Y014100D03*
X017747Y014111D03*
X017814Y014333D03*
X017814Y014344D03*
X017825Y014377D03*
X017825Y014388D03*
X017836Y014422D03*
X017847Y014466D03*
X018347Y013566D03*
X037736Y014066D03*
X037747Y014088D03*
X037747Y014100D03*
X037747Y014111D03*
X037814Y014333D03*
X037814Y014344D03*
X037825Y014377D03*
X037825Y014388D03*
X037836Y014422D03*
X037847Y014466D03*
X038347Y013566D03*
D49*
X036213Y013777D03*
X034391Y013622D03*
X033169Y013577D03*
X016213Y013777D03*
X014391Y013622D03*
X013169Y013577D03*
D50*
X013503Y014711D03*
X012825Y014711D03*
X014425Y013577D03*
X032825Y014711D03*
X033503Y014711D03*
X034425Y013577D03*
D51*
X034242Y013822D03*
X034242Y013833D03*
X034242Y013844D03*
X033642Y014022D03*
X033642Y014033D03*
X033642Y014044D03*
X033664Y014122D03*
X033664Y014133D03*
X033664Y014144D03*
X033664Y014166D03*
X033664Y014366D03*
X033664Y014377D03*
X033664Y014388D03*
X033664Y014400D03*
X033664Y014411D03*
X033642Y014477D03*
X033642Y014488D03*
X033642Y014500D03*
X032697Y014522D03*
X032664Y014400D03*
X032664Y014388D03*
X032664Y014377D03*
X032664Y014366D03*
X032664Y014344D03*
X032664Y014333D03*
X032664Y014188D03*
X032664Y014177D03*
X032664Y014166D03*
X032664Y014144D03*
X032664Y014133D03*
X032664Y014122D03*
X032697Y014011D03*
X035719Y013977D03*
X035819Y013577D03*
X036297Y013844D03*
X036297Y014311D03*
X036719Y014511D03*
X038242Y013966D03*
X038819Y014322D03*
X018819Y014322D03*
X018242Y013966D03*
X016719Y014511D03*
X016297Y014311D03*
X016297Y013844D03*
X015819Y013577D03*
X015719Y013977D03*
X014242Y013844D03*
X014242Y013833D03*
X014242Y013822D03*
X013642Y014022D03*
X013642Y014033D03*
X013642Y014044D03*
X013664Y014122D03*
X013664Y014133D03*
X013664Y014144D03*
X013664Y014166D03*
X013664Y014366D03*
X013664Y014377D03*
X013664Y014388D03*
X013664Y014400D03*
X013664Y014411D03*
X013642Y014477D03*
X013642Y014488D03*
X013642Y014500D03*
X012697Y014522D03*
X012664Y014400D03*
X012664Y014388D03*
X012664Y014377D03*
X012664Y014366D03*
X012664Y014344D03*
X012664Y014333D03*
X012664Y014188D03*
X012664Y014177D03*
X012664Y014166D03*
X012664Y014144D03*
X012664Y014133D03*
X012664Y014122D03*
X012697Y014011D03*
D52*
X012686Y014033D03*
X012686Y014044D03*
X012675Y014066D03*
X012675Y014077D03*
X012675Y014088D03*
X012675Y014100D03*
X012675Y014111D03*
X012675Y014422D03*
X012675Y014433D03*
X012675Y014444D03*
X012686Y014477D03*
X012686Y014488D03*
X013653Y014466D03*
X013653Y014444D03*
X013653Y014433D03*
X013653Y014100D03*
X013653Y014088D03*
X013653Y014077D03*
X013653Y014066D03*
X015675Y013822D03*
X015708Y013966D03*
X016286Y014333D03*
X016053Y014577D03*
X017286Y014422D03*
X016986Y013633D03*
X016986Y013622D03*
X016986Y013611D03*
X017575Y013611D03*
X017575Y013622D03*
X018208Y013811D03*
X018353Y013577D03*
X032675Y014066D03*
X032675Y014077D03*
X032675Y014088D03*
X032675Y014100D03*
X032675Y014111D03*
X032686Y014044D03*
X032686Y014033D03*
X032675Y014422D03*
X032675Y014433D03*
X032675Y014444D03*
X032686Y014477D03*
X032686Y014488D03*
X033653Y014466D03*
X033653Y014444D03*
X033653Y014433D03*
X033653Y014100D03*
X033653Y014088D03*
X033653Y014077D03*
X033653Y014066D03*
X035675Y013822D03*
X035708Y013966D03*
X036286Y014333D03*
X036053Y014577D03*
X037286Y014422D03*
X036986Y013633D03*
X036986Y013622D03*
X036986Y013611D03*
X037575Y013611D03*
X037575Y013622D03*
X038208Y013811D03*
X038353Y013577D03*
D53*
X034364Y013700D03*
X034364Y013711D03*
X034364Y013722D03*
X034364Y013733D03*
X033164Y013588D03*
X014364Y013700D03*
X014364Y013711D03*
X014364Y013722D03*
X014364Y013733D03*
X013164Y013588D03*
D54*
X012847Y014722D03*
X014414Y013588D03*
X015814Y014033D03*
X018347Y014033D03*
X032847Y014722D03*
X034414Y013588D03*
X035814Y014033D03*
X038347Y014033D03*
D55*
X038358Y013611D03*
X035203Y013588D03*
X018358Y013611D03*
X015203Y013588D03*
D56*
X013552Y014666D03*
X018352Y013588D03*
X033552Y014666D03*
X038352Y013588D03*
D57*
X035841Y013677D03*
X033163Y013600D03*
X015841Y013677D03*
X013163Y013600D03*
D58*
X013458Y013788D03*
X014402Y013600D03*
X016980Y013877D03*
X016980Y013888D03*
X017580Y013888D03*
X017580Y013877D03*
X018358Y013622D03*
X018758Y014200D03*
X033458Y013788D03*
X034402Y013600D03*
X036980Y013877D03*
X036980Y013888D03*
X037580Y013888D03*
X037580Y013877D03*
X038358Y013622D03*
X038758Y014200D03*
D59*
X035191Y013600D03*
X032869Y013788D03*
X015191Y013600D03*
X012869Y013788D03*
D60*
X015825Y013600D03*
X016258Y013800D03*
X035825Y013600D03*
X036258Y013800D03*
D61*
X035786Y014022D03*
X037297Y014244D03*
X038319Y014022D03*
X038352Y013600D03*
X038574Y014566D03*
X033497Y013811D03*
X032830Y013811D03*
X018574Y014566D03*
X018319Y014022D03*
X018352Y013600D03*
X017297Y014244D03*
X015786Y014022D03*
X013497Y013811D03*
X012830Y013811D03*
D62*
X013163Y013611D03*
X033163Y013611D03*
D63*
X032875Y014733D03*
X034397Y013611D03*
X035186Y013611D03*
X036975Y013900D03*
X037586Y013900D03*
X017586Y013900D03*
X016975Y013900D03*
X015186Y013611D03*
X014397Y013611D03*
X012875Y014733D03*
D64*
X015830Y013611D03*
X035830Y013611D03*
D65*
X033164Y013622D03*
X013164Y013622D03*
D66*
X015180Y013622D03*
X018380Y014044D03*
X035180Y013622D03*
X038380Y014044D03*
D67*
X035830Y013622D03*
X015830Y013622D03*
D68*
X016019Y014488D03*
X018542Y014488D03*
X013164Y013633D03*
X033164Y013633D03*
X036019Y014488D03*
X038542Y014488D03*
D69*
X035853Y014044D03*
X035175Y013633D03*
X034386Y013633D03*
X015853Y014044D03*
X015175Y013633D03*
X014386Y013633D03*
D70*
X015830Y013633D03*
X035830Y013633D03*
D71*
X035680Y013811D03*
X036980Y013644D03*
X037580Y013644D03*
X037580Y013633D03*
X038580Y014577D03*
X032680Y014466D03*
X018580Y014577D03*
X017580Y013644D03*
X017580Y013633D03*
X016980Y013644D03*
X015680Y013811D03*
X012680Y014466D03*
D72*
X018364Y013633D03*
X018742Y013777D03*
X038364Y013633D03*
X038742Y013777D03*
D73*
X035075Y014366D03*
X035075Y014377D03*
X035075Y014388D03*
X035075Y014400D03*
X035075Y014411D03*
X035075Y014422D03*
X035075Y014433D03*
X035075Y014444D03*
X035075Y014466D03*
X035075Y014477D03*
X035075Y014488D03*
X035075Y014500D03*
X035075Y014511D03*
X035075Y014522D03*
X035075Y014533D03*
X035075Y014544D03*
X035075Y014566D03*
X033164Y014888D03*
X033164Y013644D03*
X015075Y014366D03*
X015075Y014377D03*
X015075Y014388D03*
X015075Y014400D03*
X015075Y014411D03*
X015075Y014422D03*
X015075Y014433D03*
X015075Y014444D03*
X015075Y014466D03*
X015075Y014477D03*
X015075Y014488D03*
X015075Y014500D03*
X015075Y014511D03*
X015075Y014522D03*
X015075Y014533D03*
X015075Y014544D03*
X015075Y014566D03*
X013164Y014888D03*
X013164Y013644D03*
D74*
X014380Y013644D03*
X015169Y013644D03*
X034380Y013644D03*
X035169Y013644D03*
D75*
X035830Y013644D03*
X038730Y014188D03*
X018730Y014188D03*
X015830Y013644D03*
D76*
X015164Y013666D03*
X016197Y014188D03*
X018364Y013644D03*
X013164Y014944D03*
X033164Y014944D03*
X035164Y013666D03*
X036197Y014188D03*
X038364Y013644D03*
D77*
X033163Y013655D03*
X013163Y013655D03*
D78*
X014375Y013655D03*
X034375Y013655D03*
D79*
X035164Y013655D03*
X015164Y013655D03*
D80*
X015841Y013655D03*
X035841Y013655D03*
D81*
X035669Y013855D03*
X036302Y013855D03*
X036313Y013655D03*
X036736Y014455D03*
X037291Y014455D03*
X038224Y013955D03*
X038836Y013955D03*
X038847Y013655D03*
X038836Y014255D03*
X035024Y014255D03*
X035024Y014155D03*
X035024Y014055D03*
X035024Y013955D03*
X035024Y014655D03*
X035024Y014755D03*
X035024Y014855D03*
X034236Y014855D03*
X034236Y014755D03*
X034236Y014655D03*
X034236Y014255D03*
X034236Y014155D03*
X034236Y014055D03*
X034236Y013955D03*
X034236Y013855D03*
X033669Y014255D03*
X033669Y014355D03*
X032658Y014255D03*
X018836Y014255D03*
X018836Y013955D03*
X018847Y013655D03*
X018224Y013955D03*
X017291Y014455D03*
X016736Y014455D03*
X016302Y013855D03*
X016313Y013655D03*
X015669Y013855D03*
X015024Y013955D03*
X015024Y014055D03*
X015024Y014155D03*
X015024Y014255D03*
X015024Y014655D03*
X015024Y014755D03*
X015024Y014855D03*
X014236Y014855D03*
X014236Y014755D03*
X014236Y014655D03*
X014236Y014255D03*
X014236Y014155D03*
X014236Y014055D03*
X014236Y013955D03*
X014236Y013855D03*
X013669Y014255D03*
X013669Y014355D03*
X012658Y014255D03*
D82*
X018364Y013655D03*
X038364Y013655D03*
D83*
X038530Y014444D03*
X036052Y014077D03*
X035997Y014444D03*
X033163Y013666D03*
X018530Y014444D03*
X016052Y014077D03*
X015997Y014444D03*
X013163Y013666D03*
D84*
X014375Y013666D03*
X034375Y013666D03*
D85*
X035841Y013666D03*
X015841Y013666D03*
D86*
X015686Y013800D03*
X016275Y014344D03*
X016986Y013666D03*
X017575Y013666D03*
X018264Y013988D03*
X013597Y013922D03*
X013586Y013911D03*
X013575Y013888D03*
X013597Y014600D03*
X013586Y014622D03*
X033586Y014622D03*
X033597Y014600D03*
X033597Y013922D03*
X033586Y013911D03*
X033575Y013888D03*
X035686Y013800D03*
X036275Y014344D03*
X036986Y013666D03*
X037575Y013666D03*
X038264Y013988D03*
D87*
X038364Y013666D03*
X036175Y014177D03*
X033164Y014933D03*
X018364Y013666D03*
X016175Y014177D03*
X013164Y014933D03*
D88*
X013163Y013677D03*
X015997Y014433D03*
X033163Y013677D03*
X035997Y014433D03*
D89*
X035158Y013700D03*
X035158Y013688D03*
X035158Y013677D03*
X034369Y013677D03*
X034369Y013688D03*
X038569Y014544D03*
X018569Y014544D03*
X015158Y013700D03*
X015158Y013688D03*
X015158Y013677D03*
X014369Y013677D03*
X014369Y013688D03*
D90*
X014258Y013788D03*
X013580Y013900D03*
X013558Y013866D03*
X013580Y014633D03*
X012758Y014644D03*
X012758Y013888D03*
X016280Y013822D03*
X016980Y013688D03*
X016980Y013677D03*
X017580Y013677D03*
X017580Y013688D03*
X032758Y013888D03*
X032758Y014644D03*
X033580Y014633D03*
X033580Y013900D03*
X033558Y013866D03*
X034258Y013788D03*
X036280Y013822D03*
X036980Y013688D03*
X036980Y013677D03*
X037580Y013677D03*
X037580Y013688D03*
D91*
X038369Y013677D03*
X018369Y013677D03*
D92*
X013164Y013688D03*
X013164Y014833D03*
X033164Y014833D03*
X033164Y013688D03*
D93*
X035847Y013688D03*
X038369Y013688D03*
X018369Y013688D03*
X015847Y013688D03*
D94*
X013164Y013700D03*
X013164Y014822D03*
X033164Y014822D03*
X033164Y013700D03*
D95*
X035847Y013700D03*
X015847Y013700D03*
D96*
X016275Y014211D03*
X016986Y013700D03*
X017575Y013700D03*
X018275Y014000D03*
X012775Y013866D03*
X012764Y013877D03*
X032764Y013877D03*
X032775Y013866D03*
X036275Y014211D03*
X036986Y013700D03*
X037575Y013700D03*
X038275Y014000D03*
D97*
X038374Y013700D03*
X036152Y014166D03*
X033163Y014922D03*
X018374Y013700D03*
X016152Y014166D03*
X013163Y014922D03*
D98*
X013164Y014811D03*
X013164Y013711D03*
X033164Y013711D03*
X033164Y014811D03*
D99*
X035153Y013744D03*
X035153Y013733D03*
X035153Y013722D03*
X035153Y013711D03*
X015153Y013744D03*
X015153Y013733D03*
X015153Y013722D03*
X015153Y013711D03*
D100*
X015991Y013733D03*
X015991Y013744D03*
X016002Y013711D03*
X035991Y013744D03*
X035991Y013733D03*
X036002Y013711D03*
D101*
X036980Y013711D03*
X036980Y013722D03*
X036980Y013733D03*
X037580Y013733D03*
X037580Y013722D03*
X037580Y013711D03*
X032780Y014666D03*
X017580Y013733D03*
X017580Y013722D03*
X017580Y013711D03*
X016980Y013711D03*
X016980Y013722D03*
X016980Y013733D03*
X012780Y014666D03*
D102*
X018525Y013733D03*
X018525Y013722D03*
X018525Y013711D03*
X038525Y013733D03*
X038525Y013722D03*
X038525Y013711D03*
D103*
X035997Y013722D03*
X035986Y013766D03*
X033164Y013722D03*
X033164Y014800D03*
X015997Y013722D03*
X015986Y013766D03*
X013164Y013722D03*
X013164Y014800D03*
D104*
X013164Y014788D03*
X013164Y013733D03*
X033164Y013733D03*
X033164Y014788D03*
D105*
X033163Y014777D03*
X033163Y013744D03*
X013163Y013744D03*
X013163Y014777D03*
D106*
X014358Y013766D03*
X014358Y013744D03*
X034358Y013766D03*
X034358Y013744D03*
D107*
X036986Y013744D03*
X037575Y013744D03*
X017575Y013744D03*
X016986Y013744D03*
D108*
X018519Y013744D03*
X018519Y013766D03*
X038519Y013766D03*
X038519Y013744D03*
D109*
X033163Y013755D03*
X013163Y013755D03*
D110*
X014358Y013755D03*
X034358Y013755D03*
D111*
X035153Y013755D03*
X015153Y013755D03*
D112*
X015991Y013755D03*
X035991Y013755D03*
D113*
X036980Y013755D03*
X037580Y013755D03*
X017580Y013755D03*
X016980Y013755D03*
D114*
X018519Y013755D03*
X038519Y013755D03*
D115*
X033163Y013766D03*
X033163Y014766D03*
X013163Y014766D03*
X013163Y013766D03*
D116*
X015147Y013766D03*
X035147Y013766D03*
D117*
X036980Y013777D03*
X036980Y013766D03*
X037580Y013766D03*
X037580Y013777D03*
X017580Y013777D03*
X017580Y013766D03*
X016980Y013766D03*
X016980Y013777D03*
D118*
X013163Y013777D03*
X033163Y013777D03*
D119*
X032791Y013844D03*
X032791Y014677D03*
X034269Y013777D03*
X035769Y014011D03*
X036269Y013811D03*
X037291Y014300D03*
X037291Y014311D03*
X037291Y014322D03*
X037291Y014333D03*
X038291Y014011D03*
X018291Y014011D03*
X017291Y014300D03*
X017291Y014311D03*
X017291Y014322D03*
X017291Y014333D03*
X016269Y013811D03*
X015769Y014011D03*
X014269Y013777D03*
X012791Y013844D03*
X012791Y014677D03*
D120*
X014625Y013777D03*
X034625Y013777D03*
D121*
X035058Y013777D03*
X038803Y013811D03*
X038803Y014211D03*
X018803Y014211D03*
X018803Y013811D03*
X015058Y013777D03*
D122*
X015414Y013777D03*
X015692Y014244D03*
X035414Y013777D03*
X035692Y014244D03*
D123*
X035747Y014000D03*
X035047Y013788D03*
X032747Y013900D03*
X032747Y014622D03*
X032747Y014633D03*
X038225Y013788D03*
X038814Y013822D03*
X018814Y013822D03*
X018225Y013788D03*
X015747Y014000D03*
X015047Y013788D03*
X012747Y013900D03*
X012747Y014622D03*
X012747Y014633D03*
D124*
X013569Y014644D03*
X013591Y014611D03*
X013569Y013877D03*
X015691Y013788D03*
X017291Y014344D03*
X017291Y014366D03*
X017291Y014377D03*
X033569Y014644D03*
X033591Y014611D03*
X033569Y013877D03*
X035691Y013788D03*
X037291Y014344D03*
X037291Y014366D03*
X037291Y014377D03*
D125*
X037297Y014200D03*
X036241Y013788D03*
X032841Y013800D03*
X017297Y014200D03*
X016241Y013788D03*
X012841Y013800D03*
D126*
X016980Y013811D03*
X016980Y013822D03*
X016980Y013800D03*
X016980Y013788D03*
X017580Y013788D03*
X017580Y013800D03*
X017580Y013811D03*
X036980Y013822D03*
X036980Y013811D03*
X036980Y013800D03*
X036980Y013788D03*
X037580Y013788D03*
X037580Y013800D03*
X037580Y013811D03*
D127*
X037586Y013822D03*
X038775Y013788D03*
X033486Y013800D03*
X033486Y014722D03*
X018775Y013788D03*
X017586Y013822D03*
X013486Y013800D03*
X013486Y014722D03*
D128*
X013608Y014577D03*
X013608Y013944D03*
X014253Y013800D03*
X033608Y013944D03*
X034253Y013800D03*
X033608Y014577D03*
D129*
X032741Y014611D03*
X032719Y014577D03*
X032741Y013911D03*
X035041Y013800D03*
X038819Y013833D03*
X018819Y013833D03*
X015041Y013800D03*
X012741Y013911D03*
X012719Y014577D03*
X012741Y014611D03*
D130*
X012713Y014566D03*
X012702Y014544D03*
X012702Y014533D03*
X012691Y014511D03*
X012691Y014500D03*
X012691Y014022D03*
X012702Y014000D03*
X012702Y013988D03*
X012702Y013977D03*
X012713Y013966D03*
X013602Y013933D03*
X013613Y013966D03*
X014247Y013811D03*
X013613Y014566D03*
X013602Y014588D03*
X016291Y013833D03*
X017291Y014388D03*
X017291Y014400D03*
X017291Y014411D03*
X018247Y013977D03*
X018213Y013800D03*
X018802Y014344D03*
X018813Y014333D03*
X032691Y014500D03*
X032691Y014511D03*
X032702Y014533D03*
X032702Y014544D03*
X032713Y014566D03*
X032691Y014022D03*
X032702Y014000D03*
X032702Y013988D03*
X032702Y013977D03*
X032713Y013966D03*
X033602Y013933D03*
X033613Y013966D03*
X034247Y013811D03*
X033613Y014566D03*
X033602Y014588D03*
X036291Y013833D03*
X037291Y014388D03*
X037291Y014400D03*
X037291Y014411D03*
X038247Y013977D03*
X038213Y013800D03*
X038802Y014344D03*
X038813Y014333D03*
D131*
X038792Y013800D03*
X037292Y014266D03*
X037292Y014277D03*
X037292Y014288D03*
X033514Y014700D03*
X032814Y014700D03*
X032814Y013822D03*
X033514Y013822D03*
X018792Y013800D03*
X017292Y014266D03*
X017292Y014277D03*
X017292Y014288D03*
X013514Y014700D03*
X012814Y014700D03*
X012814Y013822D03*
X013514Y013822D03*
D132*
X013625Y013977D03*
X013625Y013988D03*
X013636Y014011D03*
X013636Y014511D03*
X013625Y014533D03*
X013625Y014544D03*
X012725Y014588D03*
X012725Y013944D03*
X015036Y013822D03*
X015036Y013811D03*
X018825Y013844D03*
X032725Y013944D03*
X032725Y014588D03*
X033625Y014544D03*
X033625Y014533D03*
X033636Y014511D03*
X033636Y014011D03*
X033625Y013988D03*
X033625Y013977D03*
X035036Y013822D03*
X035036Y013811D03*
X038825Y013844D03*
D133*
X033530Y013833D03*
X033530Y014688D03*
X013530Y014688D03*
X013530Y013833D03*
D134*
X013630Y014000D03*
X013630Y014522D03*
X015030Y013844D03*
X015030Y013833D03*
X033630Y014000D03*
X033630Y014522D03*
X035030Y013844D03*
X035030Y013833D03*
D135*
X036980Y013844D03*
X036980Y013833D03*
X037580Y013833D03*
X037580Y013844D03*
X017580Y013844D03*
X017580Y013833D03*
X016980Y013833D03*
X016980Y013844D03*
D136*
X016819Y014133D03*
X016819Y014144D03*
X016797Y014211D03*
X016797Y014222D03*
X016797Y014233D03*
X016764Y014333D03*
X016764Y014344D03*
X018197Y013900D03*
X018197Y013888D03*
X018197Y013877D03*
X018197Y013866D03*
X018197Y013844D03*
X013164Y014977D03*
X033164Y014977D03*
X036764Y014344D03*
X036764Y014333D03*
X036797Y014233D03*
X036797Y014222D03*
X036797Y014211D03*
X036819Y014144D03*
X036819Y014133D03*
X038197Y013900D03*
X038197Y013888D03*
X038197Y013877D03*
X038197Y013866D03*
X038197Y013844D03*
D137*
X032780Y013855D03*
X012780Y013855D03*
D138*
X013552Y013855D03*
X033552Y013855D03*
D139*
X035030Y013855D03*
X038830Y013855D03*
X018830Y013855D03*
X015030Y013855D03*
D140*
X016980Y013855D03*
X017580Y013855D03*
X036980Y013855D03*
X037580Y013855D03*
D141*
X038197Y013855D03*
X036764Y014355D03*
X018197Y013855D03*
X016764Y014355D03*
D142*
X016975Y013866D03*
X017586Y013866D03*
X036975Y013866D03*
X037586Y013866D03*
D143*
X037786Y014244D03*
X037797Y014288D03*
X037864Y014511D03*
X037864Y014522D03*
X037864Y014533D03*
X037875Y014566D03*
X038275Y014344D03*
X037286Y014511D03*
X036864Y013966D03*
X036864Y013944D03*
X036875Y013933D03*
X036875Y013922D03*
X036875Y013911D03*
X018275Y014344D03*
X017864Y014511D03*
X017864Y014522D03*
X017864Y014533D03*
X017875Y014566D03*
X017797Y014288D03*
X017786Y014244D03*
X017286Y014511D03*
X016864Y013966D03*
X016864Y013944D03*
X016875Y013933D03*
X016875Y013922D03*
X016875Y013911D03*
D144*
X017114Y013911D03*
X017114Y013922D03*
X037114Y013922D03*
X037114Y013911D03*
D145*
X037403Y014144D03*
X037703Y013933D03*
X037703Y013922D03*
X037703Y013911D03*
X017703Y013933D03*
X017703Y013922D03*
X017703Y013911D03*
X017403Y014144D03*
D146*
X015730Y013988D03*
X012730Y013933D03*
X012730Y013922D03*
X012730Y014600D03*
X032730Y014600D03*
X032730Y013933D03*
X032730Y013922D03*
X035730Y013988D03*
D147*
X035730Y014322D03*
X037130Y014000D03*
X037130Y013988D03*
X037130Y013977D03*
X037119Y013944D03*
X037119Y013933D03*
X037141Y014022D03*
X037141Y014033D03*
X037141Y014044D03*
X037152Y014066D03*
X037152Y014077D03*
X037152Y014088D03*
X037152Y014100D03*
X037163Y014111D03*
X037163Y014122D03*
X037163Y014133D03*
X037163Y014144D03*
X037174Y014166D03*
X017174Y014166D03*
X017163Y014144D03*
X017163Y014133D03*
X017163Y014122D03*
X017163Y014111D03*
X017152Y014100D03*
X017152Y014088D03*
X017152Y014077D03*
X017152Y014066D03*
X017141Y014044D03*
X017141Y014033D03*
X017141Y014022D03*
X017130Y014000D03*
X017130Y013988D03*
X017130Y013977D03*
X017119Y013944D03*
X017119Y013933D03*
X015730Y014322D03*
D148*
X017708Y013944D03*
X017730Y014022D03*
X017730Y014033D03*
X017730Y014044D03*
X017752Y014122D03*
X037708Y013944D03*
X037730Y014022D03*
X037730Y014033D03*
X037730Y014044D03*
X037752Y014122D03*
D149*
X038291Y014355D03*
X035769Y014355D03*
X033647Y014055D03*
X033613Y013955D03*
X032713Y013955D03*
X032713Y014555D03*
X018291Y014355D03*
X015769Y014355D03*
X013647Y014055D03*
X013613Y013955D03*
X012713Y013955D03*
X012713Y014555D03*
D150*
X012664Y014355D03*
X012664Y014155D03*
X013664Y014155D03*
X013619Y014555D03*
X015697Y013955D03*
X032664Y014155D03*
X032664Y014355D03*
X033619Y014555D03*
X033664Y014155D03*
X035697Y013955D03*
D151*
X036308Y013955D03*
X036308Y014255D03*
X036786Y014255D03*
X016786Y014255D03*
X016308Y014255D03*
X016308Y013955D03*
D152*
X016864Y013955D03*
X017875Y014555D03*
X036864Y013955D03*
X037875Y014555D03*
D153*
X037125Y013955D03*
X017125Y013955D03*
D154*
X017452Y013955D03*
X037452Y013955D03*
D155*
X037708Y013955D03*
X017708Y013955D03*
D156*
X018258Y014322D03*
X017136Y014011D03*
X017125Y013966D03*
X037125Y013966D03*
X037136Y014011D03*
X038258Y014322D03*
D157*
X037714Y013966D03*
X037447Y013966D03*
X037436Y014011D03*
X037436Y014022D03*
X037425Y014066D03*
X037414Y014100D03*
X037414Y014111D03*
X035736Y014333D03*
X017714Y013966D03*
X017447Y013966D03*
X017436Y014011D03*
X017436Y014022D03*
X017425Y014066D03*
X017414Y014100D03*
X017414Y014111D03*
X015736Y014333D03*
D158*
X016802Y014200D03*
X016847Y014044D03*
X016847Y014033D03*
X016847Y014022D03*
X016858Y013988D03*
X016858Y013977D03*
X017291Y014477D03*
X017291Y014488D03*
X017291Y014500D03*
X017869Y014544D03*
X036802Y014200D03*
X036847Y014044D03*
X036847Y014033D03*
X036847Y014022D03*
X036858Y013988D03*
X036858Y013977D03*
X037291Y014477D03*
X037291Y014488D03*
X037291Y014500D03*
X037869Y014544D03*
D159*
X037853Y014500D03*
X037853Y014488D03*
X037853Y014477D03*
X037808Y014322D03*
X036853Y014011D03*
X036853Y014000D03*
X035753Y014344D03*
X017853Y014477D03*
X017853Y014488D03*
X017853Y014500D03*
X017808Y014322D03*
X016853Y014011D03*
X016853Y014000D03*
X015753Y014344D03*
D160*
X017430Y014044D03*
X017430Y014033D03*
X037430Y014044D03*
X037430Y014033D03*
D161*
X036708Y014555D03*
X033653Y014455D03*
X032675Y014455D03*
X032686Y014055D03*
X016708Y014555D03*
X013653Y014455D03*
X012675Y014455D03*
X012686Y014055D03*
D162*
X016036Y014055D03*
X036036Y014055D03*
D163*
X036836Y014055D03*
X016836Y014055D03*
D164*
X017141Y014055D03*
X017174Y014155D03*
X037141Y014055D03*
X037174Y014155D03*
D165*
X037736Y014055D03*
X017736Y014055D03*
D166*
X018569Y014055D03*
X038569Y014055D03*
D167*
X036047Y014066D03*
X016047Y014066D03*
D168*
X016825Y014111D03*
X016825Y014122D03*
X016836Y014088D03*
X016836Y014077D03*
X016836Y014066D03*
X036825Y014122D03*
X036825Y014111D03*
X036836Y014088D03*
X036836Y014077D03*
X036836Y014066D03*
D169*
X038575Y014066D03*
X018575Y014066D03*
D170*
X018580Y014077D03*
X038580Y014077D03*
D171*
X036058Y014088D03*
X016058Y014088D03*
D172*
X018592Y014088D03*
X013169Y014866D03*
X033169Y014866D03*
X038592Y014088D03*
D173*
X036069Y014100D03*
X016069Y014100D03*
D174*
X016830Y014100D03*
X018830Y014288D03*
X036830Y014100D03*
X038830Y014288D03*
D175*
X038597Y014100D03*
X018597Y014100D03*
D176*
X016080Y014111D03*
X036080Y014111D03*
D177*
X036008Y014466D03*
X038608Y014111D03*
X018608Y014111D03*
X016008Y014466D03*
D178*
X016091Y014122D03*
X036091Y014122D03*
D179*
X038541Y014477D03*
X038619Y014122D03*
X018619Y014122D03*
X018541Y014477D03*
D180*
X018636Y014133D03*
X016102Y014133D03*
X036102Y014133D03*
X038636Y014133D03*
D181*
X037802Y014300D03*
X037802Y014311D03*
X037780Y014233D03*
X037780Y014222D03*
X037780Y014211D03*
X037758Y014144D03*
X037758Y014133D03*
X017802Y014300D03*
X017802Y014311D03*
X017780Y014233D03*
X017780Y014222D03*
X017780Y014211D03*
X017758Y014144D03*
X017758Y014133D03*
D182*
X016119Y014144D03*
X036119Y014144D03*
D183*
X038547Y014500D03*
X038647Y014144D03*
X018647Y014144D03*
X018547Y014500D03*
D184*
X016130Y014155D03*
X036130Y014155D03*
D185*
X036813Y014155D03*
X016813Y014155D03*
D186*
X017403Y014155D03*
X037403Y014155D03*
D187*
X037758Y014155D03*
X017758Y014155D03*
D188*
X018664Y014155D03*
X038664Y014155D03*
D189*
X037791Y014266D03*
X037791Y014277D03*
X037769Y014200D03*
X037769Y014188D03*
X037769Y014177D03*
X037769Y014166D03*
X037291Y014522D03*
X037291Y014533D03*
X037291Y014544D03*
X017791Y014277D03*
X017791Y014266D03*
X017769Y014200D03*
X017769Y014188D03*
X017769Y014177D03*
X017769Y014166D03*
X017291Y014522D03*
X017291Y014533D03*
X017291Y014544D03*
D190*
X018680Y014166D03*
X038680Y014166D03*
D191*
X037291Y014177D03*
X037291Y014188D03*
X017291Y014188D03*
X017291Y014177D03*
D192*
X018558Y014533D03*
X018703Y014177D03*
X038558Y014533D03*
X038703Y014177D03*
D193*
X036230Y014200D03*
X016230Y014200D03*
D194*
X015691Y014255D03*
X035691Y014255D03*
D195*
X037292Y014255D03*
X017292Y014255D03*
D196*
X017791Y014255D03*
X037791Y014255D03*
D197*
X038225Y014255D03*
X018225Y014255D03*
D198*
X015702Y014266D03*
X035702Y014266D03*
D199*
X038225Y014266D03*
X018225Y014266D03*
D200*
X015702Y014277D03*
X035702Y014277D03*
D201*
X038236Y014277D03*
X018236Y014277D03*
D202*
X015708Y014288D03*
X035708Y014288D03*
D203*
X038236Y014288D03*
X018236Y014288D03*
D204*
X018241Y014300D03*
X015719Y014300D03*
X035719Y014300D03*
X038241Y014300D03*
D205*
X035719Y014311D03*
X015719Y014311D03*
D206*
X018247Y014311D03*
X038247Y014311D03*
D207*
X034280Y014355D03*
X034280Y014455D03*
X034280Y014555D03*
X014280Y014555D03*
X014280Y014455D03*
X014280Y014355D03*
D208*
X015075Y014355D03*
X015075Y014455D03*
X015075Y014555D03*
X035075Y014555D03*
X035075Y014455D03*
X035075Y014355D03*
D209*
X036264Y014355D03*
X033564Y014655D03*
X032764Y014655D03*
X016264Y014355D03*
X013564Y014655D03*
X012764Y014655D03*
D210*
X017291Y014355D03*
X018791Y014355D03*
X037291Y014355D03*
X038791Y014355D03*
D211*
X037841Y014455D03*
X037819Y014355D03*
X017841Y014455D03*
X017819Y014355D03*
D212*
X014280Y014366D03*
X014280Y014377D03*
X014280Y014388D03*
X014280Y014400D03*
X014280Y014411D03*
X014280Y014422D03*
X014280Y014433D03*
X014280Y014444D03*
X014280Y014466D03*
X014280Y014477D03*
X014280Y014488D03*
X014280Y014500D03*
X014280Y014511D03*
X014280Y014522D03*
X014280Y014533D03*
X014280Y014544D03*
X014280Y014566D03*
X034280Y014566D03*
X034280Y014544D03*
X034280Y014533D03*
X034280Y014522D03*
X034280Y014511D03*
X034280Y014500D03*
X034280Y014488D03*
X034280Y014477D03*
X034280Y014466D03*
X034280Y014444D03*
X034280Y014433D03*
X034280Y014422D03*
X034280Y014411D03*
X034280Y014400D03*
X034280Y014388D03*
X034280Y014377D03*
X034280Y014366D03*
D213*
X036014Y014366D03*
X038525Y014433D03*
X038547Y014366D03*
X018547Y014366D03*
X018525Y014433D03*
X016014Y014366D03*
D214*
X017819Y014366D03*
X017841Y014433D03*
X017841Y014444D03*
X037819Y014366D03*
X037841Y014433D03*
X037841Y014444D03*
D215*
X038530Y014388D03*
X036008Y014388D03*
X036008Y014377D03*
X018530Y014388D03*
X016008Y014388D03*
X016008Y014377D03*
D216*
X018519Y014422D03*
X018541Y014377D03*
X038519Y014422D03*
X038541Y014377D03*
D217*
X035997Y014400D03*
X035997Y014422D03*
X033164Y014844D03*
X015997Y014422D03*
X015997Y014400D03*
X013164Y014844D03*
D218*
X017830Y014411D03*
X017830Y014400D03*
X037830Y014411D03*
X037830Y014400D03*
D219*
X038525Y014400D03*
X038525Y014411D03*
X018525Y014411D03*
X018525Y014400D03*
D220*
X015991Y014411D03*
X035991Y014411D03*
D221*
X036003Y014455D03*
X016003Y014455D03*
D222*
X018530Y014455D03*
X038530Y014455D03*
D223*
X038536Y014466D03*
X018536Y014466D03*
D224*
X016008Y014477D03*
X036008Y014477D03*
D225*
X036025Y014500D03*
X016025Y014500D03*
D226*
X016025Y014511D03*
X036025Y014511D03*
D227*
X038552Y014511D03*
X018552Y014511D03*
D228*
X018558Y014522D03*
X016025Y014522D03*
X036025Y014522D03*
X038558Y014522D03*
D229*
X036036Y014533D03*
X016036Y014533D03*
D230*
X016036Y014544D03*
X036036Y014544D03*
D231*
X036041Y014555D03*
X016041Y014555D03*
D232*
X017286Y014555D03*
X037286Y014555D03*
D233*
X038569Y014555D03*
X018569Y014555D03*
D234*
X017291Y014566D03*
X037291Y014566D03*
D235*
X036063Y014588D03*
X016063Y014588D03*
D236*
X018586Y014588D03*
X038586Y014588D03*
D237*
X033453Y014733D03*
X013453Y014733D03*
D238*
X013164Y014744D03*
X033164Y014744D03*
D239*
X033163Y014755D03*
X013163Y014755D03*
D240*
X013163Y014855D03*
X033163Y014855D03*
D241*
X033164Y014877D03*
X013164Y014877D03*
D242*
X013164Y014900D03*
X033164Y014900D03*
D243*
X033164Y014911D03*
X013164Y014911D03*
D244*
X013164Y014955D03*
X033164Y014955D03*
D245*
X033164Y014988D03*
X013164Y014988D03*
D246*
X021314Y010352D02*
X021285Y010290D01*
X021267Y010223D01*
X021261Y010155D01*
X021267Y010087D01*
X021285Y010020D01*
X021314Y009958D01*
X021354Y009902D01*
X021402Y009854D01*
X021458Y009814D01*
X021520Y009785D01*
X021587Y009767D01*
X021655Y009761D01*
X021723Y009767D01*
X021790Y009785D01*
X021852Y009814D01*
X021908Y009854D01*
X021957Y009902D01*
X021996Y009958D01*
X022025Y010020D01*
X022043Y010087D01*
X022049Y010155D01*
X022043Y010223D01*
X022025Y010290D01*
X021996Y010352D01*
X021957Y010408D01*
X021908Y010457D01*
X021852Y010496D01*
X021790Y010525D01*
X021723Y010543D01*
X021655Y010549D01*
X021587Y010543D01*
X021520Y010525D01*
X021458Y010496D01*
X021402Y010457D01*
X021354Y010408D01*
X021314Y010352D01*
X021322Y010364D02*
X021988Y010364D01*
X022013Y010315D02*
X021297Y010315D01*
X021279Y010267D02*
X022031Y010267D01*
X022043Y010218D02*
X021267Y010218D01*
X021263Y010170D02*
X022048Y010170D01*
X022046Y010121D02*
X021264Y010121D01*
X021271Y010073D02*
X022039Y010073D01*
X022026Y010024D02*
X021284Y010024D01*
X021306Y009975D02*
X022004Y009975D01*
X021974Y009927D02*
X021336Y009927D01*
X021377Y009878D02*
X021933Y009878D01*
X021874Y009830D02*
X021436Y009830D01*
X021535Y009781D02*
X021775Y009781D01*
X021953Y010412D02*
X021358Y010412D01*
X021408Y010461D02*
X021902Y010461D01*
X021823Y010509D02*
X021487Y010509D01*
X002049Y010155D02*
X002043Y010223D01*
X002025Y010290D01*
X001996Y010352D01*
X001957Y010408D01*
X001908Y010457D01*
X001852Y010496D01*
X001790Y010525D01*
X001723Y010543D01*
X001655Y010549D01*
X001587Y010543D01*
X001520Y010525D01*
X001458Y010496D01*
X001402Y010457D01*
X001354Y010408D01*
X001314Y010352D01*
X001285Y010290D01*
X001267Y010223D01*
X001261Y010155D01*
X001267Y010087D01*
X001285Y010020D01*
X001314Y009958D01*
X001354Y009902D01*
X001402Y009854D01*
X001458Y009814D01*
X001520Y009785D01*
X001587Y009767D01*
X001655Y009761D01*
X001723Y009767D01*
X001790Y009785D01*
X001852Y009814D01*
X001908Y009854D01*
X001957Y009902D01*
X001996Y009958D01*
X002025Y010020D01*
X002043Y010087D01*
X002049Y010155D01*
X002048Y010170D02*
X001263Y010170D01*
X001267Y010218D02*
X002043Y010218D01*
X002031Y010267D02*
X001279Y010267D01*
X001297Y010315D02*
X002013Y010315D01*
X001988Y010364D02*
X001322Y010364D01*
X001358Y010412D02*
X001953Y010412D01*
X001902Y010461D02*
X001408Y010461D01*
X001487Y010509D02*
X001823Y010509D01*
X002046Y010121D02*
X001264Y010121D01*
X001271Y010073D02*
X002039Y010073D01*
X002026Y010024D02*
X001284Y010024D01*
X001306Y009975D02*
X002004Y009975D01*
X001974Y009927D02*
X001336Y009927D01*
X001377Y009878D02*
X001933Y009878D01*
X001874Y009830D02*
X001436Y009830D01*
X001535Y009781D02*
X001775Y009781D01*
X015958Y035814D02*
X015902Y035854D01*
X015854Y035902D01*
X015814Y035958D01*
X015785Y036020D01*
X015767Y036087D01*
X015761Y036155D01*
X015767Y036223D01*
X015785Y036290D01*
X015814Y036352D01*
X015854Y036408D01*
X015902Y036457D01*
X015958Y036496D01*
X016020Y036525D01*
X016087Y036543D01*
X016155Y036549D01*
X016223Y036543D01*
X016290Y036525D01*
X016352Y036496D01*
X016408Y036457D01*
X016457Y036408D01*
X016496Y036352D01*
X016525Y036290D01*
X016543Y036223D01*
X016549Y036155D01*
X016543Y036087D01*
X016525Y036020D01*
X016496Y035958D01*
X016457Y035902D01*
X016408Y035854D01*
X016352Y035814D01*
X016290Y035785D01*
X016223Y035767D01*
X016155Y035761D01*
X016087Y035767D01*
X016020Y035785D01*
X015958Y035814D01*
X015988Y035800D02*
X016323Y035800D01*
X016402Y035849D02*
X015909Y035849D01*
X015858Y035898D02*
X016452Y035898D01*
X016488Y035946D02*
X015823Y035946D01*
X015797Y035995D02*
X016513Y035995D01*
X016531Y036043D02*
X015779Y036043D01*
X015767Y036092D02*
X016543Y036092D01*
X016547Y036140D02*
X015763Y036140D01*
X015764Y036189D02*
X016546Y036189D01*
X016539Y036237D02*
X015771Y036237D01*
X015784Y036286D02*
X016526Y036286D01*
X016504Y036334D02*
X015806Y036334D01*
X015836Y036383D02*
X016474Y036383D01*
X016433Y036432D02*
X015877Y036432D01*
X015935Y036480D02*
X016375Y036480D01*
X016277Y036529D02*
X016034Y036529D01*
X035761Y036155D02*
X035767Y036223D01*
X035785Y036290D01*
X035814Y036352D01*
X035854Y036408D01*
X035902Y036457D01*
X035958Y036496D01*
X036020Y036525D01*
X036087Y036543D01*
X036155Y036549D01*
X036223Y036543D01*
X036290Y036525D01*
X036352Y036496D01*
X036408Y036457D01*
X036457Y036408D01*
X036496Y036352D01*
X036525Y036290D01*
X036543Y036223D01*
X036549Y036155D01*
X036543Y036087D01*
X036525Y036020D01*
X036496Y035958D01*
X036457Y035902D01*
X036408Y035854D01*
X036352Y035814D01*
X036290Y035785D01*
X036223Y035767D01*
X036155Y035761D01*
X036087Y035767D01*
X036020Y035785D01*
X035958Y035814D01*
X035902Y035854D01*
X035854Y035902D01*
X035814Y035958D01*
X035785Y036020D01*
X035767Y036087D01*
X035761Y036155D01*
X035763Y036140D02*
X036547Y036140D01*
X036543Y036092D02*
X035767Y036092D01*
X035779Y036043D02*
X036531Y036043D01*
X036513Y035995D02*
X035797Y035995D01*
X035823Y035946D02*
X036488Y035946D01*
X036452Y035898D02*
X035858Y035898D01*
X035909Y035849D02*
X036402Y035849D01*
X036323Y035800D02*
X035988Y035800D01*
X035764Y036189D02*
X036546Y036189D01*
X036539Y036237D02*
X035771Y036237D01*
X035784Y036286D02*
X036526Y036286D01*
X036504Y036334D02*
X035806Y036334D01*
X035836Y036383D02*
X036474Y036383D01*
X036433Y036432D02*
X035877Y036432D01*
X035935Y036480D02*
X036375Y036480D01*
X036277Y036529D02*
X036034Y036529D01*
M02*
